<svg width="68" height="68" viewBox="0 0 68 68" fill="none" xmlns="http://www.w3.org/2000/svg">
<path fill-rule="evenodd" clip-rule="evenodd" d="M5.23251 0H8.01695L13.2308 12.7752H10.3342L9.21296 9.99716H4.03651L2.91526 12.7752H0L5.23251 0ZM8.46546 7.78572L6.61539 2.92421L4.76532 7.78572H8.46546Z" fill="white"/>
<path d="M57.5385 0H60.3129V10.4541H66.1539V12.7752H57.5385V0Z" fill="white"/>
<path d="M4.27415 67.1922C5.3416 67.7307 6.57041 68 7.96058 68C9.92171 68 11.4732 67.5839 12.6152 66.7516V64.108C12.007 64.5853 11.3491 64.9341 10.6416 65.1544C9.93413 65.3625 9.12113 65.4665 8.20262 65.4665C6.8621 65.4665 5.79465 65.0993 5.00027 64.365C4.20588 63.6184 3.80869 62.6025 3.80869 61.3174C3.80869 60.0446 4.19968 59.0409 4.98165 58.3066C5.77603 57.56 6.84969 57.1867 8.20262 57.1867C9.0963 57.1867 9.89068 57.2907 10.5858 57.4988C11.2933 57.6946 11.9201 58.019 12.4662 58.4718V55.8282C11.2622 55.0204 9.76035 54.6165 7.96058 54.6165C6.57041 54.6165 5.3416 54.8919 4.27415 55.4426C3.2067 55.9812 2.38129 56.7583 1.79791 57.7742C1.21454 58.7778 0.922852 59.9589 0.922852 61.3174C0.922852 62.676 1.21454 63.857 1.79791 64.8607C2.38129 65.8643 3.2067 66.6415 4.27415 67.1922Z" fill="white"/>
<path fill-rule="evenodd" clip-rule="evenodd" d="M30.781 67.1555C31.8451 67.7185 33.0268 68 34.326 68C35.6253 68 36.7946 67.7185 37.834 67.1555C38.8858 66.5925 39.7148 65.8092 40.3211 64.8056C40.9274 63.7897 41.2306 62.627 41.2306 61.3174C41.2306 60.0078 40.9274 58.8451 40.3211 57.8293C39.7148 56.8134 38.8858 56.024 37.834 55.461C36.7946 54.898 35.6253 54.6165 34.326 54.6165C33.0268 54.6165 31.8451 54.898 30.781 55.461C29.7292 56.024 28.9002 56.8134 28.2939 57.8293C27.6876 58.8451 27.3844 60.0078 27.3844 61.3174C27.3844 62.627 27.6876 63.7897 28.2939 64.8056C28.9002 65.8092 29.7292 66.5925 30.781 67.1555ZM36.3492 64.9341C35.7428 65.2645 35.0685 65.4298 34.326 65.4298C33.5713 65.4298 32.8845 65.2645 32.2658 64.9341C31.6471 64.5914 31.1584 64.1141 30.7995 63.5021C30.4407 62.8779 30.2613 62.1497 30.2613 61.3174C30.2613 60.4974 30.4407 59.7814 30.7995 59.1695C31.1584 58.5453 31.641 58.0679 32.2473 57.7375C32.866 57.3948 33.5589 57.2234 34.326 57.2234C35.0808 57.2234 35.7614 57.3948 36.3677 57.7375C36.9864 58.0679 37.469 58.5453 37.8154 59.1695C38.1743 59.7814 38.3537 60.4974 38.3537 61.3174C38.3537 62.1497 38.1743 62.8779 37.8154 63.5021C37.4566 64.1141 36.9678 64.5914 36.3492 64.9341Z" fill="white"/>
<path d="M56.3075 54.9207H59.0722V60.038H64.6197V54.9207H67.3844V67.6958H64.6197V62.3409H59.0722V67.6958H56.3075V54.9207Z" fill="white"/>
<path d="M11.3846 27.8048H2.15381V40.5799H11.3846V38.2588H5.04675V35.3163H9.70972V33.0866H5.04675V30.1259H11.3846V27.8048Z" fill="white"/>
<path d="M55.4582 27.8048L60.0924 34.1467L55.3846 40.5799H58.5844L61.6923 36.3398L64.8002 40.5799H68L63.2922 34.1467L67.9448 27.8048H64.745L61.6923 31.9718L58.658 27.8048H55.4582Z" fill="white"/>
</svg>
