<svg width="200" height="200" viewBox="0 0 200 200" fill="none" xmlns="http://www.w3.org/2000/svg">
<circle cx="100" cy="100" r="99.5" transform="rotate(-90 100 100)" stroke="#7B7887"/>
<path d="M30 0.499999C33.8997 0.499999 37.7152 3.13663 41.2695 8.14776C44.8146 13.1459 48.0276 20.4108 50.7343 29.433C56.1457 47.4711 59.5 72.4204 59.5 100C59.5 127.58 56.1457 152.529 50.7343 170.567C48.0276 179.589 44.8146 186.854 41.2695 191.852C37.7152 196.863 33.8997 199.5 30 199.5C26.1003 199.5 22.2848 196.863 18.7305 191.852C15.1854 186.854 11.9724 179.589 9.26571 170.567C3.85429 152.529 0.499997 127.58 0.499996 100C0.499994 72.4204 3.85428 47.4711 9.2657 29.433C11.9724 20.4108 15.1854 13.1459 18.7305 8.14777C22.2848 3.13663 26.1003 0.499999 30 0.499999Z" stroke="#7B7887"/>
<path d="M130 0.500003C110.878 0.500004 93.5151 11.5718 80.9121 29.5761C68.3103 47.5787 60.5 72.4758 60.5 100C60.5 127.524 68.3103 152.421 80.9122 170.424C93.5151 188.428 110.878 199.5 130 199.5C149.122 199.5 166.485 188.428 179.088 170.424C191.69 152.421 199.5 127.524 199.5 100C199.5 72.4758 191.69 47.5787 179.088 29.5761C166.485 11.5718 149.122 0.500002 130 0.500003Z" stroke="#7B7887"/>
<circle cx="60" cy="100" r="6" transform="rotate(-90 60 100)" fill="#958B69"/>
</svg>
