<svg width="1440" height="1055" viewBox="0 0 1440 1055" fill="none" xmlns="http://www.w3.org/2000/svg">
<path d="M458.693 819.654C458.693 830.474 457.072 841.836 453.831 853.738C450.589 864.559 447.347 873.756 444.106 881.331C441.944 884.577 431.679 895.939 413.31 915.415C396.021 933.81 373.87 953.287 346.856 973.846C320.923 994.405 291.208 1013.34 257.711 1030.65C225.294 1046.88 193.958 1055 163.703 1055C145.334 1055 126.424 1051.75 106.974 1045.26C88.605 1038.77 71.3162 1028.49 55.108 1014.42C38.8998 999.274 25.3929 980.88 14.5874 959.238C4.86247 937.597 0 911.087 0 879.708C0 827.769 8.64439 780.7 25.9332 738.5C43.222 696.3 60.5107 662.756 77.7995 637.869C85.3634 625.967 95.0883 614.064 106.974 602.161C119.941 589.177 132.367 577.815 144.253 568.077C156.139 557.256 166.945 548.6 176.67 542.108C187.475 535.615 195.039 532.369 199.361 532.369C209.086 532.369 217.731 535.074 225.294 540.485C233.939 545.895 238.261 551.305 238.261 556.715C238.261 565.372 235.56 572.946 230.157 579.438C225.835 584.849 219.351 591.341 210.707 598.915C202.063 605.408 191.797 614.605 179.911 626.508C168.025 637.328 155.599 651.936 142.632 670.331C116.699 706.039 97.2494 742.828 84.2828 780.7C72.3968 817.49 66.4537 849.951 66.4537 878.085C66.4537 906.218 76.719 928.941 97.2494 946.254C118.86 962.485 141.012 970.6 163.703 970.6C204.764 970.6 240.962 961.403 272.298 943.008C304.715 924.613 332.269 904.054 354.96 881.331C377.652 858.608 396.021 838.049 410.068 819.654C424.115 801.259 434.381 792.062 440.864 792.062C452.75 792.062 458.693 801.259 458.693 819.654Z" fill="#2E0DB3"/>
<path d="M813.919 764.469C813.919 788.274 810.677 810.997 804.194 832.638C797.711 854.279 789.067 873.215 778.261 889.446C767.456 905.677 754.489 918.662 739.361 928.4C725.314 937.056 709.646 941.385 692.357 941.385C662.102 941.385 638.33 932.728 621.041 915.415C603.752 898.103 590.246 878.085 580.521 855.362C571.876 832.638 565.933 809.915 562.692 787.192C560.53 763.387 559.45 745.533 559.45 733.631C559.45 714.154 562.151 692.513 567.554 668.708C574.037 643.82 582.141 621.097 591.866 600.539C602.672 579.979 614.558 562.667 627.525 548.6C640.491 534.533 653.998 527.5 668.045 527.5C671.287 527.5 676.149 528.582 682.633 530.746C690.196 532.91 697.76 536.156 705.324 540.485C712.888 544.813 719.371 550.223 724.774 556.715C731.257 563.208 735.579 570.782 737.74 579.438C749.627 580.52 761.513 584.849 773.398 592.423C785.285 599.997 791.768 605.949 792.848 610.277C801.493 638.41 806.896 666.544 809.057 694.677C812.298 722.81 813.919 746.074 813.919 764.469ZM740.982 735.254C740.982 719.023 739.361 702.251 736.12 684.938C732.878 666.544 726.395 648.149 716.67 629.754C714.509 630.836 711.807 631.377 708.566 631.377C704.243 631.377 700.462 630.836 697.22 629.754C695.059 628.672 692.898 628.131 690.737 628.131C677.77 628.131 667.505 631.918 659.941 639.492C652.377 645.985 646.434 655.182 642.112 667.085C638.87 677.905 636.709 689.808 635.629 702.792C634.548 715.777 634.008 728.221 634.008 740.123C634.008 752.026 634.548 765.551 635.629 780.7C636.709 794.767 638.87 808.292 642.112 821.277C646.434 834.261 651.837 845.623 658.32 855.362C664.803 864.018 673.448 868.346 684.253 868.346C695.059 868.346 704.243 862.936 711.807 852.115C719.371 840.213 725.314 826.687 729.636 811.539C733.959 796.39 736.66 781.782 737.74 767.715C739.902 752.567 740.982 741.746 740.982 735.254Z" fill="#2E0DB3"/>
<path d="M1431.9 814.785C1437.3 820.195 1440 823.441 1440 824.523C1440 826.687 1436.76 833.18 1430.28 844C1424.87 854.821 1417.31 866.182 1407.58 878.085C1397.86 889.987 1387.05 900.808 1375.17 910.546C1364.36 919.203 1353.56 923.531 1342.75 923.531C1320.06 923.531 1301.69 919.203 1287.64 910.546C1273.6 900.808 1261.71 888.905 1251.98 874.839C1243.34 860.772 1236.32 845.623 1230.91 829.392C1226.59 812.079 1222.81 795.849 1219.57 780.7C1217.41 773.126 1215.25 769.338 1213.08 769.338C1209.84 769.338 1203.36 781.241 1193.64 805.046C1183.91 827.769 1173.1 853.197 1161.22 881.331C1150.41 908.382 1139.61 933.81 1128.8 957.615C1119.08 980.338 1112.59 991.7 1109.35 991.7C1089.9 991.7 1073.15 983.585 1059.11 967.354C1046.14 950.041 1035.33 930.564 1026.69 908.923C1019.13 886.2 1013.18 863.477 1008.86 840.754C1004.54 816.949 1001.84 798.554 1000.76 785.569C997.515 756.354 990.492 707.662 979.686 639.492C968.881 571.323 959.696 488.546 952.132 391.162C949.971 370.603 947.27 352.208 944.028 335.977C941.867 318.664 939.166 299.728 935.924 279.169C932.682 258.61 929.981 235.346 927.82 209.377C925.659 183.408 924.578 151.487 924.578 113.615C924.578 111.451 925.119 104.418 926.199 92.5153C927.28 80.6128 928.9 67.6282 931.062 53.5615C933.223 39.4948 936.464 27.0513 940.786 16.2308C946.189 5.41025 952.132 0 958.616 0C966.179 0 973.203 4.86924 979.686 14.6077C986.17 23.2641 991.572 33.5436 995.895 45.4462C1001.3 57.3488 1005.08 68.7103 1007.24 79.5308C1009.4 90.3513 1010.48 97.9257 1010.48 102.254C1010.48 118.485 1009.4 133.633 1007.24 147.7C1005.08 161.767 1004 174.751 1004 186.654C1004 202.885 1005.08 223.444 1007.24 248.331C1010.48 273.218 1014.26 298.646 1018.59 324.615C1022.91 350.585 1026.69 376.013 1029.93 400.9C1033.17 424.705 1035.87 444.182 1038.04 459.331C1038.04 460.413 1039.12 467.987 1041.28 482.054C1043.44 496.121 1045.6 513.974 1047.76 535.615C1051 556.174 1053.7 578.897 1055.86 603.785C1059.11 627.59 1062.35 651.395 1065.59 675.2C1068.83 697.923 1071.53 718.482 1073.69 736.877C1076.94 754.19 1079.1 766.633 1080.18 774.208C1080.18 777.454 1080.72 782.323 1081.8 788.815C1083.96 794.226 1085.58 800.718 1086.66 808.292C1088.82 815.867 1090.98 822.9 1093.14 829.392C1095.31 835.885 1098.01 840.754 1101.25 844C1107.73 831.015 1115.84 810.997 1125.56 783.946C1136.37 756.895 1147.17 729.303 1157.98 701.169C1169.86 673.036 1180.67 648.69 1190.39 628.131C1201.2 606.49 1210.38 595.669 1217.95 595.669C1226.59 595.669 1233.62 597.292 1239.02 600.539C1244.42 603.785 1251.44 606.49 1260.09 608.654C1270.89 612.982 1276.3 618.933 1276.3 626.508C1276.3 633 1277.38 641.115 1279.54 650.854C1281.7 663.838 1284.94 681.151 1289.26 702.792C1294.67 723.351 1300.61 743.91 1307.09 764.469C1313.58 783.946 1321.14 800.718 1329.78 814.785C1338.43 828.851 1347.07 835.885 1355.72 835.885C1360.04 835.885 1365.98 830.474 1373.55 819.654C1381.11 807.751 1391.38 801.259 1404.34 800.177C1406.5 800.177 1410.29 801.8 1415.69 805.046C1421.09 807.21 1426.49 810.456 1431.9 814.785Z" fill="#2E0DB3"/>
</svg>
