<svg width="375" height="432" viewBox="0 0 375 432" fill="none" xmlns="http://www.w3.org/2000/svg">
<path d="M131.527 323.161C132.508 326.823 132.992 330.814 132.978 335.135C132.865 339.09 132.606 342.496 132.199 345.352C131.765 346.646 129.332 351.419 124.902 359.671C120.738 367.459 115.032 376.052 107.784 385.451C100.9 394.753 92.5932 403.847 82.8636 412.734C73.4005 421.157 63.5659 426.736 53.3599 429.47C47.1634 431.131 40.4903 431.741 33.3406 431.302C26.5553 430.765 19.7912 428.849 13.0481 425.554C6.20697 421.892 -0.0173278 416.888 -5.62474 410.541C-10.8676 404.096 -14.9118 395.564 -17.7573 384.944C-22.4671 367.367 -23.8194 350.656 -21.8141 334.812C-19.8088 318.968 -17.0185 306.053 -13.4433 296.068C-11.9711 291.357 -9.76995 286.45 -6.83978 281.347C-3.64323 275.781 -0.481745 270.813 2.64466 266.443C5.67296 261.706 8.53299 257.8 11.2248 254.724C14.281 251.55 16.5382 249.768 17.9962 249.377C21.2767 248.498 24.438 248.632 27.4801 249.78C30.8867 250.829 32.8353 252.27 33.3259 254.101C34.1108 257.03 33.8864 259.838 32.6526 262.523C31.6853 264.745 30.087 267.528 27.8578 270.872C25.5306 273.851 22.9018 277.891 19.9716 282.994C16.9434 287.73 14.0762 293.797 11.3703 301.194C5.86028 315.622 2.63539 329.831 1.69561 343.82C1.02222 357.344 1.96108 368.867 4.51221 378.388C7.06334 387.909 12.5866 394.671 21.082 398.675C29.8438 402.214 38.052 402.958 45.7065 400.907C59.5575 397.196 70.9342 390.812 79.8366 381.754C89.1036 372.599 96.534 363.151 102.128 353.41C107.722 343.669 112.054 335.051 115.125 327.556C118.195 320.061 120.824 316.02 123.011 315.434C127.02 314.36 129.859 316.935 131.527 323.161Z" fill="#2E0DB3"/>
<path d="M246.351 272.377C248.509 280.433 249.476 288.416 249.252 296.326C249.027 304.236 247.828 311.426 245.655 317.895C243.482 324.365 240.285 329.931 236.066 334.594C232.112 338.793 227.219 341.674 221.387 343.237C211.181 345.972 202.377 345.191 194.975 340.894C187.573 336.598 181.202 331.044 175.861 324.233C170.884 317.325 166.819 310.172 163.665 302.775C160.777 294.914 158.794 288.97 157.715 284.941C155.949 278.35 154.897 270.782 154.561 262.237C154.491 253.229 155.165 244.807 156.581 236.97C158.362 229.036 160.801 222.102 163.9 216.17C166.998 210.237 170.916 206.636 175.655 205.367C176.748 205.074 178.487 205 180.87 205.147C183.618 205.195 186.464 205.61 189.408 206.391C192.352 207.172 195.029 208.417 197.44 210.126C200.216 211.737 202.361 213.91 203.875 216.644C207.983 215.936 212.385 216.326 217.081 217.815C221.777 219.304 224.504 220.732 225.261 222.1C230.728 230.839 235.102 239.872 238.382 249.197C242.026 258.425 244.683 266.152 246.351 272.377ZM219.098 269.083C217.626 263.59 215.558 258.06 212.895 252.494C210.133 246.562 206.278 240.923 201.33 235.577C200.699 236.138 199.837 236.565 198.743 236.858C197.285 237.249 195.96 237.408 194.769 237.335C193.942 237.164 193.164 237.176 192.435 237.371C188.061 238.543 184.941 240.753 183.077 244C181.114 246.881 179.943 250.53 179.564 254.949C179.452 258.904 179.803 263.128 180.615 267.619C181.428 272.111 182.375 276.371 183.454 280.4C184.533 284.428 185.942 288.956 187.68 293.985C189.32 298.648 191.276 303.03 193.547 307.131C196.182 311.135 199.035 314.492 202.105 317.201C205.077 319.545 208.385 320.228 212.03 319.252C215.675 318.275 218.283 315.614 219.853 311.268C221.325 306.556 222.104 301.442 222.188 295.925C222.272 290.407 221.859 285.219 220.948 280.361C220.303 275.039 219.687 271.28 219.098 269.083Z" fill="#2E0DB3"/>
<path d="M459.374 233.548C461.687 234.891 462.893 235.745 462.991 236.111C463.187 236.844 462.683 239.334 461.477 243.582C460.636 247.732 459.114 252.261 456.913 257.168C454.712 262.075 452.048 266.713 448.922 271.084C446.062 274.99 442.809 277.431 439.164 278.408C431.51 280.459 424.921 280.654 419.397 278.995C413.776 276.969 408.687 274.015 404.131 270.133C399.939 266.154 396.196 261.662 392.902 256.658C389.874 251.189 387.127 246.038 384.659 241.205C383.244 238.837 382.171 237.75 381.442 237.946C380.349 238.239 379.241 242.853 378.119 251.788C376.899 260.357 375.56 269.939 374.102 280.535C372.91 290.666 371.571 300.248 370.084 309.281C368.864 317.85 367.707 322.281 366.614 322.574C360.053 324.332 353.667 323.099 347.457 318.876C341.513 314.189 336.102 308.574 331.224 302.032C326.611 295.026 322.546 287.873 319.028 280.573C315.411 272.908 312.832 266.927 311.29 262.63C307.547 253.036 300.762 237.192 290.936 215.099C281.109 193.006 270.505 165.822 259.122 133.549C256.529 126.786 253.95 120.805 251.385 115.606C249.086 109.942 246.457 103.778 243.499 97.113C240.542 90.4484 237.521 82.8195 234.437 74.2263C231.353 65.633 228.094 54.9281 224.66 42.1114C224.463 41.379 224.008 38.9499 223.293 34.8242C222.578 30.6984 221.948 26.1576 221.401 21.2018C220.854 16.246 220.82 11.7418 221.296 7.68922C222.138 3.53898 223.652 1.17086 225.839 0.584848C228.39 -0.0988246 231.201 0.914199 234.271 3.62392C237.243 5.96744 239.998 8.95792 242.535 12.5953C245.437 16.1351 247.743 19.6383 249.453 23.1048C251.163 26.5714 252.215 29.0371 252.607 30.5018C254.079 35.9947 255.088 41.219 255.635 46.1748C256.181 51.1307 256.994 55.6226 258.074 59.6507C259.545 65.1436 261.774 72.0035 264.76 80.2306C268.11 88.3599 271.692 96.6236 275.505 105.022C279.318 113.419 282.899 121.683 286.249 129.812C289.502 137.576 292.179 143.923 294.282 148.854C294.38 149.22 295.431 151.686 297.436 156.251C299.44 160.816 301.788 166.663 304.48 173.792C307.437 180.456 310.409 187.902 313.395 196.129C316.647 203.892 319.899 211.656 323.151 219.419C326.305 226.816 329.081 233.529 331.478 239.559C334.142 245.125 335.999 249.141 337.05 251.607C337.345 252.705 337.968 254.304 338.922 256.404C340.141 258.039 341.277 260.09 342.328 262.556C343.744 264.924 345.111 267.109 346.428 269.11C347.746 271.112 349.099 272.516 350.487 273.321C351.496 268.341 352.415 260.834 353.242 250.8C354.434 240.669 355.577 230.354 356.671 219.857C358.129 209.261 359.567 200.045 360.983 192.209C362.666 183.908 364.783 179.416 367.334 178.733C370.25 177.951 372.767 177.866 374.883 178.476C377 179.086 379.615 179.367 382.727 179.318C386.764 179.806 389.127 181.332 389.813 183.895C390.402 186.092 391.503 188.741 393.115 191.841C395.021 196.04 397.685 201.606 401.105 208.539C404.792 215.009 408.661 221.429 412.712 227.801C416.665 233.806 420.738 238.799 424.929 242.778C429.121 246.757 432.675 248.356 435.591 247.574C437.049 247.184 438.563 244.816 440.133 240.47C441.605 235.758 444.479 232.633 448.755 231.095C449.484 230.9 450.907 231.107 453.024 231.717C455.043 231.961 457.159 232.572 459.374 233.548Z" fill="#2E0DB3"/>
</svg>
