<svg width="1440" height="720" viewBox="0 0 1440 720" fill="none" xmlns="http://www.w3.org/2000/svg">
<path d="M1440 0H0V720H1440V0Z" fill="#2E0DB3"/>
<path fill-rule="evenodd" clip-rule="evenodd" d="M1440 0L720 302.615L133.913 0H0L720 336.462L1440 0Z" fill="#050507"/>
<path d="M84.608 572.768L84.512 570.752L97.92 557.6H100.16L84.608 572.768ZM83.392 580V557.6H85.056V580H83.392ZM98.496 580L89.152 567.584L90.432 566.496L100.64 580H98.496ZM113.184 580V568.544C113.184 567.307 112.747 566.325 111.872 565.6C111.019 564.875 109.845 564.512 108.352 564.512C107.243 564.512 106.219 564.747 105.28 565.216C104.341 565.685 103.52 566.368 102.816 567.264L101.728 566.176C102.603 565.109 103.605 564.309 104.736 563.776C105.888 563.243 107.136 562.976 108.48 562.976C109.76 562.976 110.859 563.189 111.776 563.616C112.715 564.021 113.429 564.629 113.92 565.44C114.411 566.251 114.656 567.221 114.656 568.352V580H113.184ZM106.752 580.32C105.664 580.32 104.693 580.107 103.84 579.68C102.987 579.253 102.304 578.667 101.792 577.92C101.301 577.152 101.056 576.256 101.056 575.232C101.056 574.464 101.195 573.781 101.472 573.184C101.771 572.587 102.208 572.085 102.784 571.68C103.36 571.275 104.085 570.965 104.96 570.752C105.835 570.539 106.848 570.432 108 570.432H113.888L113.76 571.84H107.712C106.88 571.84 106.144 571.915 105.504 572.064C104.885 572.213 104.352 572.437 103.904 572.736C103.477 573.013 103.147 573.365 102.912 573.792C102.699 574.197 102.592 574.677 102.592 575.232C102.592 575.957 102.773 576.597 103.136 577.152C103.52 577.685 104.032 578.101 104.672 578.4C105.312 578.699 106.016 578.848 106.784 578.848C107.765 578.848 108.672 578.677 109.504 578.336C110.357 577.995 111.115 577.525 111.776 576.928C112.459 576.309 113.003 575.595 113.408 574.784L113.952 575.776C113.461 576.651 112.853 577.429 112.128 578.112C111.403 578.795 110.581 579.339 109.664 579.744C108.747 580.128 107.776 580.32 106.752 580.32ZM119.268 580V556.32H120.868V580H119.268ZM126.011 580V556.32H127.611V580H126.011ZM132.785 580V563.2H134.417V580H132.785ZM133.617 559.04C133.169 559.04 132.828 558.923 132.593 558.688C132.359 558.432 132.241 558.101 132.241 557.696C132.241 557.291 132.359 556.971 132.593 556.736C132.828 556.501 133.169 556.384 133.617 556.384C134.023 556.384 134.343 556.501 134.577 556.736C134.833 556.971 134.961 557.291 134.961 557.696C134.961 558.08 134.844 558.4 134.609 558.656C134.396 558.912 134.065 559.04 133.617 559.04ZM146.725 580.32C145.061 580.32 143.578 579.947 142.277 579.2C140.997 578.432 139.983 577.397 139.237 576.096C138.511 574.773 138.149 573.269 138.149 571.584C138.149 569.92 138.511 568.448 139.237 567.168C139.983 565.867 140.997 564.843 142.277 564.096C143.578 563.349 145.061 562.976 146.725 562.976C148.41 562.976 149.893 563.349 151.173 564.096C152.453 564.843 153.455 565.867 154.181 567.168C154.906 568.448 155.269 569.92 155.269 571.584C155.269 573.269 154.906 574.773 154.181 576.096C153.455 577.397 152.453 578.432 151.173 579.2C149.893 579.947 148.41 580.32 146.725 580.32ZM146.725 578.784C148.069 578.784 149.263 578.475 150.309 577.856C151.354 577.237 152.165 576.384 152.741 575.296C153.338 574.208 153.637 572.971 153.637 571.584C153.637 570.197 153.338 568.981 152.741 567.936C152.165 566.869 151.354 566.037 150.309 565.44C149.263 564.821 148.069 564.512 146.725 564.512C145.381 564.512 144.186 564.821 143.141 565.44C142.095 566.037 141.274 566.869 140.677 567.936C140.079 569.003 139.781 570.219 139.781 571.584C139.781 572.971 140.079 574.208 140.677 575.296C141.274 576.384 142.095 577.237 143.141 577.856C144.186 578.475 145.381 578.784 146.725 578.784ZM158.38 580V563.2H159.98L160.012 567.232L159.5 567.264C159.82 566.581 160.194 565.973 160.62 565.44C161.047 564.907 161.538 564.459 162.092 564.096C162.647 563.733 163.234 563.467 163.852 563.296C164.471 563.104 165.111 563.008 165.772 563.008C166.711 563.008 167.543 563.157 168.268 563.456C169.015 563.733 169.634 564.192 170.124 564.832C170.615 565.451 170.967 566.283 171.18 567.328L170.796 567.392L170.988 566.848C171.244 566.251 171.575 565.717 171.98 565.248C172.407 564.779 172.898 564.373 173.452 564.032C174.007 563.691 174.594 563.435 175.212 563.264C175.831 563.093 176.45 563.008 177.068 563.008C178.306 563.008 179.34 563.243 180.172 563.712C181.004 564.16 181.644 564.875 182.092 565.856C182.54 566.837 182.764 568.107 182.764 569.664V580H181.1V569.696C181.1 567.883 180.727 566.571 179.98 565.76C179.234 564.928 178.124 564.512 176.652 564.512C175.906 564.512 175.212 564.64 174.572 564.896C173.932 565.152 173.367 565.493 172.876 565.92C172.407 566.347 172.044 566.827 171.788 567.36C171.532 567.872 171.404 568.384 171.404 568.896V580H169.772V569.696C169.772 567.904 169.399 566.592 168.652 565.76C167.906 564.928 166.818 564.512 165.388 564.512C164.599 564.512 163.874 564.651 163.212 564.928C162.572 565.205 162.007 565.557 161.516 565.984C161.047 566.389 160.674 566.837 160.396 567.328C160.119 567.797 159.98 568.235 159.98 568.64V580H158.38ZM197.952 580V568.544C197.952 567.307 197.514 566.325 196.64 565.6C195.786 564.875 194.613 564.512 193.12 564.512C192.01 564.512 190.986 564.747 190.048 565.216C189.109 565.685 188.288 566.368 187.584 567.264L186.496 566.176C187.37 565.109 188.373 564.309 189.504 563.776C190.656 563.243 191.904 562.976 193.248 562.976C194.528 562.976 195.626 563.189 196.544 563.616C197.482 564.021 198.197 564.629 198.688 565.44C199.178 566.251 199.424 567.221 199.424 568.352V580H197.952ZM191.52 580.32C190.432 580.32 189.461 580.107 188.608 579.68C187.754 579.253 187.072 578.667 186.56 577.92C186.069 577.152 185.824 576.256 185.824 575.232C185.824 574.464 185.962 573.781 186.24 573.184C186.538 572.587 186.976 572.085 187.552 571.68C188.128 571.275 188.853 570.965 189.728 570.752C190.602 570.539 191.616 570.432 192.768 570.432H198.656L198.528 571.84H192.48C191.648 571.84 190.912 571.915 190.272 572.064C189.653 572.213 189.12 572.437 188.672 572.736C188.245 573.013 187.914 573.365 187.68 573.792C187.466 574.197 187.36 574.677 187.36 575.232C187.36 575.957 187.541 576.597 187.904 577.152C188.288 577.685 188.8 578.101 189.44 578.4C190.08 578.699 190.784 578.848 191.552 578.848C192.533 578.848 193.44 578.677 194.272 578.336C195.125 577.995 195.882 577.525 196.544 576.928C197.226 576.309 197.77 575.595 198.176 574.784L198.72 575.776C198.229 576.651 197.621 577.429 196.896 578.112C196.17 578.795 195.349 579.339 194.432 579.744C193.514 580.128 192.544 580.32 191.52 580.32ZM195.744 559.008C195.296 559.008 194.954 558.891 194.72 558.656C194.506 558.4 194.4 558.08 194.4 557.696C194.4 557.291 194.506 556.971 194.72 556.736C194.954 556.48 195.296 556.352 195.744 556.352C196.149 556.352 196.48 556.48 196.736 556.736C196.992 556.971 197.12 557.291 197.12 557.696C197.12 558.08 196.992 558.4 196.736 558.656C196.501 558.891 196.17 559.008 195.744 559.008ZM190.368 559.008C189.941 559.008 189.6 558.891 189.344 558.656C189.109 558.4 188.992 558.08 188.992 557.696C188.992 557.291 189.109 556.971 189.344 556.736C189.6 556.48 189.941 556.352 190.368 556.352C190.794 556.352 191.125 556.48 191.36 556.736C191.594 556.971 191.712 557.291 191.712 557.696C191.712 558.08 191.594 558.4 191.36 558.656C191.146 558.891 190.816 559.008 190.368 559.008ZM204.9 574.432L204.836 572.48L214.212 563.2H216.484L204.9 574.432ZM203.524 580V556.32H205.156V580H203.524ZM215.14 580L207.62 571.36L208.804 570.272L217.252 580H215.14ZM219.998 580V563.2H221.63V580H219.998ZM220.83 559.04C220.382 559.04 220.04 558.923 219.806 558.688C219.571 558.432 219.454 558.101 219.454 557.696C219.454 557.291 219.571 556.971 219.806 556.736C220.04 556.501 220.382 556.384 220.83 556.384C221.235 556.384 221.555 556.501 221.79 556.736C222.046 556.971 222.174 557.291 222.174 557.696C222.174 558.08 222.056 558.4 221.822 558.656C221.608 558.912 221.278 559.04 220.83 559.04ZM241.018 580.32C239.461 580.32 238.053 579.968 236.794 579.264C235.535 578.539 234.394 577.312 233.37 575.584L234.746 574.72C235.386 575.744 236.047 576.555 236.73 577.152C237.413 577.749 238.117 578.176 238.842 578.432C239.589 578.667 240.367 578.784 241.178 578.784C242.245 578.784 243.205 578.528 244.058 578.016C244.933 577.483 245.615 576.768 246.106 575.872C246.597 574.976 246.842 573.984 246.842 572.896C246.842 571.808 246.607 570.859 246.138 570.048C245.69 569.216 245.071 568.565 244.282 568.096C243.493 567.605 242.597 567.36 241.594 567.36C241.167 567.36 240.719 567.403 240.25 567.488C239.802 567.552 239.333 567.701 238.842 567.936C238.373 568.149 237.871 568.501 237.338 568.992L236.73 567.648L245.722 558.656L245.978 559.168H235.226V557.6H247.29L247.77 558.528L239.194 567.136L238.682 566.72C239.109 566.421 239.567 566.187 240.058 566.016C240.549 565.845 241.103 565.76 241.722 565.76C242.703 565.76 243.599 565.941 244.41 566.304C245.242 566.645 245.957 567.136 246.554 567.776C247.173 568.395 247.653 569.141 247.994 570.016C248.335 570.891 248.506 571.829 248.506 572.832C248.506 574.24 248.175 575.509 247.514 576.64C246.874 577.771 245.989 578.667 244.858 579.328C243.727 579.989 242.447 580.32 241.018 580.32ZM257.508 580L257.444 579.776L264.132 566.944L264.228 567.808C263.716 568.768 263.118 569.579 262.436 570.24C261.774 570.88 261.049 571.36 260.26 571.68C259.47 572 258.638 572.16 257.764 572.16C256.462 572.16 255.268 571.84 254.18 571.2C253.113 570.539 252.26 569.664 251.62 568.576C250.98 567.467 250.66 566.229 250.66 564.864C250.66 563.435 250.99 562.144 251.652 560.992C252.313 559.84 253.209 558.933 254.34 558.272C255.47 557.611 256.74 557.28 258.148 557.28C259.172 557.28 260.132 557.472 261.028 557.856C261.924 558.219 262.702 558.731 263.364 559.392C264.046 560.053 264.58 560.843 264.964 561.76C265.369 562.677 265.572 563.68 265.572 564.768C265.572 565.429 265.497 566.101 265.348 566.784C265.198 567.467 264.985 568.181 264.708 568.928C264.43 569.675 264.1 570.464 263.716 571.296C263.332 572.107 262.894 572.981 262.404 573.92L259.172 580H257.508ZM257.956 570.592C259.065 570.592 260.057 570.336 260.932 569.824C261.806 569.291 262.5 568.587 263.012 567.712C263.524 566.816 263.78 565.824 263.78 564.736C263.78 563.627 263.524 562.635 263.012 561.76C262.5 560.864 261.806 560.16 260.932 559.648C260.078 559.115 259.097 558.848 257.988 558.848C256.964 558.848 256.025 559.115 255.172 559.648C254.318 560.16 253.636 560.853 253.124 561.728C252.633 562.603 252.388 563.605 252.388 564.736C252.388 565.824 252.633 566.816 253.124 567.712C253.636 568.587 254.318 569.291 255.172 569.824C256.025 570.336 256.953 570.592 257.956 570.592ZM267.294 580L275.902 557.6H277.854L286.462 580H284.606L278.814 564.8C278.75 564.651 278.633 564.341 278.462 563.872C278.313 563.381 278.121 562.827 277.886 562.208C277.651 561.568 277.417 560.939 277.182 560.32C276.947 559.68 276.745 559.136 276.574 558.688L277.054 558.72C276.926 559.104 276.755 559.584 276.542 560.16C276.35 560.736 276.137 561.333 275.902 561.952C275.667 562.571 275.454 563.147 275.262 563.68C275.07 564.192 274.921 564.587 274.814 564.864L269.086 580H267.294ZM270.718 573.28L271.326 571.616H282.302L283.006 573.28H270.718ZM289.585 584.544L288.977 583.808C289.51 583.36 289.947 582.891 290.289 582.4C290.63 581.931 290.801 581.536 290.801 581.216C290.801 580.917 290.726 580.693 290.577 580.544C290.449 580.395 290.225 580.224 289.905 580.032C289.67 579.819 289.489 579.616 289.361 579.424C289.233 579.232 289.169 578.997 289.169 578.72C289.169 578.4 289.286 578.133 289.521 577.92C289.755 577.685 290.075 577.568 290.481 577.568C290.886 577.568 291.227 577.675 291.505 577.888C291.803 578.08 292.027 578.368 292.177 578.752C292.347 579.115 292.433 579.573 292.433 580.128C292.433 580.576 292.369 581.003 292.241 581.408C292.134 581.813 291.953 582.187 291.697 582.528C291.462 582.891 291.163 583.232 290.801 583.552C290.459 583.893 290.054 584.224 289.585 584.544ZM312.517 580.32C310.768 580.32 309.275 579.872 308.037 578.976C306.8 578.08 305.861 576.779 305.221 575.072C304.581 573.344 304.261 571.253 304.261 568.8C304.261 566.347 304.581 564.267 305.221 562.56C305.861 560.832 306.8 559.52 308.037 558.624C309.275 557.728 310.768 557.28 312.517 557.28C314.288 557.28 315.781 557.728 316.997 558.624C318.235 559.52 319.173 560.832 319.813 562.56C320.453 564.267 320.773 566.347 320.773 568.8C320.773 571.253 320.453 573.344 319.813 575.072C319.173 576.779 318.235 578.08 316.997 578.976C315.781 579.872 314.288 580.32 312.517 580.32ZM312.517 578.752C314.629 578.752 316.251 577.888 317.381 576.16C318.512 574.432 319.077 571.979 319.077 568.8C319.077 565.6 318.512 563.147 317.381 561.44C316.251 559.712 314.629 558.848 312.517 558.848C310.405 558.848 308.773 559.712 307.621 561.44C306.491 563.147 305.925 565.6 305.925 568.8C305.925 571.979 306.491 574.432 307.621 576.16C308.773 577.888 310.405 578.752 312.517 578.752ZM324.685 580L324.205 578.816L332.621 569.664C332.962 569.301 333.335 568.875 333.741 568.384C334.146 567.893 334.53 567.36 334.893 566.784C335.255 566.208 335.543 565.621 335.757 565.024C335.991 564.405 336.109 563.787 336.109 563.168C336.109 562.336 335.885 561.6 335.437 560.96C335.01 560.299 334.413 559.787 333.645 559.424C332.898 559.04 332.023 558.848 331.021 558.848C330.274 558.848 329.517 559.029 328.749 559.392C327.981 559.755 327.277 560.309 326.637 561.056C325.997 561.803 325.495 562.795 325.133 564.032L323.757 563.232C324.162 561.888 324.717 560.779 325.421 559.904C326.146 559.029 326.999 558.379 327.981 557.952C328.983 557.504 330.061 557.28 331.213 557.28C332.471 557.28 333.591 557.525 334.573 558.016C335.575 558.507 336.365 559.189 336.941 560.064C337.538 560.939 337.837 561.931 337.837 563.04C337.837 563.723 337.73 564.395 337.517 565.056C337.325 565.717 337.058 566.368 336.717 567.008C336.375 567.648 335.97 568.277 335.501 568.896C335.031 569.515 334.519 570.123 333.965 570.72L326.157 579.072L325.901 578.368H338.317V580H324.685ZM351.575 580V559.52L352.151 559.616L341.463 572.64L341.367 572.352H357.111V573.92H340.439L339.671 572.448L351.863 557.6H353.207V580H351.575ZM366.299 580L366.235 579.776L372.923 566.944L373.019 567.808C372.507 568.768 371.909 569.579 371.227 570.24C370.565 570.88 369.84 571.36 369.051 571.68C368.261 572 367.429 572.16 366.555 572.16C365.253 572.16 364.059 571.84 362.971 571.2C361.904 570.539 361.051 569.664 360.411 568.576C359.771 567.467 359.451 566.229 359.451 564.864C359.451 563.435 359.781 562.144 360.443 560.992C361.104 559.84 362 558.933 363.131 558.272C364.261 557.611 365.531 557.28 366.939 557.28C367.963 557.28 368.923 557.472 369.819 557.856C370.715 558.219 371.493 558.731 372.155 559.392C372.837 560.053 373.371 560.843 373.755 561.76C374.16 562.677 374.363 563.68 374.363 564.768C374.363 565.429 374.288 566.101 374.139 566.784C373.989 567.467 373.776 568.181 373.499 568.928C373.221 569.675 372.891 570.464 372.507 571.296C372.123 572.107 371.685 572.981 371.195 573.92L367.963 580H366.299ZM366.747 570.592C367.856 570.592 368.848 570.336 369.723 569.824C370.597 569.291 371.291 568.587 371.803 567.712C372.315 566.816 372.571 565.824 372.571 564.736C372.571 563.627 372.315 562.635 371.803 561.76C371.291 560.864 370.597 560.16 369.723 559.648C368.869 559.115 367.888 558.848 366.779 558.848C365.755 558.848 364.816 559.115 363.963 559.648C363.109 560.16 362.427 560.853 361.915 561.728C361.424 562.603 361.179 563.605 361.179 564.736C361.179 565.824 361.424 566.816 361.915 567.712C362.427 568.587 363.109 569.291 363.963 569.824C364.816 570.336 365.744 570.592 366.747 570.592ZM385.237 580.32C383.488 580.32 381.995 579.872 380.757 578.976C379.52 578.08 378.581 576.779 377.941 575.072C377.301 573.344 376.981 571.253 376.981 568.8C376.981 566.347 377.301 564.267 377.941 562.56C378.581 560.832 379.52 559.52 380.757 558.624C381.995 557.728 383.488 557.28 385.237 557.28C387.008 557.28 388.501 557.728 389.717 558.624C390.955 559.52 391.893 560.832 392.533 562.56C393.173 564.267 393.493 566.347 393.493 568.8C393.493 571.253 393.173 573.344 392.533 575.072C391.893 576.779 390.955 578.08 389.717 578.976C388.501 579.872 387.008 580.32 385.237 580.32ZM385.237 578.752C387.349 578.752 388.971 577.888 390.101 576.16C391.232 574.432 391.797 571.979 391.797 568.8C391.797 565.6 391.232 563.147 390.101 561.44C388.971 559.712 387.349 558.848 385.237 558.848C383.125 558.848 381.493 559.712 380.341 561.44C379.211 563.147 378.645 565.6 378.645 568.8C378.645 571.979 379.211 574.432 380.341 576.16C381.493 577.888 383.125 578.752 385.237 578.752ZM83.392 628V605.6H91.808C93.024 605.6 94.08 605.877 94.976 606.432C95.8933 606.987 96.608 607.744 97.12 608.704C97.6533 609.664 97.92 610.773 97.92 612.032C97.92 613.355 97.6533 614.539 97.12 615.584C96.608 616.629 95.8933 617.461 94.976 618.08C94.08 618.677 93.024 618.976 91.808 618.976H85.056V628H83.392ZM85.056 617.344H91.904C92.736 617.344 93.472 617.109 94.112 616.64C94.7733 616.171 95.2853 615.541 95.648 614.752C96.032 613.963 96.224 613.056 96.224 612.032C96.224 611.093 96.032 610.272 95.648 609.568C95.2853 608.843 94.7733 608.277 94.112 607.872C93.472 607.445 92.736 607.232 91.904 607.232H85.056V617.344ZM102.058 628V611.2H103.69V628H102.058ZM102.89 607.04C102.442 607.04 102.1 606.923 101.866 606.688C101.631 606.432 101.514 606.101 101.514 605.696C101.514 605.291 101.631 604.971 101.866 604.736C102.1 604.501 102.442 604.384 102.89 604.384C103.295 604.384 103.615 604.501 103.85 604.736C104.106 604.971 104.234 605.291 104.234 605.696C104.234 606.08 104.116 606.4 103.882 606.656C103.668 606.912 103.338 607.04 102.89 607.04ZM109.757 622.432L109.693 620.48L119.069 611.2H121.341L109.757 622.432ZM108.381 628V604.32H110.013V628H108.381ZM119.997 628L112.477 619.36L113.661 618.272L122.109 628H119.997ZM125.531 622.432L125.467 620.48L134.843 611.2H137.115L125.531 622.432ZM124.155 628V604.32H125.787V628H124.155ZM135.771 628L128.251 619.36L129.435 618.272L137.883 628H135.771ZM150.63 628V616.544C150.63 615.307 150.193 614.325 149.318 613.6C148.465 612.875 147.292 612.512 145.798 612.512C144.689 612.512 143.665 612.747 142.726 613.216C141.788 613.685 140.966 614.368 140.262 615.264L139.174 614.176C140.049 613.109 141.052 612.309 142.182 611.776C143.334 611.243 144.582 610.976 145.926 610.976C147.206 610.976 148.305 611.189 149.222 611.616C150.161 612.021 150.876 612.629 151.366 613.44C151.857 614.251 152.102 615.221 152.102 616.352V628H150.63ZM144.198 628.32C143.11 628.32 142.14 628.107 141.286 627.68C140.433 627.253 139.75 626.667 139.238 625.92C138.748 625.152 138.502 624.256 138.502 623.232C138.502 622.464 138.641 621.781 138.918 621.184C139.217 620.587 139.654 620.085 140.23 619.68C140.806 619.275 141.532 618.965 142.406 618.752C143.281 618.539 144.294 618.432 145.446 618.432H151.334L151.206 619.84H145.158C144.326 619.84 143.59 619.915 142.95 620.064C142.332 620.213 141.798 620.437 141.35 620.736C140.924 621.013 140.593 621.365 140.358 621.792C140.145 622.197 140.038 622.677 140.038 623.232C140.038 623.957 140.22 624.597 140.582 625.152C140.966 625.685 141.478 626.101 142.118 626.4C142.758 626.699 143.462 626.848 144.23 626.848C145.212 626.848 146.118 626.677 146.95 626.336C147.804 625.995 148.561 625.525 149.222 624.928C149.905 624.309 150.449 623.595 150.854 622.784L151.398 623.776C150.908 624.651 150.3 625.429 149.574 626.112C148.849 626.795 148.028 627.339 147.11 627.744C146.193 628.128 145.222 628.32 144.198 628.32ZM156.715 628V604.32H158.315V628H156.715ZM173.897 628V616.544C173.897 615.307 173.459 614.325 172.585 613.6C171.731 612.875 170.558 612.512 169.065 612.512C167.955 612.512 166.931 612.747 165.993 613.216C165.054 613.685 164.233 614.368 163.529 615.264L162.441 614.176C163.315 613.109 164.318 612.309 165.449 611.776C166.601 611.243 167.849 610.976 169.193 610.976C170.473 610.976 171.571 611.189 172.489 611.616C173.427 612.021 174.142 612.629 174.633 613.44C175.123 614.251 175.369 615.221 175.369 616.352V628H173.897ZM167.465 628.32C166.377 628.32 165.406 628.107 164.553 627.68C163.699 627.253 163.017 626.667 162.505 625.92C162.014 625.152 161.769 624.256 161.769 623.232C161.769 622.464 161.907 621.781 162.185 621.184C162.483 620.587 162.921 620.085 163.497 619.68C164.073 619.275 164.798 618.965 165.673 618.752C166.547 618.539 167.561 618.432 168.713 618.432H174.601L174.473 619.84H168.425C167.593 619.84 166.857 619.915 166.217 620.064C165.598 620.213 165.065 620.437 164.617 620.736C164.19 621.013 163.859 621.365 163.625 621.792C163.411 622.197 163.305 622.677 163.305 623.232C163.305 623.957 163.486 624.597 163.849 625.152C164.233 625.685 164.745 626.101 165.385 626.4C166.025 626.699 166.729 626.848 167.497 626.848C168.478 626.848 169.385 626.677 170.217 626.336C171.07 625.995 171.827 625.525 172.489 624.928C173.171 624.309 173.715 623.595 174.121 622.784L174.665 623.776C174.174 624.651 173.566 625.429 172.841 626.112C172.115 626.795 171.294 627.339 170.377 627.744C169.459 628.128 168.489 628.32 167.465 628.32ZM179.981 632.544L179.373 631.808C179.906 631.36 180.343 630.891 180.685 630.4C181.026 629.931 181.197 629.536 181.197 629.216C181.197 628.917 181.122 628.693 180.973 628.544C180.845 628.395 180.621 628.224 180.301 628.032C180.066 627.819 179.885 627.616 179.757 627.424C179.629 627.232 179.565 626.997 179.565 626.72C179.565 626.4 179.682 626.133 179.917 625.92C180.151 625.685 180.471 625.568 180.877 625.568C181.282 625.568 181.623 625.675 181.901 625.888C182.199 626.08 182.423 626.368 182.573 626.752C182.743 627.115 182.829 627.573 182.829 628.128C182.829 628.576 182.765 629.003 182.637 629.408C182.53 629.813 182.349 630.187 182.093 630.528C181.858 630.891 181.559 631.232 181.197 631.552C180.855 631.893 180.45 632.224 179.981 632.544ZM196.45 628V605.6H198.114V628H196.45ZM197.25 617.568V615.936H207.97V617.568H197.25ZM197.282 607.232V605.6H209.666V607.232H197.282ZM214.209 628V611.2H215.841V628H214.209ZM215.041 607.04C214.593 607.04 214.252 606.923 214.017 606.688C213.782 606.432 213.665 606.101 213.665 605.696C213.665 605.291 213.782 604.971 214.017 604.736C214.252 604.501 214.593 604.384 215.041 604.384C215.446 604.384 215.766 604.501 216.001 604.736C216.257 604.971 216.385 605.291 216.385 605.696C216.385 606.08 216.268 606.4 216.033 606.656C215.82 606.912 215.489 607.04 215.041 607.04ZM220.532 628V611.2H222.132L222.164 614.912L221.78 615.136C222.015 614.389 222.442 613.707 223.06 613.088C223.7 612.448 224.468 611.936 225.364 611.552C226.26 611.168 227.188 610.976 228.148 610.976C229.407 610.976 230.474 611.211 231.348 611.68C232.223 612.149 232.884 612.875 233.332 613.856C233.802 614.837 234.036 616.085 234.036 617.6V628H232.404V617.664C232.404 616.448 232.223 615.456 231.86 614.688C231.519 613.92 230.996 613.365 230.292 613.024C229.61 612.661 228.767 612.491 227.764 612.512C226.954 612.512 226.207 612.651 225.524 612.928C224.842 613.184 224.244 613.525 223.732 613.952C223.242 614.379 222.858 614.827 222.58 615.296C222.303 615.765 222.164 616.203 222.164 616.608V628H221.364C221.258 628 221.13 628 220.98 628C220.831 628 220.682 628 220.532 628ZM238.631 628V604.32H240.231V628H238.631ZM255.813 628V616.544C255.813 615.307 255.375 614.325 254.501 613.6C253.647 612.875 252.474 612.512 250.981 612.512C249.871 612.512 248.847 612.747 247.909 613.216C246.97 613.685 246.149 614.368 245.445 615.264L244.357 614.176C245.231 613.109 246.234 612.309 247.365 611.776C248.517 611.243 249.765 610.976 251.109 610.976C252.389 610.976 253.487 611.189 254.405 611.616C255.343 612.021 256.058 612.629 256.549 613.44C257.039 614.251 257.285 615.221 257.285 616.352V628H255.813ZM249.381 628.32C248.293 628.32 247.322 628.107 246.469 627.68C245.615 627.253 244.933 626.667 244.421 625.92C243.93 625.152 243.685 624.256 243.685 623.232C243.685 622.464 243.823 621.781 244.101 621.184C244.399 620.587 244.837 620.085 245.413 619.68C245.989 619.275 246.714 618.965 247.589 618.752C248.463 618.539 249.477 618.432 250.629 618.432H256.517L256.389 619.84H250.341C249.509 619.84 248.773 619.915 248.133 620.064C247.514 620.213 246.981 620.437 246.533 620.736C246.106 621.013 245.775 621.365 245.541 621.792C245.327 622.197 245.221 622.677 245.221 623.232C245.221 623.957 245.402 624.597 245.765 625.152C246.149 625.685 246.661 626.101 247.301 626.4C247.941 626.699 248.645 626.848 249.413 626.848C250.394 626.848 251.301 626.677 252.133 626.336C252.986 625.995 253.743 625.525 254.405 624.928C255.087 624.309 255.631 623.595 256.037 622.784L256.581 623.776C256.09 624.651 255.482 625.429 254.757 626.112C254.031 626.795 253.21 627.339 252.293 627.744C251.375 628.128 250.405 628.32 249.381 628.32ZM261.385 628V611.2H262.985L263.017 614.912L262.633 615.136C262.868 614.389 263.294 613.707 263.913 613.088C264.553 612.448 265.321 611.936 266.217 611.552C267.113 611.168 268.041 610.976 269.001 610.976C270.26 610.976 271.326 611.211 272.201 611.68C273.076 612.149 273.737 612.875 274.185 613.856C274.654 614.837 274.889 616.085 274.889 617.6V628H273.257V617.664C273.257 616.448 273.076 615.456 272.713 614.688C272.372 613.92 271.849 613.365 271.145 613.024C270.462 612.661 269.62 612.491 268.617 612.512C267.806 612.512 267.06 612.651 266.377 612.928C265.694 613.184 265.097 613.525 264.585 613.952C264.094 614.379 263.71 614.827 263.433 615.296C263.156 615.765 263.017 616.203 263.017 616.608V628H262.217C262.11 628 261.982 628 261.833 628C261.684 628 261.534 628 261.385 628ZM286.107 628.32C284.55 628.32 283.163 627.947 281.947 627.2C280.731 626.453 279.771 625.44 279.067 624.16C278.363 622.859 278.011 621.365 278.011 619.68C278.011 617.995 278.363 616.501 279.067 615.2C279.793 613.899 280.753 612.875 281.947 612.128C283.163 611.36 284.518 610.976 286.011 610.976C286.865 610.976 287.675 611.125 288.443 611.424C289.233 611.701 289.947 612.085 290.587 612.576C291.249 613.067 291.782 613.643 292.187 614.304C292.614 614.944 292.87 615.616 292.955 616.32L292.507 616.288V604.32H294.139V628H292.507V623.04L292.891 622.944C292.785 623.691 292.518 624.395 292.091 625.056C291.686 625.696 291.174 626.261 290.555 626.752C289.958 627.221 289.275 627.605 288.507 627.904C287.739 628.181 286.939 628.32 286.107 628.32ZM286.235 626.848C287.451 626.848 288.529 626.549 289.467 625.952C290.427 625.333 291.185 624.48 291.739 623.392C292.294 622.304 292.571 621.056 292.571 619.648C292.571 618.24 292.294 616.992 291.739 615.904C291.185 614.816 290.427 613.963 289.467 613.344C288.529 612.725 287.441 612.416 286.203 612.416C284.923 612.416 283.782 612.736 282.779 613.376C281.798 613.995 281.03 614.859 280.475 615.968C279.921 617.056 279.643 618.293 279.643 619.68C279.643 621.045 279.921 622.272 280.475 623.36C281.03 624.448 281.798 625.301 282.779 625.92C283.782 626.539 284.934 626.848 286.235 626.848Z" fill="white"/>
<path d="M80 584H395.061V585.6H80V584ZM80 632H296.411V633.6H80V632Z" fill="white"/>
<path d="M80.5 515L85.92 501H88.12L93.5 515H91.2L88 506.56C87.96 506.467 87.88 506.24 87.76 505.88C87.6533 505.52 87.5267 505.12 87.38 504.68C87.2333 504.24 87.1 503.84 86.98 503.48C86.86 503.107 86.78 502.867 86.74 502.76L87.2 502.74C87.12 502.967 87.02 503.253 86.9 503.6C86.7933 503.947 86.6733 504.313 86.54 504.7C86.42 505.087 86.3 505.453 86.18 505.8C86.06 506.133 85.96 506.413 85.88 506.64L82.7 515H80.5ZM82.9 511.52L83.7 509.44H90.06L90.98 511.52H82.9ZM99.2333 515.2C98.2733 515.2 97.4133 514.967 96.6533 514.5C95.9066 514.02 95.3133 513.373 94.8733 512.56C94.4333 511.733 94.2133 510.793 94.2133 509.74C94.2133 508.687 94.4266 507.753 94.8533 506.94C95.2933 506.113 95.8866 505.467 96.6333 505C97.3799 504.52 98.2266 504.28 99.1733 504.28C99.6933 504.28 100.193 504.367 100.673 504.54C101.167 504.7 101.607 504.927 101.993 505.22C102.38 505.5 102.68 505.813 102.893 506.16C103.12 506.493 103.233 506.833 103.233 507.18L102.633 507.22V500.2H104.693V515H102.633V512.5H103.033C103.033 512.82 102.927 513.14 102.713 513.46C102.5 513.767 102.213 514.053 101.853 514.32C101.507 514.587 101.1 514.8 100.633 514.96C100.18 515.12 99.7133 515.2 99.2333 515.2ZM99.5133 513.42C100.14 513.42 100.693 513.26 101.173 512.94C101.653 512.62 102.027 512.187 102.293 511.64C102.573 511.08 102.713 510.447 102.713 509.74C102.713 509.033 102.573 508.407 102.293 507.86C102.027 507.3 101.653 506.86 101.173 506.54C100.693 506.22 100.14 506.06 99.5133 506.06C98.8866 506.06 98.3333 506.22 97.8533 506.54C97.3733 506.86 96.9933 507.3 96.7133 507.86C96.4466 508.407 96.3133 509.033 96.3133 509.74C96.3133 510.447 96.4466 511.08 96.7133 511.64C96.9933 512.187 97.3733 512.62 97.8533 512.94C98.3333 513.26 98.8866 513.42 99.5133 513.42ZM111.709 515.2C110.749 515.2 109.889 514.967 109.129 514.5C108.382 514.02 107.789 513.373 107.349 512.56C106.909 511.733 106.689 510.793 106.689 509.74C106.689 508.687 106.902 507.753 107.329 506.94C107.769 506.113 108.362 505.467 109.109 505C109.856 504.52 110.702 504.28 111.649 504.28C112.169 504.28 112.669 504.367 113.149 504.54C113.642 504.7 114.082 504.927 114.469 505.22C114.856 505.5 115.156 505.813 115.369 506.16C115.596 506.493 115.709 506.833 115.709 507.18L115.109 507.22V500.2H117.169V515H115.109V512.5H115.509C115.509 512.82 115.402 513.14 115.189 513.46C114.976 513.767 114.689 514.053 114.329 514.32C113.982 514.587 113.576 514.8 113.109 514.96C112.656 515.12 112.189 515.2 111.709 515.2ZM111.989 513.42C112.616 513.42 113.169 513.26 113.649 512.94C114.129 512.62 114.502 512.187 114.769 511.64C115.049 511.08 115.189 510.447 115.189 509.74C115.189 509.033 115.049 508.407 114.769 507.86C114.502 507.3 114.129 506.86 113.649 506.54C113.169 506.22 112.616 506.06 111.989 506.06C111.362 506.06 110.809 506.22 110.329 506.54C109.849 506.86 109.469 507.3 109.189 507.86C108.922 508.407 108.789 509.033 108.789 509.74C108.789 510.447 108.922 511.08 109.189 511.64C109.469 512.187 109.849 512.62 110.329 512.94C110.809 513.26 111.362 513.42 111.989 513.42ZM119.805 515V504.5H121.885V507.8L121.685 507C121.832 506.493 122.078 506.033 122.425 505.62C122.785 505.207 123.192 504.88 123.645 504.64C124.112 504.4 124.592 504.28 125.085 504.28C125.312 504.28 125.525 504.3 125.725 504.34C125.938 504.38 126.105 504.427 126.225 504.48L125.685 506.72C125.525 506.653 125.345 506.6 125.145 506.56C124.958 506.507 124.772 506.48 124.585 506.48C124.225 506.48 123.878 506.553 123.545 506.7C123.225 506.833 122.938 507.027 122.685 507.28C122.445 507.52 122.252 507.807 122.105 508.14C121.958 508.46 121.885 508.813 121.885 509.2V515H119.805ZM132.122 515.2C131.042 515.2 130.082 514.973 129.242 514.52C128.415 514.053 127.762 513.42 127.282 512.62C126.815 511.82 126.582 510.9 126.582 509.86C126.582 509.033 126.715 508.28 126.982 507.6C127.249 506.92 127.615 506.333 128.082 505.84C128.562 505.333 129.129 504.947 129.782 504.68C130.449 504.4 131.169 504.26 131.942 504.26C132.622 504.26 133.255 504.393 133.842 504.66C134.429 504.913 134.935 505.267 135.362 505.72C135.802 506.173 136.135 506.713 136.362 507.34C136.602 507.953 136.715 508.627 136.702 509.36L136.682 510.24H128.102L127.642 508.6H134.902L134.602 508.94V508.46C134.562 508.02 134.415 507.627 134.162 507.28C133.909 506.933 133.589 506.66 133.202 506.46C132.815 506.26 132.395 506.16 131.942 506.16C131.222 506.16 130.615 506.3 130.122 506.58C129.629 506.847 129.255 507.247 129.002 507.78C128.749 508.3 128.622 508.947 128.622 509.72C128.622 510.453 128.775 511.093 129.082 511.64C129.389 512.173 129.822 512.587 130.382 512.88C130.942 513.173 131.589 513.32 132.322 513.32C132.842 513.32 133.322 513.233 133.762 513.06C134.215 512.887 134.702 512.573 135.222 512.12L136.262 513.58C135.942 513.9 135.549 514.18 135.082 514.42C134.629 514.66 134.142 514.853 133.622 515C133.115 515.133 132.615 515.2 132.122 515.2ZM142.241 515.2C141.361 515.2 140.567 515.047 139.861 514.74C139.154 514.433 138.567 513.98 138.101 513.38L139.501 512.18C139.901 512.647 140.334 512.987 140.801 513.2C141.281 513.4 141.821 513.5 142.421 513.5C142.661 513.5 142.881 513.473 143.081 513.42C143.294 513.353 143.474 513.26 143.621 513.14C143.781 513.02 143.901 512.88 143.981 512.72C144.061 512.547 144.101 512.36 144.101 512.16C144.101 511.813 143.974 511.533 143.721 511.32C143.587 511.227 143.374 511.127 143.081 511.02C142.801 510.9 142.434 510.78 141.981 510.66C141.207 510.46 140.574 510.233 140.081 509.98C139.587 509.727 139.207 509.44 138.941 509.12C138.741 508.867 138.594 508.593 138.501 508.3C138.407 507.993 138.361 507.66 138.361 507.3C138.361 506.713 138.527 506.193 138.861 505.74C139.194 505.287 139.641 504.933 140.201 504.68C140.774 504.413 141.414 504.28 142.121 504.28C142.614 504.28 143.101 504.347 143.581 504.48C144.074 504.613 144.527 504.807 144.941 505.06C145.354 505.313 145.701 505.613 145.981 505.96L144.801 507.26C144.547 507.007 144.267 506.787 143.961 506.6C143.667 506.4 143.367 506.247 143.061 506.14C142.754 506.033 142.474 505.98 142.221 505.98C141.941 505.98 141.687 506.007 141.461 506.06C141.234 506.113 141.041 506.193 140.881 506.3C140.734 506.407 140.621 506.54 140.541 506.7C140.461 506.86 140.421 507.04 140.421 507.24C140.434 507.413 140.474 507.58 140.541 507.74C140.621 507.887 140.727 508.013 140.861 508.12C141.007 508.227 141.227 508.34 141.521 508.46C141.814 508.58 142.187 508.693 142.641 508.8C143.307 508.973 143.854 509.167 144.281 509.38C144.721 509.58 145.067 509.813 145.321 510.08C145.587 510.333 145.774 510.627 145.881 510.96C145.987 511.293 146.041 511.667 146.041 512.08C146.041 512.68 145.867 513.22 145.521 513.7C145.187 514.167 144.734 514.533 144.161 514.8C143.587 515.067 142.947 515.2 142.241 515.2ZM151.611 515.2C150.731 515.2 149.938 515.047 149.231 514.74C148.524 514.433 147.938 513.98 147.471 513.38L148.871 512.18C149.271 512.647 149.704 512.987 150.171 513.2C150.651 513.4 151.191 513.5 151.791 513.5C152.031 513.5 152.251 513.473 152.451 513.42C152.664 513.353 152.844 513.26 152.991 513.14C153.151 513.02 153.271 512.88 153.351 512.72C153.431 512.547 153.471 512.36 153.471 512.16C153.471 511.813 153.344 511.533 153.091 511.32C152.958 511.227 152.744 511.127 152.451 511.02C152.171 510.9 151.804 510.78 151.351 510.66C150.578 510.46 149.944 510.233 149.451 509.98C148.958 509.727 148.578 509.44 148.311 509.12C148.111 508.867 147.964 508.593 147.871 508.3C147.778 507.993 147.731 507.66 147.731 507.3C147.731 506.713 147.898 506.193 148.231 505.74C148.564 505.287 149.011 504.933 149.571 504.68C150.144 504.413 150.784 504.28 151.491 504.28C151.984 504.28 152.471 504.347 152.951 504.48C153.444 504.613 153.898 504.807 154.311 505.06C154.724 505.313 155.071 505.613 155.351 505.96L154.171 507.26C153.918 507.007 153.638 506.787 153.331 506.6C153.038 506.4 152.738 506.247 152.431 506.14C152.124 506.033 151.844 505.98 151.591 505.98C151.311 505.98 151.058 506.007 150.831 506.06C150.604 506.113 150.411 506.193 150.251 506.3C150.104 506.407 149.991 506.54 149.911 506.7C149.831 506.86 149.791 507.04 149.791 507.24C149.804 507.413 149.844 507.58 149.911 507.74C149.991 507.887 150.098 508.013 150.231 508.12C150.378 508.227 150.598 508.34 150.891 508.46C151.184 508.58 151.558 508.693 152.011 508.8C152.678 508.973 153.224 509.167 153.651 509.38C154.091 509.58 154.438 509.813 154.691 510.08C154.958 510.333 155.144 510.627 155.251 510.96C155.358 511.293 155.411 511.667 155.411 512.08C155.411 512.68 155.238 513.22 154.891 513.7C154.558 514.167 154.104 514.533 153.531 514.8C152.958 515.067 152.318 515.2 151.611 515.2Z" fill="white"/>
<path d="M483.64 515.2C482.667 515.2 481.773 515.027 480.96 514.68C480.147 514.333 479.44 513.84 478.84 513.2C478.24 512.547 477.773 511.78 477.44 510.9C477.12 510.02 476.96 509.053 476.96 508C476.96 507 477.133 506.073 477.48 505.22C477.84 504.353 478.333 503.593 478.96 502.94C479.587 502.287 480.313 501.78 481.14 501.42C481.967 501.06 482.86 500.88 483.82 500.88C484.5 500.88 485.16 500.987 485.8 501.2C486.453 501.4 487.04 501.687 487.56 502.06C488.093 502.42 488.527 502.833 488.86 503.3L487.42 504.8C486.847 504.213 486.26 503.773 485.66 503.48C485.06 503.187 484.447 503.04 483.82 503.04C483.167 503.04 482.553 503.167 481.98 503.42C481.42 503.66 480.927 504 480.5 504.44C480.087 504.88 479.76 505.407 479.52 506.02C479.28 506.62 479.16 507.28 479.16 508C479.16 508.76 479.273 509.453 479.5 510.08C479.74 510.693 480.073 511.22 480.5 511.66C480.927 512.1 481.433 512.44 482.02 512.68C482.62 512.907 483.28 513.02 484 513.02C484.44 513.02 484.873 512.96 485.3 512.84C485.727 512.72 486.127 512.547 486.5 512.32C486.873 512.093 487.213 511.827 487.52 511.52L488.6 513.28C488.293 513.64 487.873 513.967 487.34 514.26C486.82 514.553 486.233 514.787 485.58 514.96C484.94 515.12 484.293 515.2 483.64 515.2ZM495.534 515.2C494.508 515.2 493.588 514.967 492.774 514.5C491.974 514.02 491.341 513.373 490.874 512.56C490.408 511.733 490.174 510.793 490.174 509.74C490.174 508.687 490.408 507.753 490.874 506.94C491.341 506.113 491.974 505.467 492.774 505C493.588 504.52 494.508 504.28 495.534 504.28C496.548 504.28 497.454 504.52 498.254 505C499.068 505.467 499.708 506.113 500.174 506.94C500.641 507.753 500.874 508.687 500.874 509.74C500.874 510.793 500.641 511.733 500.174 512.56C499.708 513.373 499.068 514.02 498.254 514.5C497.454 514.967 496.548 515.2 495.534 515.2ZM495.534 513.32C496.161 513.32 496.721 513.167 497.214 512.86C497.708 512.54 498.094 512.113 498.374 511.58C498.654 511.033 498.788 510.42 498.774 509.74C498.788 509.047 498.654 508.433 498.374 507.9C498.094 507.353 497.708 506.927 497.214 506.62C496.721 506.313 496.161 506.16 495.534 506.16C494.908 506.16 494.341 506.32 493.834 506.64C493.341 506.947 492.954 507.373 492.674 507.92C492.394 508.453 492.261 509.06 492.274 509.74C492.261 510.42 492.394 511.033 492.674 511.58C492.954 512.113 493.341 512.54 493.834 512.86C494.341 513.167 494.908 513.32 495.534 513.32ZM502.919 515V504.5H504.979V506.66L504.619 506.9C504.752 506.433 505.012 506.007 505.399 505.62C505.786 505.22 506.246 504.9 506.779 504.66C507.312 504.407 507.859 504.28 508.419 504.28C509.219 504.28 509.886 504.44 510.419 504.76C510.952 505.067 511.352 505.54 511.619 506.18C511.886 506.82 512.019 507.627 512.019 508.6V515H509.959V508.74C509.959 508.14 509.879 507.647 509.719 507.26C509.559 506.86 509.312 506.573 508.979 506.4C508.646 506.213 508.232 506.133 507.739 506.16C507.339 506.16 506.972 506.227 506.639 506.36C506.306 506.48 506.012 506.653 505.759 506.88C505.519 507.107 505.326 507.373 505.179 507.68C505.046 507.973 504.979 508.293 504.979 508.64V515H503.959C503.786 515 503.612 515 503.439 515C503.266 515 503.092 515 502.919 515ZM515.913 515V501.82H517.973V515H515.913ZM513.733 506.5V504.5H520.413V506.5H513.733ZM528.212 515V508.16C528.212 507.573 527.998 507.1 527.572 506.74C527.158 506.367 526.632 506.18 525.992 506.18C525.405 506.18 524.872 506.3 524.392 506.54C523.925 506.78 523.498 507.147 523.112 507.64L521.772 506.3C522.398 505.62 523.072 505.113 523.792 504.78C524.525 504.447 525.312 504.28 526.152 504.28C526.952 504.28 527.645 504.413 528.232 504.68C528.818 504.947 529.272 505.34 529.592 505.86C529.912 506.367 530.072 506.987 530.072 507.72V515H528.212ZM525.072 515.2C524.392 515.2 523.785 515.067 523.252 514.8C522.718 514.533 522.292 514.167 521.972 513.7C521.665 513.22 521.512 512.66 521.512 512.02C521.512 511.46 521.612 510.967 521.812 510.54C522.012 510.113 522.305 509.76 522.692 509.48C523.092 509.2 523.585 508.987 524.172 508.84C524.772 508.693 525.458 508.62 526.232 508.62H529.152L528.972 510.26H525.972C525.572 510.26 525.212 510.3 524.892 510.38C524.585 510.447 524.318 510.56 524.092 510.72C523.878 510.867 523.718 511.047 523.612 511.26C523.505 511.46 523.452 511.7 523.452 511.98C523.452 512.273 523.525 512.533 523.672 512.76C523.818 512.973 524.018 513.14 524.272 513.26C524.525 513.38 524.818 513.44 525.152 513.44C525.632 513.44 526.085 513.36 526.512 513.2C526.952 513.027 527.338 512.793 527.672 512.5C528.018 512.207 528.285 511.88 528.472 511.52L528.952 512.86C528.672 513.327 528.325 513.733 527.912 514.08C527.498 514.427 527.052 514.7 526.572 514.9C526.092 515.1 525.592 515.2 525.072 515.2ZM536.935 515.2C535.962 515.2 535.088 514.96 534.315 514.48C533.555 514 532.948 513.347 532.495 512.52C532.055 511.693 531.835 510.767 531.835 509.74C531.835 508.713 532.055 507.787 532.495 506.96C532.948 506.133 533.555 505.48 534.315 505C535.088 504.52 535.962 504.28 536.935 504.28C537.868 504.28 538.715 504.473 539.475 504.86C540.248 505.233 540.835 505.747 541.235 506.4L540.095 507.8C539.882 507.493 539.608 507.213 539.275 506.96C538.942 506.707 538.588 506.507 538.215 506.36C537.842 506.213 537.482 506.14 537.135 506.14C536.495 506.14 535.922 506.3 535.415 506.62C534.922 506.927 534.528 507.353 534.235 507.9C533.942 508.447 533.795 509.06 533.795 509.74C533.795 510.42 533.948 511.033 534.255 511.58C534.562 512.113 534.968 512.54 535.475 512.86C535.982 513.18 536.542 513.34 537.155 513.34C537.515 513.34 537.862 513.28 538.195 513.16C538.542 513.04 538.875 512.86 539.195 512.62C539.515 512.38 539.815 512.087 540.095 511.74L541.235 513.14C540.808 513.74 540.195 514.233 539.395 514.62C538.608 515.007 537.788 515.2 536.935 515.2ZM544.278 515V501.82H546.338V515H544.278ZM542.098 506.5V504.5H548.778V506.5H542.098ZM554.345 515.2C553.465 515.2 552.671 515.047 551.965 514.74C551.258 514.433 550.671 513.98 550.205 513.38L551.605 512.18C552.005 512.647 552.438 512.987 552.905 513.2C553.385 513.4 553.925 513.5 554.525 513.5C554.765 513.5 554.985 513.473 555.185 513.42C555.398 513.353 555.578 513.26 555.725 513.14C555.885 513.02 556.005 512.88 556.085 512.72C556.165 512.547 556.205 512.36 556.205 512.16C556.205 511.813 556.078 511.533 555.825 511.32C555.691 511.227 555.478 511.127 555.185 511.02C554.905 510.9 554.538 510.78 554.085 510.66C553.311 510.46 552.678 510.233 552.185 509.98C551.691 509.727 551.311 509.44 551.045 509.12C550.845 508.867 550.698 508.593 550.605 508.3C550.511 507.993 550.465 507.66 550.465 507.3C550.465 506.713 550.631 506.193 550.965 505.74C551.298 505.287 551.745 504.933 552.305 504.68C552.878 504.413 553.518 504.28 554.225 504.28C554.718 504.28 555.205 504.347 555.685 504.48C556.178 504.613 556.631 504.807 557.045 505.06C557.458 505.313 557.805 505.613 558.085 505.96L556.905 507.26C556.651 507.007 556.371 506.787 556.065 506.6C555.771 506.4 555.471 506.247 555.165 506.14C554.858 506.033 554.578 505.98 554.325 505.98C554.045 505.98 553.791 506.007 553.565 506.06C553.338 506.113 553.145 506.193 552.985 506.3C552.838 506.407 552.725 506.54 552.645 506.7C552.565 506.86 552.525 507.04 552.525 507.24C552.538 507.413 552.578 507.58 552.645 507.74C552.725 507.887 552.831 508.013 552.965 508.12C553.111 508.227 553.331 508.34 553.625 508.46C553.918 508.58 554.291 508.693 554.745 508.8C555.411 508.973 555.958 509.167 556.385 509.38C556.825 509.58 557.171 509.813 557.425 510.08C557.691 510.333 557.878 510.627 557.985 510.96C558.091 511.293 558.145 511.667 558.145 512.08C558.145 512.68 557.971 513.22 557.625 513.7C557.291 514.167 556.838 514.533 556.265 514.8C555.691 515.067 555.051 515.2 554.345 515.2Z" fill="white"/>
<path d="M477.76 571.616V570.144H493.12V571.616H477.76ZM485.088 578.656L484.608 573.216L485.792 563.2L486.272 568.64L485.088 578.656ZM502.843 580.32C501.286 580.32 499.878 579.968 498.619 579.264C497.36 578.539 496.219 577.312 495.195 575.584L496.571 574.72C497.211 575.744 497.872 576.555 498.555 577.152C499.238 577.749 499.942 578.176 500.667 578.432C501.414 578.667 502.192 578.784 503.003 578.784C504.07 578.784 505.03 578.528 505.883 578.016C506.758 577.483 507.44 576.768 507.931 575.872C508.422 574.976 508.667 573.984 508.667 572.896C508.667 571.808 508.432 570.859 507.963 570.048C507.515 569.216 506.896 568.565 506.107 568.096C505.318 567.605 504.422 567.36 503.419 567.36C502.992 567.36 502.544 567.403 502.075 567.488C501.627 567.552 501.158 567.701 500.667 567.936C500.198 568.149 499.696 568.501 499.163 568.992L498.555 567.648L507.547 558.656L507.803 559.168H497.051V557.6H509.115L509.595 558.528L501.019 567.136L500.507 566.72C500.934 566.421 501.392 566.187 501.883 566.016C502.374 565.845 502.928 565.76 503.547 565.76C504.528 565.76 505.424 565.941 506.235 566.304C507.067 566.645 507.782 567.136 508.379 567.776C508.998 568.395 509.478 569.141 509.819 570.016C510.16 570.891 510.331 571.829 510.331 572.832C510.331 574.24 510 575.509 509.339 576.64C508.699 577.771 507.814 578.667 506.683 579.328C505.552 579.989 504.272 580.32 502.843 580.32ZM519.397 580.288C517.925 580.288 516.591 579.947 515.397 579.264C514.223 578.581 513.231 577.6 512.421 576.32L513.509 575.2C514.341 576.416 515.258 577.301 516.261 577.856C517.285 578.411 518.341 578.688 519.429 578.688C520.623 578.688 521.701 578.411 522.661 577.856C523.621 577.301 524.378 576.555 524.933 575.616C525.487 574.656 525.765 573.6 525.765 572.448C525.765 571.381 525.509 570.421 524.997 569.568C524.506 568.693 523.823 568 522.949 567.488C522.095 566.955 521.114 566.688 520.005 566.688C519.343 566.688 518.693 566.773 518.053 566.944C517.413 567.093 516.773 567.328 516.133 567.648C515.493 567.968 514.853 568.363 514.213 568.832L513.285 567.648L514.725 557.6H526.757V559.168H515.557L516.133 558.72L514.821 567.68L514.341 567.168C514.81 566.784 515.365 566.443 516.005 566.144C516.645 565.824 517.317 565.579 518.021 565.408C518.746 565.216 519.471 565.12 520.197 565.12C521.583 565.12 522.821 565.429 523.909 566.048C524.997 566.667 525.85 567.531 526.469 568.64C527.109 569.728 527.429 570.987 527.429 572.416C527.429 573.888 527.077 575.221 526.373 576.416C525.669 577.611 524.709 578.56 523.493 579.264C522.298 579.947 520.933 580.288 519.397 580.288ZM538.32 580.096C536.933 580.096 535.664 579.819 534.512 579.264C533.381 578.688 532.475 577.92 531.792 576.96C531.131 576 530.8 574.933 530.8 573.76C530.8 573.035 530.907 572.352 531.12 571.712C531.355 571.072 531.696 570.496 532.144 569.984C532.592 569.451 533.125 568.992 533.744 568.608C534.363 568.203 535.077 567.883 535.888 567.648L535.92 568.128C535.024 567.936 534.256 567.605 533.616 567.136C532.976 566.645 532.485 566.059 532.144 565.376C531.803 564.693 531.632 563.989 531.632 563.264C531.632 562.133 531.931 561.131 532.528 560.256C533.125 559.36 533.925 558.656 534.928 558.144C535.952 557.632 537.083 557.376 538.32 557.376C539.557 557.376 540.677 557.632 541.68 558.144C542.704 558.656 543.515 559.36 544.112 560.256C544.731 561.131 545.04 562.133 545.04 563.264C545.04 563.989 544.869 564.683 544.528 565.344C544.187 566.005 543.685 566.581 543.024 567.072C542.384 567.541 541.605 567.893 540.688 568.128L540.752 567.712C541.755 567.989 542.64 568.427 543.408 569.024C544.176 569.6 544.773 570.293 545.2 571.104C545.648 571.893 545.872 572.779 545.872 573.76C545.872 574.955 545.531 576.032 544.848 576.992C544.187 577.952 543.28 578.709 542.128 579.264C540.997 579.819 539.728 580.096 538.32 580.096ZM538.32 578.528C539.408 578.528 540.389 578.304 541.264 577.856C542.16 577.408 542.864 576.832 543.376 576.128C543.909 575.403 544.176 574.603 544.176 573.728C544.176 572.768 543.92 571.915 543.408 571.168C542.917 570.421 542.224 569.835 541.328 569.408C540.453 568.981 539.451 568.768 538.32 568.768C537.211 568.768 536.208 568.981 535.312 569.408C534.437 569.835 533.744 570.421 533.232 571.168C532.72 571.915 532.464 572.768 532.464 573.728C532.464 574.581 532.72 575.371 533.232 576.096C533.765 576.821 534.469 577.408 535.344 577.856C536.24 578.304 537.232 578.528 538.32 578.528ZM538.32 567.296C539.28 567.296 540.133 567.125 540.88 566.784C541.648 566.421 542.245 565.931 542.672 565.312C543.12 564.693 543.344 563.979 543.344 563.168C543.344 562.379 543.12 561.675 542.672 561.056C542.245 560.416 541.648 559.915 540.88 559.552C540.133 559.168 539.28 558.976 538.32 558.976C537.339 558.976 536.475 559.168 535.728 559.552C534.981 559.915 534.384 560.416 533.936 561.056C533.509 561.675 533.296 562.379 533.296 563.168C533.296 563.957 533.509 564.661 533.936 565.28C534.384 565.899 534.981 566.389 535.728 566.752C536.475 567.115 537.339 567.296 538.32 567.296ZM560.243 580V559.52L560.819 559.616L550.131 572.64L550.035 572.352H565.779V573.92H549.107L548.339 572.448L560.531 557.6H561.875V580H560.243ZM575.03 580.288C573.558 580.288 572.225 579.947 571.03 579.264C569.857 578.581 568.865 577.6 568.054 576.32L569.142 575.2C569.974 576.416 570.892 577.301 571.894 577.856C572.918 578.411 573.974 578.688 575.062 578.688C576.257 578.688 577.334 578.411 578.294 577.856C579.254 577.301 580.012 576.555 580.566 575.616C581.121 574.656 581.398 573.6 581.398 572.448C581.398 571.381 581.142 570.421 580.63 569.568C580.14 568.693 579.457 568 578.582 567.488C577.729 566.955 576.748 566.688 575.638 566.688C574.977 566.688 574.326 566.773 573.686 566.944C573.046 567.093 572.406 567.328 571.766 567.648C571.126 567.968 570.486 568.363 569.846 568.832L568.918 567.648L570.358 557.6H582.39V559.168H571.19L571.766 558.72L570.454 567.68L569.974 567.168C570.444 566.784 570.998 566.443 571.638 566.144C572.278 565.824 572.95 565.579 573.654 565.408C574.38 565.216 575.105 565.12 575.83 565.12C577.217 565.12 578.454 565.429 579.542 566.048C580.63 566.667 581.484 567.531 582.102 568.64C582.742 569.728 583.062 570.987 583.062 572.416C583.062 573.888 582.71 575.221 582.006 576.416C581.302 577.611 580.342 578.56 579.126 579.264C577.932 579.947 576.566 580.288 575.03 580.288ZM587.33 580L586.85 578.816L595.266 569.664C595.607 569.301 595.98 568.875 596.386 568.384C596.791 567.893 597.175 567.36 597.538 566.784C597.9 566.208 598.188 565.621 598.402 565.024C598.636 564.405 598.754 563.787 598.754 563.168C598.754 562.336 598.53 561.6 598.082 560.96C597.655 560.299 597.058 559.787 596.29 559.424C595.543 559.04 594.668 558.848 593.666 558.848C592.919 558.848 592.162 559.029 591.394 559.392C590.626 559.755 589.922 560.309 589.282 561.056C588.642 561.803 588.14 562.795 587.778 564.032L586.402 563.232C586.807 561.888 587.362 560.779 588.066 559.904C588.791 559.029 589.644 558.379 590.626 557.952C591.628 557.504 592.706 557.28 593.858 557.28C595.116 557.28 596.236 557.525 597.218 558.016C598.22 558.507 599.01 559.189 599.586 560.064C600.183 560.939 600.482 561.931 600.482 563.04C600.482 563.723 600.375 564.395 600.162 565.056C599.97 565.717 599.703 566.368 599.362 567.008C599.02 567.648 598.615 568.277 598.146 568.896C597.676 569.515 597.164 570.123 596.61 570.72L588.802 579.072L588.546 578.368H600.962V580H587.33ZM604.541 580L604.061 578.816L612.477 569.664C612.818 569.301 613.192 568.875 613.597 568.384C614.002 567.893 614.386 567.36 614.749 566.784C615.112 566.208 615.4 565.621 615.613 565.024C615.848 564.405 615.965 563.787 615.965 563.168C615.965 562.336 615.741 561.6 615.293 560.96C614.866 560.299 614.269 559.787 613.501 559.424C612.754 559.04 611.88 558.848 610.877 558.848C610.13 558.848 609.373 559.029 608.605 559.392C607.837 559.755 607.133 560.309 606.493 561.056C605.853 561.803 605.352 562.795 604.989 564.032L603.613 563.232C604.018 561.888 604.573 560.779 605.277 559.904C606.002 559.029 606.856 558.379 607.837 557.952C608.84 557.504 609.917 557.28 611.069 557.28C612.328 557.28 613.448 557.525 614.429 558.016C615.432 558.507 616.221 559.189 616.797 560.064C617.394 560.939 617.693 561.931 617.693 563.04C617.693 563.723 617.586 564.395 617.373 565.056C617.181 565.717 616.914 566.368 616.573 567.008C616.232 567.648 615.826 568.277 615.357 568.896C614.888 569.515 614.376 570.123 613.821 570.72L606.013 579.072L605.757 578.368H618.173V580H604.541ZM627.32 580.288C625.848 580.288 624.515 579.947 623.32 579.264C622.147 578.581 621.155 577.6 620.344 576.32L621.432 575.2C622.264 576.416 623.182 577.301 624.184 577.856C625.208 578.411 626.264 578.688 627.352 578.688C628.547 578.688 629.624 578.411 630.584 577.856C631.544 577.301 632.302 576.555 632.856 575.616C633.411 574.656 633.688 573.6 633.688 572.448C633.688 571.381 633.432 570.421 632.92 569.568C632.43 568.693 631.747 568 630.872 567.488C630.019 566.955 629.038 566.688 627.928 566.688C627.267 566.688 626.616 566.773 625.976 566.944C625.336 567.093 624.696 567.328 624.056 567.648C623.416 567.968 622.776 568.363 622.136 568.832L621.208 567.648L622.648 557.6H634.68V559.168H623.48L624.056 558.72L622.744 567.68L622.264 567.168C622.734 566.784 623.288 566.443 623.928 566.144C624.568 565.824 625.24 565.579 625.944 565.408C626.67 565.216 627.395 565.12 628.12 565.12C629.507 565.12 630.744 565.429 631.832 566.048C632.92 566.667 633.774 567.531 634.392 568.64C635.032 569.728 635.352 570.987 635.352 572.416C635.352 573.888 635 575.221 634.296 576.416C633.592 577.611 632.632 578.56 631.416 579.264C630.222 579.947 628.856 580.288 627.32 580.288ZM645.124 580L645.06 579.776L651.748 566.944L651.844 567.808C651.332 568.768 650.734 569.579 650.052 570.24C649.39 570.88 648.665 571.36 647.876 571.68C647.086 572 646.254 572.16 645.38 572.16C644.078 572.16 642.884 571.84 641.796 571.2C640.729 570.539 639.876 569.664 639.236 568.576C638.596 567.467 638.276 566.229 638.276 564.864C638.276 563.435 638.606 562.144 639.268 560.992C639.929 559.84 640.825 558.933 641.956 558.272C643.086 557.611 644.356 557.28 645.764 557.28C646.788 557.28 647.748 557.472 648.644 557.856C649.54 558.219 650.318 558.731 650.98 559.392C651.662 560.053 652.196 560.843 652.58 561.76C652.985 562.677 653.188 563.68 653.188 564.768C653.188 565.429 653.113 566.101 652.964 566.784C652.814 567.467 652.601 568.181 652.324 568.928C652.046 569.675 651.716 570.464 651.332 571.296C650.948 572.107 650.51 572.981 650.02 573.92L646.788 580H645.124ZM645.572 570.592C646.681 570.592 647.673 570.336 648.548 569.824C649.422 569.291 650.116 568.587 650.628 567.712C651.14 566.816 651.396 565.824 651.396 564.736C651.396 563.627 651.14 562.635 650.628 561.76C650.116 560.864 649.422 560.16 648.548 559.648C647.694 559.115 646.713 558.848 645.604 558.848C644.58 558.848 643.641 559.115 642.788 559.648C641.934 560.16 641.252 560.853 640.74 561.728C640.249 562.603 640.004 563.605 640.004 564.736C640.004 565.824 640.249 566.816 640.74 567.712C641.252 568.587 641.934 569.291 642.788 569.824C643.641 570.336 644.569 570.592 645.572 570.592ZM660.382 579.264V558.976L660.894 559.328L656.446 562.048L655.998 560.576L661.246 557.28H662.046V579.264H660.382ZM656.67 580V578.368H665.79V580H656.67ZM675.546 580L675.482 579.776L682.17 566.944L682.266 567.808C681.754 568.768 681.157 569.579 680.474 570.24C679.813 570.88 679.088 571.36 678.298 571.68C677.509 572 676.677 572.16 675.802 572.16C674.501 572.16 673.306 571.84 672.218 571.2C671.152 570.539 670.298 569.664 669.658 568.576C669.018 567.467 668.698 566.229 668.698 564.864C668.698 563.435 669.029 562.144 669.69 560.992C670.352 559.84 671.248 558.933 672.378 558.272C673.509 557.611 674.778 557.28 676.186 557.28C677.21 557.28 678.17 557.472 679.066 557.856C679.962 558.219 680.741 558.731 681.402 559.392C682.085 560.053 682.618 560.843 683.002 561.76C683.408 562.677 683.61 563.68 683.61 564.768C683.61 565.429 683.536 566.101 683.386 566.784C683.237 567.467 683.024 568.181 682.746 568.928C682.469 569.675 682.138 570.464 681.754 571.296C681.37 572.107 680.933 572.981 680.442 573.92L677.21 580H675.546ZM675.994 570.592C677.104 570.592 678.096 570.336 678.97 569.824C679.845 569.291 680.538 568.587 681.05 567.712C681.562 566.816 681.818 565.824 681.818 564.736C681.818 563.627 681.562 562.635 681.05 561.76C680.538 560.864 679.845 560.16 678.97 559.648C678.117 559.115 677.136 558.848 676.026 558.848C675.002 558.848 674.064 559.115 673.21 559.648C672.357 560.16 671.674 560.853 671.162 561.728C670.672 562.603 670.426 563.605 670.426 564.736C670.426 565.824 670.672 566.816 671.162 567.712C671.674 568.587 672.357 569.291 673.21 569.824C674.064 570.336 674.992 570.592 675.994 570.592ZM694.485 580.32C692.735 580.32 691.242 579.872 690.005 578.976C688.767 578.08 687.829 576.779 687.189 575.072C686.549 573.344 686.229 571.253 686.229 568.8C686.229 566.347 686.549 564.267 687.189 562.56C687.829 560.832 688.767 559.52 690.005 558.624C691.242 557.728 692.735 557.28 694.485 557.28C696.255 557.28 697.749 557.728 698.965 558.624C700.202 559.52 701.141 560.832 701.781 562.56C702.421 564.267 702.741 566.347 702.741 568.8C702.741 571.253 702.421 573.344 701.781 575.072C701.141 576.779 700.202 578.08 698.965 578.976C697.749 579.872 696.255 580.32 694.485 580.32ZM694.485 578.752C696.597 578.752 698.218 577.888 699.349 576.16C700.479 574.432 701.045 571.979 701.045 568.8C701.045 565.6 700.479 563.147 699.349 561.44C698.218 559.712 696.597 558.848 694.485 558.848C692.373 558.848 690.741 559.712 689.589 561.44C688.458 563.147 687.893 565.6 687.893 568.8C687.893 571.979 688.458 574.432 689.589 576.16C690.741 577.888 692.373 578.752 694.485 578.752ZM478.24 628V604.32H479.872V614.912L479.488 615.104C479.744 614.357 480.181 613.675 480.8 613.056C481.44 612.437 482.197 611.936 483.072 611.552C483.968 611.168 484.896 610.976 485.856 610.976C487.115 610.976 488.181 611.211 489.056 611.68C489.931 612.149 490.592 612.875 491.04 613.856C491.509 614.837 491.744 616.085 491.744 617.6V628H490.112V617.664C490.112 616.448 489.931 615.456 489.568 614.688C489.227 613.92 488.704 613.365 488 613.024C487.317 612.661 486.475 612.491 485.472 612.512C484.661 612.512 483.915 612.651 483.232 612.928C482.549 613.184 481.952 613.525 481.44 613.952C480.949 614.379 480.565 614.827 480.288 615.296C480.011 615.765 479.872 616.203 479.872 616.608V628H479.072C478.965 628 478.837 628 478.688 628C478.539 628 478.389 628 478.24 628ZM503.282 628.32C501.64 628.32 500.178 627.947 498.898 627.2C497.64 626.453 496.648 625.429 495.922 624.128C495.218 622.827 494.866 621.333 494.866 619.648C494.866 618.368 495.058 617.205 495.442 616.16C495.848 615.093 496.402 614.176 497.106 613.408C497.832 612.619 498.696 612.021 499.698 611.616C500.701 611.189 501.8 610.976 502.994 610.976C504.061 610.976 505.042 611.168 505.938 611.552C506.856 611.915 507.645 612.437 508.306 613.12C508.989 613.803 509.501 614.624 509.842 615.584C510.205 616.544 510.365 617.611 510.322 618.784L510.29 619.84H495.986L495.73 618.432H509.042L508.658 618.976V618.176C508.658 617.067 508.392 616.085 507.858 615.232C507.346 614.379 506.664 613.717 505.81 613.248C504.978 612.757 504.04 612.512 502.994 612.512C501.672 612.512 500.52 612.811 499.538 613.408C498.557 613.984 497.8 614.805 497.266 615.872C496.754 616.917 496.498 618.155 496.498 619.584C496.498 621.013 496.786 622.272 497.362 623.36C497.96 624.427 498.77 625.269 499.794 625.888C500.84 626.485 502.056 626.784 503.442 626.784C504.445 626.784 505.373 626.613 506.226 626.272C507.101 625.931 507.922 625.397 508.69 624.672L509.522 625.856C509.01 626.347 508.424 626.784 507.762 627.168C507.101 627.531 506.386 627.808 505.618 628C504.872 628.213 504.093 628.32 503.282 628.32ZM513.925 628V604.32H515.525V628H513.925ZM520.667 628V604.32H522.267V628H520.667ZM534.201 628.32C532.537 628.32 531.054 627.947 529.753 627.2C528.473 626.432 527.46 625.397 526.713 624.096C525.988 622.773 525.625 621.269 525.625 619.584C525.625 617.92 525.988 616.448 526.713 615.168C527.46 613.867 528.473 612.843 529.753 612.096C531.054 611.349 532.537 610.976 534.201 610.976C535.886 610.976 537.369 611.349 538.649 612.096C539.929 612.843 540.932 613.867 541.657 615.168C542.382 616.448 542.745 617.92 542.745 619.584C542.745 621.269 542.382 622.773 541.657 624.096C540.932 625.397 539.929 626.432 538.649 627.2C537.369 627.947 535.886 628.32 534.201 628.32ZM534.201 626.784C535.545 626.784 536.74 626.475 537.785 625.856C538.83 625.237 539.641 624.384 540.217 623.296C540.814 622.208 541.113 620.971 541.113 619.584C541.113 618.197 540.814 616.981 540.217 615.936C539.641 614.869 538.83 614.037 537.785 613.44C536.74 612.821 535.545 612.512 534.201 612.512C532.857 612.512 531.662 612.821 530.617 613.44C529.572 614.037 528.75 614.869 528.153 615.936C527.556 617.003 527.257 618.219 527.257 619.584C527.257 620.971 527.556 622.208 528.153 623.296C528.75 624.384 529.572 625.237 530.617 625.856C531.662 626.475 532.857 626.784 534.201 626.784ZM557.185 633.184C555.393 633.184 553.771 632.885 552.321 632.288C550.87 631.712 549.622 630.88 548.577 629.792C547.531 628.725 546.721 627.456 546.145 625.984C545.59 624.491 545.313 622.837 545.313 621.024C545.313 618.805 545.718 616.747 546.529 614.848C547.339 612.928 548.47 611.253 549.921 609.824C551.371 608.395 553.078 607.285 555.041 606.496C557.003 605.685 559.169 605.28 561.537 605.28C563.307 605.28 564.918 605.536 566.369 606.048C567.819 606.56 569.067 607.275 570.113 608.192C571.179 609.088 572.001 610.165 572.577 611.424C573.153 612.683 573.441 614.069 573.441 615.584C573.441 617.163 573.227 618.613 572.801 619.936C572.374 621.237 571.798 622.357 571.073 623.296C570.347 624.235 569.526 624.96 568.609 625.472C567.691 625.984 566.731 626.24 565.729 626.24C565.067 626.24 564.513 626.123 564.065 625.888C563.638 625.653 563.318 625.333 563.105 624.928C562.891 624.523 562.785 624.075 562.785 623.584C562.785 623.2 562.838 622.784 562.945 622.336C563.073 621.888 563.233 621.355 563.425 620.736L563.777 621.184C563.414 622.229 562.923 623.136 562.305 623.904C561.686 624.651 560.961 625.227 560.129 625.632C559.297 626.037 558.39 626.24 557.409 626.24C556.406 626.24 555.51 626.005 554.721 625.536C553.953 625.067 553.345 624.405 552.897 623.552C552.449 622.677 552.225 621.675 552.225 620.544C552.225 619.413 552.406 618.325 552.769 617.28C553.131 616.213 553.643 615.264 554.305 614.432C554.987 613.579 555.777 612.907 556.673 612.416C557.569 611.925 558.561 611.68 559.649 611.68C560.374 611.68 561.078 611.829 561.761 612.128C562.443 612.405 563.041 612.864 563.553 613.504C564.065 614.144 564.417 614.965 564.609 615.968L564.129 616.768L564.961 611.968H566.529L564.641 622.176C564.47 623.093 564.47 623.776 564.641 624.224C564.811 624.651 565.281 624.864 566.049 624.864C566.795 624.864 567.521 624.661 568.225 624.256C568.929 623.829 569.558 623.221 570.113 622.432C570.689 621.643 571.147 620.683 571.489 619.552C571.83 618.4 572.001 617.109 572.001 615.68C572.001 613.781 571.553 612.16 570.657 610.816C569.782 609.472 568.555 608.437 566.977 607.712C565.419 606.987 563.595 606.624 561.505 606.624C559.265 606.624 557.238 607.008 555.425 607.776C553.611 608.523 552.054 609.557 550.753 610.88C549.473 612.203 548.481 613.717 547.777 615.424C547.073 617.131 546.721 618.944 546.721 620.864C546.721 622.549 546.966 624.064 547.457 625.408C547.969 626.752 548.683 627.904 549.601 628.864C550.539 629.845 551.649 630.581 552.929 631.072C554.209 631.584 555.638 631.84 557.217 631.84C558.049 631.84 558.913 631.744 559.809 631.552C560.705 631.381 561.569 631.136 562.401 630.816C563.233 630.496 563.969 630.144 564.609 629.76L565.281 630.912C564.363 631.424 563.446 631.851 562.529 632.192C561.611 632.533 560.705 632.779 559.809 632.928C558.934 633.099 558.059 633.184 557.185 633.184ZM557.697 624.832C558.742 624.832 559.681 624.576 560.513 624.064C561.366 623.531 562.081 622.784 562.657 621.824C563.233 620.864 563.606 619.733 563.777 618.432C563.841 618.24 563.883 618.037 563.905 617.824C563.926 617.589 563.937 617.387 563.937 617.216C563.937 616.533 563.777 615.883 563.457 615.264C563.137 614.624 562.657 614.101 562.017 613.696C561.398 613.291 560.619 613.088 559.681 613.088C558.678 613.088 557.729 613.419 556.833 614.08C555.937 614.741 555.211 615.637 554.657 616.768C554.123 617.899 553.857 619.168 553.857 620.576C553.857 621.835 554.209 622.859 554.913 623.648C555.617 624.437 556.545 624.832 557.697 624.832ZM588.209 628V616.544C588.209 615.307 587.772 614.325 586.897 613.6C586.044 612.875 584.87 612.512 583.377 612.512C582.268 612.512 581.244 612.747 580.305 613.216C579.366 613.685 578.545 614.368 577.841 615.264L576.753 614.176C577.628 613.109 578.63 612.309 579.761 611.776C580.913 611.243 582.161 610.976 583.505 610.976C584.785 610.976 585.884 611.189 586.801 611.616C587.74 612.021 588.454 612.629 588.945 613.44C589.436 614.251 589.681 615.221 589.681 616.352V628H588.209ZM581.777 628.32C580.689 628.32 579.718 628.107 578.865 627.68C578.012 627.253 577.329 626.667 576.817 625.92C576.326 625.152 576.081 624.256 576.081 623.232C576.081 622.464 576.22 621.781 576.497 621.184C576.796 620.587 577.233 620.085 577.809 619.68C578.385 619.275 579.11 618.965 579.985 618.752C580.86 618.539 581.873 618.432 583.025 618.432H588.913L588.785 619.84H582.737C581.905 619.84 581.169 619.915 580.529 620.064C579.91 620.213 579.377 620.437 578.929 620.736C578.502 621.013 578.172 621.365 577.937 621.792C577.724 622.197 577.617 622.677 577.617 623.232C577.617 623.957 577.798 624.597 578.161 625.152C578.545 625.685 579.057 626.101 579.697 626.4C580.337 626.699 581.041 626.848 581.809 626.848C582.79 626.848 583.697 626.677 584.529 626.336C585.382 625.995 586.14 625.525 586.801 624.928C587.484 624.309 588.028 623.595 588.433 622.784L588.977 623.776C588.486 624.651 587.878 625.429 587.153 626.112C586.428 626.795 585.606 627.339 584.689 627.744C583.772 628.128 582.801 628.32 581.777 628.32ZM594.293 628V604.32H595.893V628H594.293ZM607.667 628.32C606.025 628.32 604.563 627.947 603.283 627.2C602.025 626.453 601.033 625.429 600.307 624.128C599.603 622.827 599.251 621.333 599.251 619.648C599.251 618.368 599.443 617.205 599.827 616.16C600.233 615.093 600.787 614.176 601.491 613.408C602.217 612.619 603.081 612.021 604.083 611.616C605.086 611.189 606.185 610.976 607.379 610.976C608.446 610.976 609.427 611.168 610.323 611.552C611.241 611.915 612.03 612.437 612.691 613.12C613.374 613.803 613.886 614.624 614.227 615.584C614.59 616.544 614.75 617.611 614.707 618.784L614.675 619.84H600.371L600.115 618.432H613.427L613.043 618.976V618.176C613.043 617.067 612.777 616.085 612.243 615.232C611.731 614.379 611.049 613.717 610.195 613.248C609.363 612.757 608.425 612.512 607.379 612.512C606.057 612.512 604.905 612.811 603.923 613.408C602.942 613.984 602.185 614.805 601.651 615.872C601.139 616.917 600.883 618.155 600.883 619.584C600.883 621.013 601.171 622.272 601.747 623.36C602.345 624.427 603.155 625.269 604.179 625.888C605.225 626.485 606.441 626.784 607.827 626.784C608.83 626.784 609.758 626.613 610.611 626.272C611.486 625.931 612.307 625.397 613.075 624.672L613.907 625.856C613.395 626.347 612.809 626.784 612.147 627.168C611.486 627.531 610.771 627.808 610.003 628C609.257 628.213 608.478 628.32 607.667 628.32ZM629.224 628L623.048 620.224L622.824 619.872L616.104 611.2H618.152L623.944 618.72L624.264 619.136L631.272 628H629.224ZM615.848 628L622.696 619.296L623.72 620.448L617.864 628H615.848ZM624.36 619.712L623.464 618.528L628.808 611.2H630.792L624.36 619.712ZM640.027 628.32C638.385 628.32 636.934 627.947 635.675 627.2C634.417 626.432 633.425 625.397 632.699 624.096C631.974 622.773 631.611 621.269 631.611 619.584C631.611 617.92 631.974 616.448 632.699 615.168C633.425 613.867 634.417 612.843 635.675 612.096C636.934 611.349 638.385 610.976 640.027 610.976C641.414 610.976 642.673 611.243 643.803 611.776C644.934 612.309 645.851 613.045 646.555 613.984L645.595 615.136C645.147 614.603 644.635 614.144 644.059 613.76C643.483 613.355 642.854 613.045 642.171 612.832C641.51 612.619 640.827 612.512 640.123 612.512C638.779 612.512 637.585 612.821 636.539 613.44C635.515 614.037 634.705 614.869 634.107 615.936C633.51 616.981 633.201 618.197 633.179 619.584C633.201 620.971 633.51 622.208 634.107 623.296C634.705 624.384 635.526 625.248 636.571 625.888C637.617 626.507 638.801 626.816 640.123 626.816C640.849 626.816 641.531 626.72 642.171 626.528C642.833 626.315 643.441 626.016 643.995 625.632C644.571 625.227 645.094 624.757 645.563 624.224L646.523 625.376C645.777 626.272 644.838 626.987 643.707 627.52C642.577 628.053 641.35 628.32 640.027 628.32ZM656.805 628.32C655.141 628.32 653.658 627.947 652.357 627.2C651.077 626.432 650.063 625.397 649.317 624.096C648.591 622.773 648.229 621.269 648.229 619.584C648.229 617.92 648.591 616.448 649.317 615.168C650.063 613.867 651.077 612.843 652.357 612.096C653.658 611.349 655.141 610.976 656.805 610.976C658.49 610.976 659.973 611.349 661.253 612.096C662.533 612.843 663.535 613.867 664.261 615.168C664.986 616.448 665.349 617.92 665.349 619.584C665.349 621.269 664.986 622.773 664.261 624.096C663.535 625.397 662.533 626.432 661.253 627.2C659.973 627.947 658.49 628.32 656.805 628.32ZM656.805 626.784C658.149 626.784 659.343 626.475 660.389 625.856C661.434 625.237 662.245 624.384 662.821 623.296C663.418 622.208 663.717 620.971 663.717 619.584C663.717 618.197 663.418 616.981 662.821 615.936C662.245 614.869 661.434 614.037 660.389 613.44C659.343 612.821 658.149 612.512 656.805 612.512C655.461 612.512 654.266 612.821 653.221 613.44C652.175 614.037 651.354 614.869 650.757 615.936C650.159 617.003 649.861 618.219 649.861 619.584C649.861 620.971 650.159 622.208 650.757 623.296C651.354 624.384 652.175 625.237 653.221 625.856C654.266 626.475 655.461 626.784 656.805 626.784ZM668.556 628V604.32H670.188V614.912L669.804 615.104C670.06 614.357 670.498 613.675 671.116 613.056C671.756 612.437 672.514 611.936 673.388 611.552C674.284 611.168 675.212 610.976 676.172 610.976C677.431 610.976 678.498 611.211 679.372 611.68C680.247 612.149 680.908 612.875 681.356 613.856C681.826 614.837 682.06 616.085 682.06 617.6V628H680.428V617.664C680.428 616.448 680.247 615.456 679.884 614.688C679.543 613.92 679.02 613.365 678.316 613.024C677.634 612.661 676.791 612.491 675.788 612.512C674.978 612.512 674.231 612.651 673.548 612.928C672.866 613.184 672.268 613.525 671.756 613.952C671.266 614.379 670.882 614.827 670.604 615.296C670.327 615.765 670.188 616.203 670.188 616.608V628H669.388C669.282 628 669.154 628 669.004 628C668.855 628 668.706 628 668.556 628ZM687.55 628.224C687.102 628.224 686.75 628.096 686.494 627.84C686.26 627.584 686.142 627.211 686.142 626.72C686.142 626.293 686.27 625.941 686.526 625.664C686.782 625.387 687.124 625.248 687.55 625.248C687.998 625.248 688.34 625.376 688.574 625.632C688.83 625.888 688.958 626.251 688.958 626.72C688.958 627.168 688.83 627.531 688.574 627.808C688.318 628.085 687.977 628.224 687.55 628.224ZM700.56 628.32C698.917 628.32 697.466 627.947 696.208 627.2C694.949 626.432 693.957 625.397 693.232 624.096C692.506 622.773 692.144 621.269 692.144 619.584C692.144 617.92 692.506 616.448 693.232 615.168C693.957 613.867 694.949 612.843 696.208 612.096C697.466 611.349 698.917 610.976 700.56 610.976C701.946 610.976 703.205 611.243 704.336 611.776C705.466 612.309 706.384 613.045 707.088 613.984L706.128 615.136C705.68 614.603 705.168 614.144 704.592 613.76C704.016 613.355 703.386 613.045 702.704 612.832C702.042 612.619 701.36 612.512 700.656 612.512C699.312 612.512 698.117 612.821 697.072 613.44C696.048 614.037 695.237 614.869 694.64 615.936C694.042 616.981 693.733 618.197 693.712 619.584C693.733 620.971 694.042 622.208 694.64 623.296C695.237 624.384 696.058 625.248 697.104 625.888C698.149 626.507 699.333 626.816 700.656 626.816C701.381 626.816 702.064 626.72 702.704 626.528C703.365 626.315 703.973 626.016 704.528 625.632C705.104 625.227 705.626 624.757 706.096 624.224L707.056 625.376C706.309 626.272 705.37 626.987 704.24 627.52C703.109 628.053 701.882 628.32 700.56 628.32ZM717.337 628.32C715.673 628.32 714.191 627.947 712.889 627.2C711.609 626.432 710.596 625.397 709.849 624.096C709.124 622.773 708.761 621.269 708.761 619.584C708.761 617.92 709.124 616.448 709.849 615.168C710.596 613.867 711.609 612.843 712.889 612.096C714.191 611.349 715.673 610.976 717.337 610.976C719.023 610.976 720.505 611.349 721.785 612.096C723.065 612.843 724.068 613.867 724.793 615.168C725.519 616.448 725.881 617.92 725.881 619.584C725.881 621.269 725.519 622.773 724.793 624.096C724.068 625.397 723.065 626.432 721.785 627.2C720.505 627.947 719.023 628.32 717.337 628.32ZM717.337 626.784C718.681 626.784 719.876 626.475 720.921 625.856C721.967 625.237 722.777 624.384 723.353 623.296C723.951 622.208 724.249 620.971 724.249 619.584C724.249 618.197 723.951 616.981 723.353 615.936C722.777 614.869 721.967 614.037 720.921 613.44C719.876 612.821 718.681 612.512 717.337 612.512C715.993 612.512 714.799 612.821 713.753 613.44C712.708 614.037 711.887 614.869 711.289 615.936C710.692 617.003 710.393 618.219 710.393 619.584C710.393 620.971 710.692 622.208 711.289 623.296C711.887 624.384 712.708 625.237 713.753 625.856C714.799 626.475 715.993 626.784 717.337 626.784ZM728.993 628V611.2H730.593L730.625 615.232L730.113 615.264C730.433 614.581 730.806 613.973 731.233 613.44C731.659 612.907 732.15 612.459 732.705 612.096C733.259 611.733 733.846 611.467 734.465 611.296C735.083 611.104 735.723 611.008 736.385 611.008C737.323 611.008 738.155 611.157 738.881 611.456C739.627 611.733 740.246 612.192 740.737 612.832C741.227 613.451 741.579 614.283 741.793 615.328L741.409 615.392L741.601 614.848C741.857 614.251 742.187 613.717 742.593 613.248C743.019 612.779 743.51 612.373 744.065 612.032C744.619 611.691 745.206 611.435 745.825 611.264C746.443 611.093 747.062 611.008 747.681 611.008C748.918 611.008 749.953 611.243 750.785 611.712C751.617 612.16 752.257 612.875 752.705 613.856C753.153 614.837 753.377 616.107 753.377 617.664V628H751.713V617.696C751.713 615.883 751.339 614.571 750.593 613.76C749.846 612.928 748.737 612.512 747.265 612.512C746.518 612.512 745.825 612.64 745.185 612.896C744.545 613.152 743.979 613.493 743.489 613.92C743.019 614.347 742.657 614.827 742.401 615.36C742.145 615.872 742.017 616.384 742.017 616.896V628H740.385V617.696C740.385 615.904 740.011 614.592 739.265 613.76C738.518 612.928 737.43 612.512 736.001 612.512C735.211 612.512 734.486 612.651 733.825 612.928C733.185 613.205 732.619 613.557 732.129 613.984C731.659 614.389 731.286 614.837 731.009 615.328C730.731 615.797 730.593 616.235 730.593 616.64V628H728.993Z" fill="white"/>
<g opacity="0.4">
<path d="M1120 420L1135 435C1143.28 443.284 1156.72 443.284 1165 435V435C1173.28 426.716 1186.72 426.716 1195 435V435C1203.28 443.284 1216.72 443.284 1225 435V435C1233.28 426.716 1246.72 426.716 1255 435V435C1263.28 443.284 1276.72 443.284 1285 435V435C1293.28 426.716 1306.72 426.716 1315 435V435C1323.28 443.284 1336.72 443.284 1345 435L1360 420" stroke="#D8D5E2" stroke-width="4"/>
<path d="M1120 375L1135 390C1143.28 398.284 1156.72 398.284 1165 390V390C1173.28 381.716 1186.72 381.716 1195 390V390C1203.28 398.284 1216.72 398.284 1225 390V390C1233.28 381.716 1246.72 381.716 1255 390V390C1263.28 398.284 1276.72 398.284 1285 390V390C1293.28 381.716 1306.72 381.716 1315 390V390C1323.28 398.284 1336.72 398.284 1345 390L1360 375" stroke="#D8D5E2" stroke-width="4"/>
<path d="M1120 465L1135 480C1143.28 488.284 1156.72 488.284 1165 480V480C1173.28 471.716 1186.72 471.716 1195 480V480C1203.28 488.284 1216.72 488.284 1225 480V480C1233.28 471.716 1246.72 471.716 1255 480V480C1263.28 488.284 1276.72 488.284 1285 480V480C1293.28 471.716 1306.72 471.716 1315 480V480C1323.28 488.284 1336.72 488.284 1345 480L1360 465" stroke="#D8D5E2" stroke-width="4"/>
</g>
</svg>
