<svg width="136" height="36" viewBox="0 0 136 36" fill="none" xmlns="http://www.w3.org/2000/svg">
<path d="M51.6011 17.3567C51.6011 17.4823 51.6993 17.584 51.8204 17.584H54.1877C54.3088 17.584 54.407 17.4823 54.407 17.3567V7.54569C54.407 7.42017 54.5052 7.31841 54.6263 7.31841H56.9507C57.0719 7.31841 57.1701 7.21665 57.1701 7.09112V5.61465C57.1701 5.48912 57.0719 5.38736 56.9507 5.38736H54.6263C54.5052 5.38736 54.407 5.2856 54.407 5.16008V4.55502C54.407 3.85954 54.5319 3.36383 54.7818 3.06789C55.0389 2.76454 55.4672 2.61287 56.067 2.61287C56.3591 2.61287 56.7459 2.64371 57.2274 2.70539C57.349 2.72096 57.4603 2.63167 57.4746 2.5056L57.6707 0.782715C57.6843 0.663596 57.6062 0.553851 57.492 0.534139C56.8196 0.418036 56.1589 0.359985 55.5101 0.359985C54.7747 0.359985 54.1535 0.452468 53.6466 0.637434C53.1468 0.815002 52.747 1.09245 52.4471 1.46978C52.1473 1.83971 51.9295 2.28733 51.7939 2.81264C51.6653 3.33794 51.6011 3.97052 51.6011 4.71039V5.18719C51.6011 5.30162 51.519 5.3982 51.4095 5.41266L50.091 5.5867C49.9905 5.59997 49.9118 5.68286 49.9007 5.78723L49.7645 7.06618C49.7501 7.20077 49.8518 7.31841 49.9825 7.31841H51.3817C51.5029 7.31841 51.6011 7.42017 51.6011 7.54569V17.3567Z" fill="#2B2F35"/>
<path fill-rule="evenodd" clip-rule="evenodd" d="M58.8733 16.8849C59.5516 17.5063 60.4369 17.8171 61.5293 17.8171C62.329 17.8171 63.0072 17.6802 63.5641 17.4065C64.0049 17.1868 64.4522 16.8722 64.9061 16.4627C65.0525 16.3306 65.3797 16.4211 65.4403 16.6122C65.4623 16.6814 65.4866 16.7575 65.5133 16.8405C65.5965 17.0993 65.6578 17.2908 65.697 17.415C65.7283 17.5142 65.8195 17.584 65.9201 17.584H67.6072C67.7283 17.584 67.8265 17.4823 67.8265 17.3567V9.62678C67.8265 8.02868 67.466 6.87449 66.7449 6.16422C66.0238 5.44655 64.8707 5.08772 63.2857 5.08772C61.7552 5.08772 60.3275 5.36394 59.0026 5.91639C58.8855 5.96522 58.8255 6.11188 58.869 6.23469C58.9278 6.40086 59.0185 6.65852 59.1411 7.00767C59.2663 7.3645 59.3583 7.62688 59.417 7.79481C59.4595 7.91635 59.5918 7.97903 59.7089 7.93447C61.0215 7.43498 62.1317 7.18523 63.0394 7.18523C63.7105 7.18523 64.2103 7.3554 64.5387 7.69574C64.8671 8.02868 65.0313 8.56508 65.0313 9.30494V9.74606C65.0313 9.8615 64.9478 9.95866 64.837 9.97056C64.6803 9.9874 64.4916 10.006 64.271 10.0263C63.9497 10.0559 63.6605 10.0855 63.4035 10.1151C63.1465 10.1447 62.9073 10.1743 62.6859 10.2039C61.0724 10.3666 59.8657 10.7551 59.0661 11.3692C58.2664 11.9759 57.8666 12.9118 57.8666 14.1769C57.8666 15.3533 58.2022 16.256 58.8733 16.8849ZM63.9818 15.2756C63.5034 15.5938 62.9394 15.7529 62.2897 15.7529C61.7471 15.7529 61.3294 15.616 61.0367 15.3422C60.7439 15.0611 60.5976 14.6616 60.5976 14.1437C60.5976 13.389 60.8617 12.8415 61.3901 12.5012C61.9184 12.1608 62.7502 11.9389 63.8854 11.8353C63.914 11.8353 64.1032 11.8205 64.453 11.7909C64.5964 11.779 64.7127 11.7695 64.8019 11.7624C64.9227 11.7528 65.0206 11.8483 65.0206 11.9738V14.0487C65.0206 14.082 65.0137 14.115 64.9995 14.1448C64.7904 14.584 64.4512 14.9609 63.9818 15.2756Z" fill="#2B2F35"/>
<path d="M70.4988 17.584C70.3777 17.584 70.2795 17.4823 70.2795 17.3567V5.61465C70.2795 5.48912 70.3777 5.38736 70.4988 5.38736H72.866C72.9872 5.38736 73.0854 5.48912 73.0854 5.61465V17.3567C73.0854 17.4823 72.9872 17.584 72.866 17.584H70.4988Z" fill="#2B2F35"/>
<path d="M70.4988 3.61169C70.3777 3.61169 70.2795 3.50993 70.2795 3.3844V1.35303C70.2795 1.2275 70.3777 1.12574 70.4988 1.12574H72.8768C72.9979 1.12574 73.0961 1.2275 73.0961 1.35303V3.3844C73.0961 3.50993 72.9979 3.61169 72.8768 3.61169H70.4988Z" fill="#2B2F35"/>
<path d="M77.6909 17.4619C78.2264 17.6543 78.8975 17.7505 79.7043 17.7505C79.9043 17.7505 80.122 17.7357 80.3576 17.7061C80.5932 17.6839 80.786 17.658 80.9359 17.6284C81.093 17.6062 81.2537 17.5766 81.4179 17.5396L81.4623 17.5301C81.5841 17.5039 81.6817 17.3771 81.6771 17.2484L81.6198 15.661C81.6149 15.5262 81.4984 15.4256 81.3693 15.4428C80.9268 15.5015 80.5539 15.5309 80.2505 15.5309C79.5294 15.5309 79.0439 15.3385 78.794 14.9538C78.5441 14.5617 78.4192 13.8181 78.4192 12.7231V0.946534C78.4192 0.815217 78.3121 0.711222 78.1857 0.719725L75.8184 0.878895C75.703 0.886653 75.6133 0.985891 75.6133 1.1057V12.7786C75.6133 13.659 75.674 14.3952 75.7953 14.9871C75.9167 15.579 76.1309 16.0895 76.4379 16.5186C76.7449 16.9477 77.1626 17.2622 77.6909 17.4619Z" fill="#2B2F35"/>
<path d="M91.1319 16.6296C90.1966 17.4213 88.965 17.8171 87.4371 17.8171C85.9092 17.8171 84.6776 17.4213 83.7423 16.6296C82.8141 15.8379 82.35 14.6764 82.35 13.1448V5.61465C82.35 5.48912 82.4482 5.38736 82.5694 5.38736H84.9473C85.0685 5.38736 85.1667 5.48912 85.1667 5.61465V13.0339C85.1667 13.9439 85.3487 14.6024 85.7128 15.0093C86.0841 15.4162 86.6696 15.6197 87.4692 15.6197C88.2546 15.6197 88.8258 15.4199 89.1828 15.0204C89.5469 14.6135 89.7289 13.9513 89.7289 13.0339V5.61465C89.7289 5.48912 89.8271 5.38736 89.9483 5.38736H92.3155C92.4367 5.38736 92.5349 5.48912 92.5349 5.61465V13.1448C92.5349 14.669 92.0672 15.8305 91.1319 16.6296Z" fill="#2B2F35"/>
<path fill-rule="evenodd" clip-rule="evenodd" d="M94.3902 5.61465C94.3902 5.48912 94.4884 5.38736 94.6095 5.38736H96.6168C96.7228 5.38736 96.8136 5.46592 96.8326 5.57399L96.9979 6.5159C97.0338 6.72057 97.3034 6.77761 97.4314 6.61734C97.7637 6.20121 98.1636 5.8652 98.6312 5.60932C99.2738 5.25419 99.9877 5.07662 100.773 5.07662C101.737 5.07662 102.583 5.35407 103.311 5.90897C104.047 6.46387 104.604 7.22223 104.982 8.18405C105.36 9.13847 105.55 10.2187 105.55 11.4247C105.55 13.3113 105.107 14.8502 104.222 16.0414C103.343 17.2252 102.151 17.8171 100.645 17.8171C99.9021 17.8171 99.2274 17.6654 98.6205 17.3621C98.2325 17.161 97.8848 16.9151 97.5775 16.6243C97.4677 16.5203 97.2965 16.5469 97.2068 16.6474V31.2168C97.2068 32.1268 97.3889 32.7853 97.753 33.1922C98.1243 33.5991 98.7097 33.8026 99.5094 33.8026C100.295 33.8026 100.866 33.6028 101.223 33.2033C101.587 32.7964 101.769 32.1342 101.769 31.2168V23.7975C101.769 23.672 101.867 23.5703 101.988 23.5703H104.356C104.477 23.5703 104.575 23.672 104.575 23.7975V31.3277C104.575 32.8519 104.107 34.0134 103.172 34.8125C102.237 35.6042 101.005 36 99.4773 36C97.9493 36 96.7177 35.6042 95.7824 34.8125C94.8543 34.0208 94.3902 32.8593 94.3902 31.3277V5.61465ZM102.015 14.5099C101.537 15.235 100.88 15.5975 100.045 15.5975C99.0953 15.5975 98.3777 15.2461 97.8922 14.5432C97.4139 13.8329 97.1747 12.7231 97.1747 11.2138C97.1961 8.59467 98.135 7.28511 99.9913 7.28511C100.855 7.28511 101.53 7.62915 102.015 8.31722C102.501 9.0053 102.744 10.0337 102.744 11.4025C102.744 12.749 102.501 13.7848 102.015 14.5099Z" fill="#2B2F35"/>
<path d="M89.308 35.6448C89.8435 35.8372 90.511 35.9334 91.3107 35.9334C91.5106 35.9334 91.7248 35.9223 91.9533 35.9001C92.1817 35.8779 92.3674 35.852 92.5102 35.8224C92.6601 35.8002 92.8136 35.7743 92.9707 35.7447L93.0151 35.7348C93.1367 35.7076 93.2346 35.5823 93.2299 35.4535L93.1726 33.8578C93.1677 33.722 93.0497 33.6212 92.9196 33.6386C92.546 33.6887 92.1918 33.7138 91.8569 33.7138C91.1643 33.7138 90.6895 33.5177 90.4325 33.1256C90.1755 32.7335 90.0469 32.075 90.0469 31.1502V25.5621C90.0469 25.4366 90.1451 25.3348 90.2663 25.3348H92.7513C92.8725 25.3348 92.9707 25.2331 92.9707 25.1076V23.7975C92.9707 23.672 92.8725 23.5703 92.7513 23.5703H90.2663C90.1451 23.5703 90.0469 23.4685 90.0469 23.343V20.4807C90.0469 20.3546 89.9479 20.2526 89.8262 20.2534L88.4984 20.262C88.4007 20.2626 88.3152 20.3302 88.2887 20.4276L87.4748 23.4197C87.4501 23.5104 87.374 23.5759 87.2834 23.5844L85.6063 23.7415C85.4992 23.7515 85.4149 23.8407 85.4073 23.9519L85.3298 25.0916C85.3209 25.2231 85.4214 25.3348 85.5486 25.3348H87.0217C87.1428 25.3348 87.241 25.4366 87.241 25.5621V31.0947C87.241 31.9381 87.3017 32.6484 87.4231 33.2255C87.5516 33.7952 87.7658 34.2909 88.0657 34.7126C88.3655 35.1343 88.7796 35.4451 89.308 35.6448Z" fill="#2B2F35"/>
<path fill-rule="evenodd" clip-rule="evenodd" d="M62.6724 34.3131C63.7291 35.4377 65.2034 36 67.0954 36C68.6637 36 70.0232 35.6498 71.1739 34.9494C71.2529 34.9014 71.2925 34.8063 71.2746 34.7133L70.9672 33.1121C70.9381 32.9602 70.774 32.8824 70.6414 32.9539C69.5379 33.5493 68.3916 33.847 67.2025 33.847C66.1958 33.847 65.4033 33.5362 64.825 32.9147C64.2934 32.3294 63.9968 31.523 63.9352 30.4955C63.9276 30.3679 64.0271 30.2623 64.1505 30.2623H71.5348C71.6559 30.2623 71.7541 30.1606 71.7541 30.0351V29.6409C71.7612 29.3597 71.7648 29.1562 71.7648 29.0305C71.7648 27.2918 71.315 25.8971 70.4154 24.8465C69.5229 23.7959 68.2663 23.2706 66.6456 23.2706C64.9321 23.278 63.5791 23.8551 62.5867 25.0019C61.5943 26.1487 61.0981 27.6913 61.0981 29.6298C61.0981 31.62 61.6228 33.1811 62.6724 34.3131ZM64.2147 28.4312C64.0874 28.4312 63.9863 28.3189 64.0005 28.1877C64.0975 27.287 64.3723 26.5987 64.825 26.1228C65.3248 25.6049 65.9352 25.3459 66.6563 25.3459C67.4274 25.3459 68.0307 25.6123 68.4663 26.145C68.8679 26.6362 69.0843 27.3225 69.1156 28.2038C69.12 28.3292 69.0213 28.4312 68.9002 28.4312H64.2147Z" fill="#2B2F35"/>
<path d="M53.3638 35.6238C53.397 35.7102 53.4778 35.7669 53.5676 35.7669H56.1054C56.1966 35.7669 56.2783 35.7085 56.3105 35.6201L60.5997 23.878C60.654 23.7293 60.548 23.5703 60.3945 23.5703H57.909C57.8172 23.5703 57.7353 23.629 57.7047 23.7187C57.544 24.1901 57.1756 25.3244 56.5996 27.1216C55.998 29.0197 55.6749 30.0356 55.6303 30.1696C55.6269 30.1797 55.6234 30.1897 55.6202 30.1999C55.5889 30.3005 55.5191 30.5507 55.4108 30.9504C55.3037 31.3647 55.1895 31.8087 55.0681 32.2822C55.0374 32.402 54.7108 32.4093 54.6745 32.2911C54.5041 31.7359 54.2819 31.0448 54.0079 30.2179C53.808 29.5891 53.401 28.409 52.787 26.6777C52.2532 25.1483 51.9099 24.1628 51.7573 23.7211C51.726 23.6305 51.6433 23.5703 51.5505 23.5703H49.0516C48.8965 23.5703 48.7904 23.7324 48.8478 23.8817L53.3638 35.6238Z" fill="#2B2F35"/>
<path d="M73.8373 35.7669C73.7162 35.7669 73.618 35.6652 73.618 35.5396V23.7976C73.618 23.672 73.7162 23.5703 73.8373 23.5703H75.6994C75.8033 23.5703 75.8929 23.6458 75.9141 23.7511L76.106 24.7042C76.1415 24.8805 76.3524 24.9467 76.482 24.8269C77.6041 23.7894 78.8378 23.2706 80.183 23.2706C81.5538 23.2706 82.5784 23.6812 83.2566 24.5025C83.9421 25.3163 84.2848 26.5001 84.2848 28.0538V35.5396C84.2848 35.6652 84.1866 35.7669 84.0654 35.7669H81.6875C81.5663 35.7669 81.4681 35.6652 81.4681 35.5396V28.409C81.461 27.425 81.3075 26.6888 81.0076 26.2005C80.7078 25.7122 80.1687 25.468 79.3905 25.468C78.7836 25.468 78.2267 25.6308 77.7198 25.9563C77.2274 26.2697 76.8668 26.6657 76.6377 27.1442C76.6308 27.1587 76.6256 27.1737 76.622 27.1894C76.4899 27.767 76.4239 28.647 76.4239 29.8295V35.5396C76.4239 35.6652 76.3257 35.7669 76.2046 35.7669H73.8373Z" fill="#2B2F35"/>
<path d="M106.717 35.5396C106.717 35.6652 106.816 35.7669 106.937 35.7669H109.304C109.425 35.7669 109.523 35.6652 109.523 35.5396V29.1525C109.523 28.1389 109.777 27.3473 110.284 26.7776C110.798 26.2079 111.572 25.923 112.608 25.923C112.827 25.923 113.04 25.9343 113.249 25.9569C113.38 25.9712 113.499 25.8678 113.501 25.7306L113.536 23.7589C113.538 23.6447 113.458 23.5462 113.348 23.5363C113.19 23.522 113.003 23.5148 112.79 23.5148C111.516 23.5148 110.505 23.9994 109.755 24.9686C109.631 25.129 109.368 25.0766 109.328 24.8752L109.109 23.7525C109.088 23.6465 108.998 23.5703 108.894 23.5703H106.937C106.816 23.5703 106.717 23.672 106.717 23.7976V35.5396Z" fill="#2B2F35"/>
<path fill-rule="evenodd" clip-rule="evenodd" d="M120.148 36C118.256 36 116.781 35.4377 115.725 34.3131C114.675 33.1811 114.15 31.62 114.15 29.6298C114.15 27.6913 114.646 26.1487 115.639 25.0019C116.631 23.8551 117.984 23.278 119.698 23.2706C121.319 23.2706 122.575 23.7959 123.468 24.8465C124.367 25.8971 124.817 27.2918 124.817 29.0305C124.817 29.1562 124.813 29.3597 124.806 29.6409V30.0351C124.806 30.1606 124.708 30.2623 124.587 30.2623H117.203C117.079 30.2623 116.98 30.3679 116.987 30.4955C117.049 31.523 117.346 32.3294 117.877 32.9147C118.456 33.5362 119.248 33.847 120.255 33.847C121.444 33.847 122.59 33.5493 123.694 32.9539C123.826 32.8824 123.99 32.9602 124.019 33.1121L124.327 34.7133C124.345 34.8063 124.305 34.9014 124.226 34.9494C123.075 35.6498 121.716 36 120.148 36ZM117.053 28.1877C117.039 28.3189 117.14 28.4312 117.267 28.4312H121.952C122.074 28.4312 122.172 28.3292 122.168 28.2038C122.137 27.3225 121.92 26.6362 121.518 26.145C121.083 25.6123 120.48 25.3459 119.709 25.3459C118.987 25.3459 118.377 25.6049 117.877 26.1228C117.425 26.5987 117.15 27.287 117.053 28.1877Z" fill="#2B2F35"/>
<path d="M126.393 35.1418C127.42 35.7065 128.765 35.9889 130.429 35.9889C131.886 35.9889 133.01 35.6559 133.803 34.9901C134.595 34.3242 134.995 33.3809 135.002 32.1601C135.002 31.2501 134.749 30.5139 134.242 29.9516C133.735 29.3819 132.942 28.8936 131.864 28.4867C131.779 28.4497 131.657 28.4016 131.5 28.3424C131.343 28.2832 131.25 28.2499 131.222 28.2425C130.329 27.9022 129.73 27.6284 129.423 27.4213C129.116 27.2067 128.962 26.9108 128.962 26.5334C128.962 26.1339 129.119 25.8379 129.433 25.6456C129.755 25.4458 130.197 25.3459 130.761 25.3459C131.709 25.3459 132.703 25.5819 133.745 26.0537C133.863 26.1073 134.001 26.0477 134.045 25.9219L134.594 24.3377C134.631 24.2292 134.585 24.1083 134.484 24.0598C133.389 23.5337 132.13 23.2706 130.708 23.2706C129.323 23.2706 128.241 23.5666 127.463 24.1585C126.692 24.7503 126.306 25.6012 126.306 26.711C126.306 27.6284 126.545 28.3572 127.024 28.8973C127.502 29.43 128.284 29.9146 129.369 30.3511C129.462 30.3881 129.665 30.4658 129.979 30.5842C130.893 30.9467 131.511 31.2501 131.832 31.4942C132.161 31.7384 132.325 32.0713 132.325 32.493C132.318 32.9591 132.139 33.3143 131.789 33.5584C131.447 33.7952 130.965 33.9136 130.344 33.9136C129.744 33.9136 129.08 33.81 128.352 33.6028C127.762 33.4291 127.257 33.2385 126.836 33.0309C126.697 32.9625 126.53 33.0503 126.509 33.2079L126.283 34.9153C126.271 35.0074 126.314 35.0982 126.393 35.1418Z" fill="#2B2F35"/>
<path d="M0.718085 0C0.321493 0 0 0.32235 0 0.72V13.68C0 14.0777 0.321493 14.4 0.718085 14.4H6.46277C6.85936 14.4 7.18085 14.0777 7.18085 13.68V7.2H13.6436C14.0402 7.2 14.3617 6.87765 14.3617 6.48V0.72C14.3617 0.32235 14.0402 0 13.6436 0H0.718085Z" fill="#D7D9E4"/>
<path d="M7.18085 15.12C7.18085 14.7224 7.50234 14.4 7.89894 14.4H13.6436C14.0402 14.4 14.3617 14.7224 14.3617 15.12V20.88C14.3617 21.2777 14.0402 21.6 13.6436 21.6H7.89894C7.50234 21.6 7.18085 21.2777 7.18085 20.88V15.12Z" fill="#D7D9E4"/>
<path d="M0.718085 21.6C0.321493 21.6 0 21.9224 0 22.32V35.28C0 35.6777 0.321493 36 0.718085 36H6.46277C6.85936 36 7.18085 35.6777 7.18085 35.28V22.32C7.18085 21.9224 6.85936 21.6 6.46277 21.6H0.718085Z" fill="#D7D9E4"/>
<path d="M21.543 35.28C21.543 35.6777 21.8645 36 22.2611 36H35.1866C35.5832 36 35.9047 35.6777 35.9047 35.28V22.32C35.9047 21.9224 35.5832 21.6 35.1866 21.6H29.4419C29.0453 21.6 28.7238 21.9224 28.7238 22.32V28.8H22.2611C21.8645 28.8 21.543 29.1224 21.543 29.52V35.28Z" fill="#F59E6C"/>
<path d="M28.7238 13.68C28.7238 14.0777 29.0453 14.4 29.4419 14.4H35.1866C35.5832 14.4 35.9047 14.0777 35.9047 13.68V0.720025C35.9047 0.322375 35.5832 2.5034e-05 35.1866 2.5034e-05H22.2611C21.8645 2.5034e-05 21.543 0.322375 21.543 0.720025V6.48002C21.543 6.87767 21.8645 7.20002 22.2611 7.20002H28.7238V13.68Z" fill="#C3D39F"/>
</svg>
