<svg width="430" height="470" viewBox="0 0 430 470" fill="none" xmlns="http://www.w3.org/2000/svg">
<path d="M169.94 224.271C169.801 224.191 169.687 224.105 169.6 224.013C169.515 223.922 169.467 223.838 169.457 223.761L169.88 223.651C169.89 223.714 169.931 223.786 170.003 223.865C170.077 223.943 170.169 224.014 170.279 224.078C170.403 224.15 170.536 224.188 170.679 224.193C170.823 224.199 170.949 224.17 171.057 224.108C171.124 224.069 171.171 224.03 171.198 223.989C171.226 223.949 171.237 223.911 171.232 223.874C171.226 223.837 171.203 223.797 171.162 223.753C171.123 223.71 171.077 223.669 171.023 223.63C170.969 223.591 170.899 223.547 170.815 223.497C170.812 223.495 170.796 223.486 170.768 223.47C170.741 223.453 170.726 223.444 170.723 223.442L171.05 223.253L171.141 223.306C171.235 223.36 171.32 223.403 171.397 223.436C171.475 223.47 171.554 223.497 171.635 223.516C171.717 223.536 171.796 223.541 171.872 223.531C171.948 223.522 172.021 223.497 172.089 223.458C172.181 223.405 172.224 223.34 172.22 223.263C172.216 223.185 172.151 223.11 172.026 223.038C171.822 222.921 171.591 222.846 171.33 222.813L171.522 222.568C171.839 222.611 172.133 222.711 172.403 222.867C172.629 222.997 172.754 223.138 172.777 223.289C172.802 223.44 172.722 223.57 172.536 223.677C172.406 223.752 172.262 223.796 172.103 223.81C171.947 223.825 171.784 223.808 171.616 223.759C171.732 223.859 171.774 223.964 171.742 224.073C171.711 224.184 171.619 224.282 171.468 224.37C171.324 224.453 171.162 224.502 170.98 224.518C170.8 224.534 170.621 224.52 170.444 224.476C170.268 224.432 170.1 224.364 169.94 224.271Z" fill="white"/>
<path d="M129.334 146.785C128.127 146.675 125.515 146.983 124.725 149.09" stroke="#FFEE58" stroke-width="0.6" stroke-linecap="round" stroke-linejoin="round" stroke-dasharray="1 1"/>
<path d="M38.8047 181.257C69.2297 163.7 118.558 163.7 148.984 181.257C179.409 198.815 179.409 227.281 148.984 244.838L100.015 273.096C69.5901 290.653 20.2614 290.653 -10.1636 273.096C-40.5887 255.539 -40.5887 227.073 -10.1636 209.515L38.8047 181.257Z" fill="#F8F8FB" stroke="#7187B4" stroke-linejoin="round"/>
<path d="M38.8047 178.432C69.2297 160.874 118.558 160.874 148.984 178.432C179.409 195.989 179.409 224.455 148.984 242.013L100.015 270.271C69.5901 287.828 20.2614 287.828 -10.1636 270.271C-40.5887 252.713 -40.5887 224.247 -10.1636 206.69L38.8047 178.432Z" fill="#F59E6C" stroke="#7187B4" stroke-linejoin="round"/>
<path d="M47.3743 183.377C73.0666 168.551 114.722 168.551 140.414 183.377C166.106 198.203 166.106 222.241 140.414 237.067L91.4458 265.325C65.7535 280.152 24.0982 280.152 -1.59409 265.325C-27.2863 250.499 -27.2863 226.461 -1.59409 211.635L47.3743 183.377Z" fill="#F59E6C" stroke="#7187B4" stroke-linejoin="round"/>
<path d="M55.9438 188.322C76.9033 176.227 110.885 176.227 131.845 188.322C152.804 200.417 152.804 220.027 131.845 232.122L82.8764 260.38C61.917 272.475 27.9349 272.475 6.97547 260.38C-13.984 248.285 -13.984 228.675 6.97545 216.58L55.9438 188.322Z" fill="#F59E6C" stroke="#7187B4" stroke-linejoin="round"/>
<rect width="67.8443" height="124.381" rx="33.9221" transform="matrix(0.866131 0.499817 -0.866131 0.499817 93.8945 176.312)" fill="#F8F8FB" stroke="#7187B4" stroke-linejoin="round"/>
<path d="M120.014 229.296L145.37 244.132" stroke="#7187B4" stroke-linejoin="round"/>
<path d="M111.447 234.241L136.892 249.077" stroke="#7187B4" stroke-linejoin="round"/>
<path d="M94.4844 170.344C94.4844 169.24 93.7088 168.792 92.7521 169.344L33.677 203.434C32.7203 203.986 31.9447 205.329 31.9447 206.434L31.9447 206.91C31.9447 208.015 32.7203 208.463 33.677 207.91L92.7521 173.82C93.7088 173.268 94.4844 171.925 94.4844 170.82L94.4844 170.344Z" fill="#F8F8FB" stroke="#7187B4" stroke-linejoin="round"/>
<path d="M90.123 177.338C90.123 176.234 89.3475 175.786 88.3908 176.338L33.6789 207.91C32.7222 208.463 31.9466 209.806 31.9466 210.91L31.9466 218.101C31.9466 219.205 32.7222 219.653 33.6789 219.101L88.3908 187.528C89.3475 186.976 90.123 185.633 90.123 184.529L90.123 177.338Z" fill="#F8F8FB" stroke="#7187B4" stroke-linejoin="round"/>
<path d="M90.123 177.338C90.123 176.234 89.3475 175.786 88.3908 176.338L82.1592 179.934C81.2025 180.486 80.427 181.829 80.427 182.934L80.427 184.529C80.427 185.633 81.2025 186.081 82.1592 185.529L88.3908 181.933C89.3475 181.381 90.123 180.038 90.123 178.934L90.123 177.338Z" fill="#F8F8FB" stroke="#7187B4" stroke-linejoin="round"/>
<path d="M90.123 182.934C90.123 181.829 89.3475 181.381 88.3908 181.933L82.1592 185.529C81.2025 186.081 80.427 187.424 80.427 188.529L80.427 190.124C80.427 191.229 81.2025 191.677 82.1592 191.125L88.3908 187.529C89.3475 186.976 90.123 185.633 90.123 184.529L90.123 182.934Z" fill="#F8F8FB" stroke="#7187B4" stroke-linejoin="round"/>
<path d="M80.4258 182.934C80.4258 181.829 79.6502 181.381 78.6935 181.933L72.462 185.529C71.5053 186.081 70.7297 187.424 70.7297 188.529L70.7297 190.124C70.7297 191.229 71.5053 191.677 72.462 191.125L78.6935 187.529C79.6502 186.976 80.4258 185.633 80.4258 184.529L80.4258 182.934Z" fill="#E6EAF1" stroke="#7187B4" stroke-linejoin="round"/>
<path d="M80.4258 188.529C80.4258 187.424 79.6502 186.976 78.6935 187.529L72.462 191.125C71.5053 191.677 70.7297 193.02 70.7297 194.124L70.7297 195.72C70.7297 196.824 71.5053 197.272 72.462 196.72L78.6935 193.124C79.6502 192.572 80.4258 191.229 80.4258 190.124L80.4258 188.529Z" fill="#F59E6C" stroke="#7187B4" stroke-linejoin="round"/>
<path d="M70.7285 188.529C70.7285 187.424 69.953 186.976 68.9963 187.529L62.7647 191.125C61.808 191.677 61.0324 193.02 61.0324 194.124L61.0324 195.72C61.0324 196.824 61.808 197.272 62.7647 196.72L68.9963 193.124C69.953 192.572 70.7285 191.229 70.7285 190.124L70.7285 188.529Z" fill="#F8F8FB" stroke="#7187B4" stroke-linejoin="round"/>
<path d="M70.7285 194.124C70.7285 193.02 69.953 192.572 68.9963 193.124L62.7647 196.72C61.808 197.272 61.0324 198.615 61.0324 199.72L61.0324 201.315C61.0324 202.419 61.808 202.867 62.7647 202.315L68.9963 198.719C69.953 198.167 70.7285 196.824 70.7285 195.72L70.7285 194.124Z" fill="#DBEEF4" stroke="#7187B4" stroke-linejoin="round"/>
<path d="M61.0332 194.124C61.0332 193.02 60.2576 192.572 59.3009 193.124L53.0694 196.72C52.1127 197.272 51.3371 198.615 51.3371 199.72L51.3371 201.315C51.3371 202.419 52.1127 202.867 53.0694 202.315L59.3009 198.719C60.2576 198.167 61.0332 196.824 61.0332 195.72L61.0332 194.124Z" fill="#FFEE58" stroke="#7187B4" stroke-linejoin="round"/>
<path d="M61.0332 199.719C61.0332 198.615 60.2576 198.167 59.3009 198.719L53.0694 202.315C52.1127 202.867 51.3371 204.21 51.3371 205.315L51.3371 206.91C51.3371 208.015 52.1127 208.462 53.0694 207.91L59.3009 204.314C60.2576 203.762 61.0332 202.419 61.0332 201.315L61.0332 199.719Z" fill="#F8F8FB" stroke="#7187B4" stroke-linejoin="round"/>
<path d="M51.3359 199.719C51.3359 198.615 50.5604 198.167 49.6037 198.719L43.3721 202.315C42.4154 202.867 41.6399 204.21 41.6399 205.315L41.6399 206.91C41.6399 208.015 42.4154 208.462 43.3721 207.91L49.6037 204.314C50.5604 203.762 51.3359 202.419 51.3359 201.315L51.3359 199.719Z" fill="#F8F8FB" stroke="#7187B4" stroke-linejoin="round"/>
<path d="M51.3359 205.315C51.3359 204.21 50.5604 203.762 49.6037 204.315L43.3721 207.911C42.4154 208.463 41.6399 209.806 41.6399 210.91L41.6399 212.506C41.6399 213.61 42.4154 214.058 43.3721 213.506L49.6037 209.91C50.5604 209.358 51.3359 208.015 51.3359 206.91L51.3359 205.315Z" fill="#D7D9E4" stroke="#7187B4" stroke-linejoin="round"/>
<path d="M41.6406 205.315C41.6406 204.211 40.8651 203.763 39.9084 204.315L33.6768 207.911C32.7201 208.463 31.9446 209.806 31.9446 210.91L31.9446 212.506C31.9446 213.61 32.7201 214.058 33.6768 213.506L39.9084 209.91C40.8651 209.358 41.6406 208.015 41.6406 206.91L41.6406 205.315Z" fill="#DBEEF4" stroke="#7187B4" stroke-linejoin="round"/>
<path d="M41.6406 210.91C41.6406 209.806 40.8651 209.358 39.9084 209.91L33.6768 213.506C32.7201 214.058 31.9446 215.401 31.9446 216.505L31.9446 218.101C31.9446 219.205 32.7201 219.653 33.6768 219.101L39.9084 215.505C40.8651 214.953 41.6406 213.61 41.6406 212.505L41.6406 210.91Z" fill="#E6EAF1" stroke="#7187B4" stroke-linejoin="round"/>
<path d="M62.283 149.76C61.3263 149.208 59.7752 149.208 58.8185 149.76L-0.611924 184.056C-1.56863 184.608 -1.56863 185.503 -0.611924 186.055L29.8598 203.639C30.8165 204.191 32.3676 204.191 33.3243 203.639L92.7548 169.344C93.7115 168.792 93.7115 167.897 92.7548 167.345L62.283 149.76Z" fill="#F8F8FB" stroke="#7187B4" stroke-linejoin="round"/>
<path d="M62.2518 154.724C61.2951 154.172 59.744 154.172 58.7873 154.724L7.98454 184.041C7.02784 184.593 7.02784 185.488 7.98454 186.04L29.8819 198.676C30.8386 199.228 32.3897 199.228 33.3464 198.676L84.1492 169.36C85.1059 168.807 85.1059 167.912 84.1492 167.36L62.2518 154.724Z" fill="#F8F8FB" stroke="#7187B4" stroke-linejoin="round"/>
<path d="M31.7852 222.38C31.7852 221.276 31.0096 219.933 30.0529 219.381L18.0037 212.427C17.047 211.875 16.2714 212.323 16.2714 213.428L16.2714 223.416C16.2714 224.521 17.047 225.864 18.0037 226.416L30.0529 233.369C31.0096 233.921 31.7852 233.473 31.7852 232.369L31.7852 222.38Z" fill="#F8F8FB" stroke="#7187B4" stroke-linejoin="round"/>
<path d="M31.7852 206.714C31.7852 205.609 31.0096 204.266 30.0529 203.714L-0.41884 186.13C-1.37554 185.578 -2.1511 186.026 -2.1511 187.13L-2.1511 187.606C-2.1511 188.711 -1.37554 190.054 -0.418841 190.606L30.0529 208.19C31.0096 208.742 31.7852 208.295 31.7852 207.19L31.7852 206.714Z" fill="#F8F8FB" stroke="#7187B4" stroke-linejoin="round"/>
<path d="M31.7852 211.19C31.7852 210.085 31.0096 208.743 30.0529 208.19L4.4292 193.404C3.47249 192.852 2.69694 193.3 2.69694 194.404L2.69694 201.595C2.69694 202.699 3.4725 204.042 4.4292 204.594L30.0529 219.381C31.0096 219.933 31.7852 219.485 31.7852 218.381L31.7852 211.19Z" fill="#F8F8FB" stroke="#7187B4" stroke-linejoin="round"/>
<path d="M90.0059 188.809C90.0059 187.704 89.2303 187.256 88.2736 187.808L33.5617 219.381C32.605 219.933 31.8294 221.276 31.8294 222.381L31.8294 232.369C31.8294 233.473 32.605 233.921 33.5617 233.369L88.2736 201.797C89.2303 201.245 90.0059 199.902 90.0059 198.797L90.0059 188.809Z" fill="#F8F8FB" stroke="#7187B4" stroke-linejoin="round"/>
<path d="M89.7637 189.747L32.072 223.039" stroke="#7187B4"/>
<path d="M89.7637 192.544L32.072 225.836" stroke="#7187B4"/>
<path d="M89.7637 195.342L32.072 228.634" stroke="#7187B4"/>
<path d="M89.7637 198.139L32.072 231.431" stroke="#7187B4"/>
<ellipse rx="1.04635" ry="1.04941" transform="matrix(-1 0 0 1 89.9204 241.978)" fill="white" stroke="#7187B4" stroke-linejoin="round"/>
<path d="M88.4663 247.726C88.8899 246.146 89.3375 245.614 89.6888 245.708C90.0401 245.802 90.1619 246.486 89.7384 248.067C89.3148 249.648 88.5063 251.526 88.155 251.432C87.8037 251.338 88.0427 249.307 88.4663 247.726Z" fill="#D7D9E4" stroke="#7187B4" stroke-linejoin="round"/>
<path d="M91.3779 247.693C90.4936 246.809 90.3619 246.26 90.6191 246.003C90.8762 245.746 91.4248 245.878 92.3092 246.762C93.1935 247.646 94.0786 248.948 93.8215 249.205C93.5643 249.463 92.2622 248.577 91.3779 247.693Z" fill="#D7D9E4" stroke="#7187B4" stroke-linejoin="round"/>
<path d="M88.174 245.784C88.174 247.33 89.1109 247.924 90.2667 247.924C91.4224 247.924 92.3594 247.33 92.3594 245.784C92.3594 244.239 91.4224 242.327 90.2667 242.327C89.1109 242.327 88.174 244.239 88.174 245.784Z" fill="#E6EAF1" stroke="#7187B4" stroke-linejoin="round"/>
<ellipse rx="1.04635" ry="1.04941" transform="matrix(-1 0 0 1 89.9204 241.978)" fill="white" stroke="#7187B4" stroke-linejoin="round"/>
<path d="M280.959 171.146C279.552 171.409 276.829 172.525 277.188 174.883" stroke="#FFEE58" stroke-dasharray="1 1"/>
<rect width="179.426" height="81.4433" rx="12" transform="matrix(0.865392 0.501096 -0.865392 0.501096 -99.4922 230.966)" fill="#C3D39F"/>
<ellipse cx="-9.1046" cy="308.161" rx="8.71961" ry="8.74512" fill="#D7D9E4" stroke="#7187B4" stroke-linejoin="round"/>
<ellipse cx="11.8212" cy="294.168" rx="8.71961" ry="8.74512" fill="#C3D39F" stroke="#7187B4" stroke-linejoin="round"/>
<ellipse cx="11.818" cy="285.074" rx="5.92934" ry="5.94668" fill="#C3D39F" stroke="#7187B4" stroke-linejoin="round"/>
<path d="M11.4707 303.263V311.658" stroke="#7187B4" stroke-linejoin="round"/>
<rect width="60.6396" height="99.8892" rx="12" transform="matrix(0.865392 0.501096 -0.865392 0.501096 78.4902 315.869)" fill="#E6EAF1"/>
<rect width="207.639" height="95.1692" rx="12" transform="matrix(0.865392 0.501096 -0.865392 0.501096 327.256 243.927)" fill="#E6EAF1"/>
<rect width="173.735" height="81.4433" rx="12" transform="matrix(0.865392 0.501096 -0.865392 0.501096 157.346 342.131)" fill="#F59E6C"/>
<rect width="196.007" height="81.4433" rx="12" transform="matrix(0.865392 0.501096 -0.865392 0.501096 293.133 328.248)" fill="#C2D39F"/>
<rect width="81.4433" height="183.359" rx="12" transform="matrix(0.865392 0.501096 -0.865392 0.501096 248.453 197.811)" fill="#DBEEF4"/>
<path d="M360.615 45.4017C401.122 21.9461 468.591 25.8871 500.193 53.5546L602.372 143.015C618.349 157.003 621.808 174.572 611.679 190.284L563.962 264.295C540.905 300.057 461.693 310.027 415.078 283.035L246.689 185.531C211.321 165.052 211.321 131.848 246.689 111.369L360.615 45.4017Z" fill="#C2D39F"/>
<path fill-rule="evenodd" clip-rule="evenodd" d="M394.564 35.9554C398.574 35.9554 401.825 37.8323 401.825 40.1476L401.825 67.0486C428.83 67.7946 455.487 73.7108 476.963 84.797L492.333 75.6773C495.169 74.0401 499.766 74.0401 502.602 75.6773C505.438 77.3144 505.437 79.9688 502.602 81.606L487.201 90.7431C529.404 118.322 527.663 160.463 481.977 186.84C459.716 199.692 430.973 206.521 401.825 207.326C401.825 207.339 401.825 207.352 401.825 207.365L401.825 243.035C401.825 245.35 398.574 247.227 394.564 247.227C390.554 247.227 387.303 245.35 387.303 243.035L387.303 207.365C387.303 207.32 387.304 207.274 387.306 207.229C361.49 206.17 336.148 200.376 315.514 189.847C315.386 189.934 315.251 190.019 315.109 190.101L301.387 198.296C298.552 199.933 293.954 199.933 291.118 198.296C288.283 196.659 288.283 194.004 291.118 192.367L304.84 184.172C304.972 184.096 305.108 184.023 305.247 183.954C262.534 156.382 264.11 114.015 309.975 87.5346C331.516 75.0978 359.127 68.3015 387.303 67.1455L387.303 40.1476C387.303 37.8323 390.553 35.9554 394.564 35.9554ZM471.708 180.911C513.533 156.763 513.533 117.611 471.708 93.4633C429.882 69.3152 362.069 69.3152 320.244 93.4633C278.418 117.611 278.418 156.763 320.244 180.911C362.069 205.059 429.882 205.059 471.708 180.911Z" fill="#FFE8DC"/>
<path d="M317.925 299.744C318.881 299.191 320.431 299.191 321.387 299.744L361.082 322.729C362.038 323.283 362.038 324.18 361.082 324.733L321.387 347.718C320.431 348.272 318.881 348.272 317.925 347.718L278.231 324.733C277.275 324.18 277.275 323.283 278.231 322.729L317.925 299.744Z" fill="#F8F8FB" stroke="#7187B4" stroke-linejoin="round"/>
<path d="M276.502 325.731C276.502 324.626 277.277 324.18 278.233 324.733L317.928 347.718C318.884 348.272 319.658 349.616 319.658 350.72L319.658 402.946C319.658 404.051 318.884 404.497 317.928 403.944L278.233 380.959C277.277 380.406 276.502 379.061 276.502 377.957L276.502 325.731Z" fill="#F8F8FB" stroke="#7187B4" stroke-linejoin="round"/>
<rect width="6.23366" height="12.4947" rx="2" transform="matrix(0.865392 0.501096 -2.19663e-08 1 281.896 333.102)" fill="#FFE8DC" stroke="#7187B4" stroke-linejoin="round"/>
<rect width="6.23366" height="12.4947" rx="2" transform="matrix(0.865392 0.501096 -2.19663e-08 1 290.529 338.1)" fill="#D7D9E4" stroke="#7187B4" stroke-linejoin="round"/>
<rect width="6.23366" height="12.4947" rx="2" transform="matrix(0.865392 0.501096 -2.19663e-08 1 300.24 343.723)" fill="#FFE8DC" stroke="#7187B4" stroke-linejoin="round"/>
<rect width="6.23366" height="12.4947" rx="2" transform="matrix(0.865392 0.501096 -2.19663e-08 1 308.873 348.72)" fill="white" stroke="#7187B4" stroke-linejoin="round"/>
<rect width="6.23366" height="18.742" rx="2" transform="matrix(0.865392 0.501096 -2.19663e-08 1 281.896 345.597)" fill="white" stroke="#7187B4" stroke-linejoin="round"/>
<rect width="6.23366" height="18.742" rx="2" transform="matrix(0.865392 0.501096 -2.19663e-08 1 290.529 350.595)" fill="#C3D39F" stroke="#7187B4" stroke-linejoin="round"/>
<rect width="6.23366" height="18.742" rx="2" transform="matrix(0.865392 0.501096 -2.19663e-08 1 300.24 356.218)" fill="white" stroke="#7187B4" stroke-linejoin="round"/>
<rect width="6.23366" height="18.742" rx="2" transform="matrix(0.865392 0.501096 -2.19663e-08 1 308.873 361.215)" fill="#D7D9E4" stroke="#7187B4" stroke-linejoin="round"/>
<rect width="6.23366" height="12.4947" rx="2" transform="matrix(0.865392 0.501096 -2.19663e-08 1 281.896 364.339)" fill="#DBEEF4" stroke="#7187B4" stroke-linejoin="round"/>
<rect width="6.23366" height="12.4947" rx="2" transform="matrix(0.865392 0.501096 -2.19663e-08 1 290.529 369.337)" fill="#D7D9E4" stroke="#7187B4" stroke-linejoin="round"/>
<rect width="6.23366" height="12.4947" rx="2" transform="matrix(0.865392 0.501096 -2.19663e-08 1 300.24 374.959)" fill="#FFE8DC" stroke="#7187B4" stroke-linejoin="round"/>
<rect width="6.23366" height="12.4947" rx="2" transform="matrix(0.865392 0.501096 -2.19663e-08 1 308.873 379.957)" fill="#FFE8DC" stroke="#7187B4" stroke-linejoin="round"/>
<path d="M278.66 383.207C278.66 382.102 279.435 381.655 280.391 382.209L317.752 403.842C318.708 404.396 319.483 405.74 319.483 406.845L319.483 407.843C319.483 408.947 318.708 409.394 317.752 408.84L280.391 387.207C279.435 386.653 278.66 385.309 278.66 384.204L278.66 383.207Z" fill="white" stroke="#7187B4" stroke-linejoin="round"/>
<path d="M317.929 236.646C318.885 236.093 320.435 236.093 321.391 236.646L361.086 259.631C362.042 260.185 362.042 261.082 361.086 261.635L321.391 284.62C320.435 285.174 318.885 285.174 317.929 284.62L278.234 261.635C277.279 261.082 277.279 260.185 278.234 259.631L317.929 236.646Z" fill="#F8F8FB" stroke="#7187B4" stroke-linejoin="round"/>
<path d="M318.154 224.151C319.11 223.598 320.66 223.598 321.616 224.151L339.732 234.642C340.688 235.195 340.688 236.093 339.732 236.646L321.616 247.136C320.66 247.69 319.11 247.69 318.154 247.136L300.037 236.646C299.081 236.093 299.081 235.195 300.037 234.642L318.154 224.151Z" fill="#F8F8FB" stroke="#7187B4" stroke-linejoin="round"/>
<path d="M298.305 237.644C298.305 236.539 299.08 236.093 300.035 236.646L318.152 247.136C319.108 247.69 319.883 249.034 319.883 250.139L319.883 271.128C319.883 272.232 319.108 272.679 318.152 272.126L300.035 261.635C299.08 261.082 298.305 259.738 298.305 258.633L298.305 237.644Z" fill="#F8F8FB" stroke="#7187B4" stroke-linejoin="round"/>
<rect width="3.7402" height="17.4925" rx="1.8701" transform="matrix(0.865392 0.501096 -2.19663e-08 1 301.541 241.267)" fill="#FFE8DC" stroke="#7187B4" stroke-linejoin="round"/>
<rect width="3.7402" height="17.4925" rx="1.8701" transform="matrix(0.865392 0.501096 -2.19663e-08 1 307.473 244.703)" fill="white" stroke="#7187B4" stroke-linejoin="round"/>
<rect width="3.7402" height="17.4925" rx="1.8701" transform="matrix(0.865392 0.501096 -2.19663e-08 1 313.408 248.139)" fill="#C3D39F" stroke="#7187B4" stroke-linejoin="round"/>
<path d="M320.109 250.139C320.109 249.034 320.884 247.69 321.84 247.136L339.957 236.646C340.913 236.093 341.688 236.539 341.688 237.644L341.688 258.633C341.688 259.738 340.913 261.082 339.957 261.636L321.84 272.126C320.884 272.679 320.109 272.233 320.109 271.128L320.109 250.139Z" fill="#F8F8FB" stroke="#7187B4" stroke-linejoin="round"/>
<rect width="3.7402" height="17.4925" rx="1.8701" transform="matrix(0.865392 -0.501096 2.19663e-08 1 323.344 250.013)" fill="#D7D9E4" stroke="#7187B4" stroke-linejoin="round"/>
<rect width="3.7402" height="17.4925" rx="1.8701" transform="matrix(0.865392 -0.501096 2.19663e-08 1 329.281 246.577)" fill="white" stroke="#7187B4" stroke-linejoin="round"/>
<rect width="3.7402" height="17.4925" rx="1.8701" transform="matrix(0.865392 -0.501096 2.19663e-08 1 335.213 243.141)" fill="#FFE8DC" stroke="#7187B4" stroke-linejoin="round"/>
<path d="M319.484 350.72C319.484 349.616 320.259 348.272 321.215 347.718L360.91 324.733C361.866 324.18 362.641 324.626 362.641 325.731L362.641 377.957C362.641 379.062 361.866 380.406 360.91 380.959L321.215 403.944C320.259 404.498 319.484 404.051 319.484 402.946L319.484 350.72Z" fill="#F8F8FB" stroke="#7187B4" stroke-linejoin="round"/>
<rect width="6.23366" height="12.4947" rx="2" transform="matrix(0.865392 -0.501096 2.19663e-08 1 324.879 351.844)" fill="#FFE8DC" stroke="#7187B4" stroke-linejoin="round"/>
<rect width="6.23366" height="12.4947" rx="2" transform="matrix(0.865392 -0.501096 2.19663e-08 1 333.512 346.847)" fill="white" stroke="#7187B4" stroke-linejoin="round"/>
<rect width="6.23366" height="12.4947" rx="2" transform="matrix(0.865392 -0.501096 2.19663e-08 1 343.219 341.224)" fill="#C3D39F" stroke="#7187B4" stroke-linejoin="round"/>
<rect width="6.23366" height="12.4947" rx="2" transform="matrix(0.865392 -0.501096 2.19663e-08 1 351.852 336.226)" fill="white" stroke="#7187B4" stroke-linejoin="round"/>
<rect width="6.23366" height="18.742" rx="2" transform="matrix(0.865392 -0.501096 2.19663e-08 1 324.879 364.339)" fill="white" stroke="#7187B4" stroke-linejoin="round"/>
<rect width="6.23366" height="18.742" rx="2" transform="matrix(0.865392 -0.501096 2.19663e-08 1 333.512 359.341)" fill="#D7D9E4" stroke="#7187B4" stroke-linejoin="round"/>
<rect width="6.23366" height="18.742" rx="2" transform="matrix(0.865392 -0.501096 2.19663e-08 1 343.219 353.718)" fill="white" stroke="#7187B4" stroke-linejoin="round"/>
<rect width="6.23366" height="18.742" rx="2" transform="matrix(0.865392 -0.501096 2.19663e-08 1 351.852 348.72)" fill="#DBEEF4" stroke="#7187B4" stroke-linejoin="round"/>
<rect width="6.23366" height="12.4947" rx="2" transform="matrix(0.865392 -0.501096 2.19663e-08 1 324.879 383.081)" fill="#F59E6C" stroke="#7187B4" stroke-linejoin="round"/>
<rect width="6.23366" height="12.4947" rx="2" transform="matrix(0.865392 -0.501096 2.19663e-08 1 333.512 378.083)" fill="#D7D9E4" stroke="#7187B4" stroke-linejoin="round"/>
<rect width="6.23366" height="12.4947" rx="2" transform="matrix(0.865392 -0.501096 2.19663e-08 1 343.219 372.46)" fill="#FFE8DC" stroke="#7187B4" stroke-linejoin="round"/>
<rect width="6.23366" height="12.4947" rx="2" transform="matrix(0.865392 -0.501096 2.19663e-08 1 351.852 367.463)" fill="white" stroke="#7187B4" stroke-linejoin="round"/>
<path d="M319.484 406.946C319.484 405.842 320.259 404.498 321.215 403.944L358.752 382.209C359.708 381.655 360.483 382.102 360.483 383.207L360.483 384.204C360.483 385.309 359.708 386.653 358.752 387.207L321.215 408.942C320.259 409.496 319.484 409.049 319.484 407.944L319.484 406.946Z" fill="white" stroke="#7187B4" stroke-linejoin="round"/>
<path d="M280.82 320.607C280.82 319.572 281.546 319.154 282.442 319.672L317.864 340.183C318.759 340.701 319.485 341.961 319.485 342.996C319.485 344.031 318.759 344.45 317.864 343.931L282.442 323.421C281.546 322.902 280.82 321.643 280.82 320.607Z" fill="white" stroke="#7187B4" stroke-linejoin="round"/>
<path d="M319.484 343.098C319.484 342.063 320.211 340.803 321.106 340.285L356.703 319.673C357.599 319.154 358.325 319.572 358.325 320.608C358.325 321.643 357.599 322.902 356.703 323.421L321.106 344.033C320.211 344.552 319.484 344.133 319.484 343.098Z" fill="white" stroke="#7187B4" stroke-linejoin="round"/>
<path d="M276.504 262.633C276.504 261.529 277.279 261.082 278.235 261.635L317.93 284.62C318.886 285.174 319.66 286.518 319.66 287.622L319.66 339.848C319.66 340.953 318.886 341.4 317.93 340.846L278.235 317.861C277.279 317.308 276.504 315.964 276.504 314.859L276.504 262.633Z" fill="#F8F8FB" stroke="#7187B4" stroke-linejoin="round"/>
<rect width="6.23366" height="12.4947" rx="2" transform="matrix(0.865392 0.501096 -2.19663e-08 1 281.9 270.004)" fill="white" stroke="#7187B4" stroke-linejoin="round"/>
<rect width="6.23366" height="12.4947" rx="2" transform="matrix(0.865392 0.501096 -2.19663e-08 1 290.529 275.002)" fill="#D7D9E4" stroke="#7187B4" stroke-linejoin="round"/>
<rect width="6.23366" height="12.4947" rx="2" transform="matrix(0.865392 0.501096 -2.19663e-08 1 300.24 280.625)" fill="#FFE8DC" stroke="#7187B4" stroke-linejoin="round"/>
<rect width="6.23366" height="12.4947" rx="2" transform="matrix(0.865392 0.501096 -2.19663e-08 1 308.869 285.623)" fill="#D7D9E4" stroke="#7187B4" stroke-linejoin="round"/>
<rect width="6.23366" height="18.742" rx="2" transform="matrix(0.865392 0.501096 -2.19663e-08 1 281.9 282.499)" fill="#D7D9E4" stroke="#7187B4" stroke-linejoin="round"/>
<rect width="6.23366" height="18.742" rx="2" transform="matrix(0.865392 0.501096 -2.19663e-08 1 290.529 287.497)" fill="#FFE8DC" stroke="#7187B4" stroke-linejoin="round"/>
<rect width="6.23366" height="18.742" rx="2" transform="matrix(0.865392 0.501096 -2.19663e-08 1 300.24 293.119)" fill="#F59E6C" stroke="#7187B4" stroke-linejoin="round"/>
<rect width="6.23366" height="18.742" rx="2" transform="matrix(0.865392 0.501096 -2.19663e-08 1 308.869 298.117)" fill="#DBEEF4" stroke="#7187B4" stroke-linejoin="round"/>
<rect width="6.23366" height="12.4947" rx="2" transform="matrix(0.865392 0.501096 -2.19663e-08 1 281.9 301.241)" fill="white" stroke="#7187B4" stroke-linejoin="round"/>
<rect width="6.23366" height="12.4947" rx="2" transform="matrix(0.865392 0.501096 -2.19663e-08 1 290.529 306.238)" fill="#D7D9E4" stroke="#7187B4" stroke-linejoin="round"/>
<rect width="6.23366" height="12.4947" rx="2" transform="matrix(0.865392 0.501096 -2.19663e-08 1 300.24 311.861)" fill="#FFE8DC" stroke="#7187B4" stroke-linejoin="round"/>
<rect width="6.23366" height="12.4947" rx="2" transform="matrix(0.865392 0.501096 -2.19663e-08 1 308.869 316.859)" fill="white" stroke="#7187B4" stroke-linejoin="round"/>
<path d="M319.484 287.623C319.484 286.518 320.259 285.174 321.215 284.62L360.91 261.635C361.866 261.082 362.641 261.529 362.641 262.633L362.641 314.859C362.641 315.964 361.866 317.308 360.91 317.861L321.215 340.846C320.259 341.4 319.484 340.953 319.484 339.848L319.484 287.623Z" fill="#F8F8FB" stroke="#7187B4" stroke-linejoin="round"/>
<rect width="6.23366" height="12.4947" rx="2" transform="matrix(0.865392 -0.501096 2.19663e-08 1 324.879 288.746)" fill="#C3D39F" stroke="#7187B4" stroke-linejoin="round"/>
<rect width="6.23366" height="12.4947" rx="2" transform="matrix(0.865392 -0.501096 2.19663e-08 1 333.512 283.749)" fill="white" stroke="#7187B4" stroke-linejoin="round"/>
<rect width="6.23366" height="12.4947" rx="2" transform="matrix(0.865392 -0.501096 2.19663e-08 1 343.219 278.126)" fill="#FFE8DC" stroke="#7187B4" stroke-linejoin="round"/>
<rect width="6.23366" height="12.4947" rx="2" transform="matrix(0.865392 -0.501096 2.19663e-08 1 351.852 273.128)" fill="#D7D9E4" stroke="#7187B4" stroke-linejoin="round"/>
<rect width="6.23366" height="18.742" rx="2" transform="matrix(0.865392 -0.501096 2.19663e-08 1 324.879 301.241)" fill="#FFE8DC" stroke="#7187B4" stroke-linejoin="round"/>
<rect width="6.23366" height="18.742" rx="2" transform="matrix(0.865392 -0.501096 2.19663e-08 1 333.512 296.243)" fill="#D7D9E4" stroke="#7187B4" stroke-linejoin="round"/>
<rect width="6.23366" height="18.742" rx="2" transform="matrix(0.865392 -0.501096 2.19663e-08 1 343.219 290.62)" fill="white" stroke="#7187B4" stroke-linejoin="round"/>
<rect width="6.23366" height="18.742" rx="2" transform="matrix(0.865392 -0.501096 2.19663e-08 1 351.852 285.623)" fill="#FFE8DC" stroke="#7187B4" stroke-linejoin="round"/>
<rect width="6.23366" height="12.4947" rx="2" transform="matrix(0.865392 -0.501096 2.19663e-08 1 324.879 319.983)" fill="white" stroke="#7187B4" stroke-linejoin="round"/>
<rect width="6.23366" height="12.4947" rx="2" transform="matrix(0.865392 -0.501096 2.19663e-08 1 333.512 314.985)" fill="#FFE8DC" stroke="#7187B4" stroke-linejoin="round"/>
<rect width="6.23366" height="12.4947" rx="2" transform="matrix(0.865392 -0.501096 2.19663e-08 1 343.219 309.362)" fill="#FFE8DC" stroke="#7187B4" stroke-linejoin="round"/>
<rect width="6.23366" height="12.4947" rx="2" transform="matrix(0.865392 -0.501096 2.19663e-08 1 351.852 304.364)" fill="#F59E6C" stroke="#7187B4" stroke-linejoin="round"/>
<circle r="73.6353" transform="matrix(0.880825 0.473442 -0.880825 0.473442 396.346 135.572)" fill="#F8F8FB" stroke="#7187B4" stroke-linejoin="round"/>
<circle r="70.6494" transform="matrix(0.880825 0.473442 -0.880825 0.473442 396.346 138.399)" fill="#DBEEF4" stroke="#7187B4" stroke-linejoin="round"/>
<ellipse cx="357.302" cy="177.521" rx="1.04635" ry="1.04941" fill="white" stroke="#7187B4" stroke-linejoin="round"/>
<path d="M358.349 182.809C358.349 181.264 357.724 180.669 356.954 180.669C356.183 180.669 355.559 181.264 355.559 182.809C355.559 184.355 356.183 186.266 356.954 186.266C357.724 186.266 358.349 184.355 358.349 182.809Z" fill="white" stroke="#7187B4" stroke-linejoin="round"/>
<path d="M359.045 181.328C359.045 182.874 358.108 183.468 356.952 183.468C355.796 183.468 354.859 182.874 354.859 181.328C354.859 179.782 355.796 177.871 356.952 177.871C358.108 177.871 359.045 179.782 359.045 181.328Z" fill="#FFE8DC" stroke="#7187B4" stroke-linejoin="round"/>
<ellipse cx="272.054" cy="134.81" rx="8.71961" ry="8.74512" fill="#C3D39F" stroke="#7187B4" stroke-linejoin="round"/>
<ellipse cx="272.05" cy="125.715" rx="5.92934" ry="5.94668" fill="#C3D39F" stroke="#7187B4" stroke-linejoin="round"/>
<path d="M271.703 143.905V152.3" stroke="#7187B4" stroke-linejoin="round"/>
<circle cx="321.938" cy="80.9928" r="11.1941" fill="#E6EAF1" stroke="#7187B4" stroke-linejoin="round"/>
<path d="M321.748 91.9598V100.355" stroke="#7187B4" stroke-linejoin="round"/>
<circle cx="376.591" cy="199.444" r="11.1941" fill="#C3D39F" stroke="#7187B4" stroke-linejoin="round"/>
<path d="M376.402 210.411V218.806" stroke="#7187B4" stroke-linejoin="round"/>
<ellipse cx="437.989" cy="38.6721" rx="8.71961" ry="8.74512" fill="#C3D39F" stroke="#7187B4" stroke-linejoin="round"/>
<ellipse cx="401.116" cy="168.467" rx="8.71961" ry="8.74512" fill="#FFE8DC" stroke="#7187B4" stroke-linejoin="round"/>
<ellipse cx="401.111" cy="159.372" rx="5.92934" ry="5.94668" fill="#FFE8DC" stroke="#7187B4" stroke-linejoin="round"/>
<path d="M400.766 177.562V185.957" stroke="#7187B4" stroke-linejoin="round"/>
<ellipse cx="339.874" cy="56.4511" rx="8.71961" ry="8.74512" fill="#C2D39F" stroke="#7187B4" stroke-linejoin="round"/>
<ellipse cx="339.873" cy="47.3562" rx="5.92934" ry="5.94668" fill="#C2D39F" stroke="#7187B4" stroke-linejoin="round"/>
<path d="M339.529 65.546V73.9413" stroke="#7187B4" stroke-linejoin="round"/>
<path d="M276.408 175.047C276.408 173.942 275.633 173.495 274.677 174.049L251.558 187.436C250.602 187.989 249.827 189.333 249.827 190.438L249.827 249.403C249.827 250.507 250.602 250.954 251.558 250.401L274.677 237.014C275.633 236.46 276.408 235.116 276.408 234.011L276.408 175.047Z" fill="#F8F8FB" stroke="#7187B4" stroke-linejoin="round"/>
<rect width="19.5462" height="20.9883" rx="2" transform="matrix(-0.865392 0.501096 2.19663e-08 1 271.58 178.643)" fill="#FFE8DC" stroke="#7187B4" stroke-linejoin="round"/>
<rect width="5.58464" height="20.9883" rx="2" transform="matrix(-0.865392 0.501096 2.19663e-08 1 254.662 188.438)" fill="white" stroke="#7187B4" stroke-linejoin="round"/>
<rect width="19.5462" height="20.9883" rx="2" transform="matrix(-0.865392 0.501096 2.19663e-08 1 271.58 202.429)" fill="white" stroke="#7187B4" stroke-linejoin="round"/>
<rect width="5.58464" height="20.9883" rx="2" transform="matrix(-0.865392 0.501096 2.19663e-08 1 254.662 212.224)" fill="#D7D9E4" stroke="#7187B4" stroke-linejoin="round"/>
<path d="M280.037 167.043C280.037 165.939 279.262 165.492 278.306 166.045L251.562 181.531C250.606 182.085 249.831 183.429 249.831 184.533L249.831 186.438C249.831 187.542 250.606 187.989 251.562 187.435L278.306 171.95C279.262 171.396 280.037 170.052 280.037 168.947L280.037 167.043Z" fill="white" stroke="#7187B4" stroke-linejoin="round"/>
<path d="M263.988 196.034C263.988 194.93 263.213 194.483 262.257 195.036L243.971 205.625C243.015 206.178 242.24 207.523 242.24 208.627L242.24 267.592C242.24 268.697 243.015 269.143 243.971 268.59L262.257 258.001C263.213 257.448 263.988 256.104 263.988 254.999L263.988 196.034Z" fill="#F8F8FB" stroke="#7187B4" stroke-linejoin="round"/>
<rect width="16.107" height="20.9883" rx="2" transform="matrix(-0.865392 0.501096 2.19663e-08 1 260.086 199.094)" fill="white" stroke="#7187B4" stroke-linejoin="round"/>
<rect width="16.107" height="20.9883" rx="2" transform="matrix(-0.865392 0.501096 2.19663e-08 1 260.086 222.88)" fill="#FFE8DC" stroke="#7187B4" stroke-linejoin="round"/>
<path d="M263.988 190.438C263.988 189.333 263.213 188.886 262.257 189.44L243.971 200.028C243.015 200.582 242.24 201.926 242.24 203.03L242.24 204.627C242.24 205.732 243.015 206.179 243.971 205.625L262.257 195.037C263.213 194.483 263.988 193.139 263.988 192.034L263.988 190.438Z" fill="white" stroke="#7187B4" stroke-linejoin="round"/>
<path d="M242.371 208.628C242.371 207.523 241.596 206.179 240.64 205.625L231.546 200.359C230.59 199.806 229.815 200.252 229.815 201.357L229.815 260.322C229.815 261.426 230.59 262.771 231.546 263.324L240.64 268.59C241.596 269.144 242.371 268.697 242.371 267.592L242.371 208.628Z" fill="#F8F8FB" stroke="#7187B4" stroke-linejoin="round"/>
<rect width="5.48557" height="20.9883" rx="2" transform="matrix(-0.865392 -0.501096 -2.19663e-08 1 238.467 207.165)" fill="#D7D9E4" stroke="#7187B4" stroke-linejoin="round"/>
<rect width="5.48557" height="20.9883" rx="2" transform="matrix(-0.865392 -0.501096 -2.19663e-08 1 238.467 230.952)" fill="#FFE8DC" stroke="#7187B4" stroke-linejoin="round"/>
<path d="M242.371 202.697C242.371 201.593 241.596 200.249 240.64 199.695L231.546 194.429C230.59 193.875 229.815 194.322 229.815 195.427L229.815 197.357C229.815 198.462 230.59 199.806 231.546 200.359L240.64 205.625C241.596 206.179 242.371 205.732 242.371 204.628L242.371 202.697Z" fill="white" stroke="#7187B4" stroke-linejoin="round"/>
<path d="M203.303 217.022C203.303 215.918 202.528 214.574 201.572 214.02L171.203 196.435C170.247 195.882 169.472 196.329 169.472 197.433L169.472 256.398C169.472 257.503 170.247 258.847 171.203 259.4L201.572 276.985C202.528 277.538 203.303 277.092 203.303 275.987L203.303 217.022Z" fill="#F8F8FB" stroke="#7187B4" stroke-linejoin="round"/>
<rect width="13.6598" height="20.9883" rx="2" transform="matrix(-0.865392 -0.501096 -2.19663e-08 1 199.361 215.647)" fill="#DBEEF4" stroke="#7187B4" stroke-linejoin="round"/>
<rect width="13.6598" height="20.9883" rx="2" transform="matrix(-0.865392 -0.501096 -2.19663e-08 1 199.361 239.433)" fill="white" stroke="#7187B4" stroke-linejoin="round"/>
<rect width="13.2587" height="20.9883" rx="2" transform="matrix(-0.865392 -0.501096 -2.19663e-08 1 183.666 206.451)" fill="#FFE8DC" stroke="#7187B4" stroke-linejoin="round"/>
<rect width="13.2587" height="20.9883" rx="2" transform="matrix(-0.865392 -0.501096 -2.19663e-08 1 183.666 230.238)" fill="#C3D39F" stroke="#7187B4" stroke-linejoin="round"/>
<path d="M203.303 211.426C203.303 210.321 202.528 208.977 201.572 208.423L167.579 188.74C166.623 188.186 165.848 188.633 165.848 189.738L165.848 191.335C165.848 192.439 166.623 193.783 167.579 194.337L201.572 214.02C202.528 214.574 203.303 214.127 203.303 213.022L203.303 211.426Z" fill="white" stroke="#7187B4" stroke-linejoin="round"/>
<path d="M203.229 217.022C203.229 215.918 204.003 214.574 204.959 214.02L228.079 200.633C229.035 200.08 229.809 200.526 229.809 201.631L229.809 260.596C229.809 261.7 229.035 263.044 228.079 263.598L204.959 276.985C204.003 277.538 203.229 277.092 203.229 275.987L203.229 217.022Z" fill="#F8F8FB" stroke="#7187B4" stroke-linejoin="round"/>
<rect width="19.5462" height="20.9883" rx="2" transform="matrix(0.865392 -0.501096 2.19663e-08 1 208.059 215.022)" fill="#F59E6C" stroke="#7187B4" stroke-linejoin="round"/>
<rect width="19.5462" height="20.9883" rx="2" transform="matrix(0.865392 -0.501096 2.19663e-08 1 208.059 238.809)" fill="white" stroke="#7187B4" stroke-linejoin="round"/>
<path d="M203.229 211.426C203.229 210.321 204.003 208.977 204.959 208.423L228.079 195.036C229.035 194.483 229.809 194.93 229.809 196.034L229.809 197.631C229.809 198.736 229.035 200.08 228.079 200.633L204.959 214.02C204.003 214.574 203.229 214.127 203.229 213.022L203.229 211.426Z" fill="white" stroke="#7187B4" stroke-linejoin="round"/>
<path d="M166.958 188.743C165.999 188.189 166.002 187.289 166.963 186.736L241.327 143.959C242.284 143.408 243.829 143.41 244.783 143.962L278.782 163.649C279.738 164.202 279.738 165.099 278.782 165.653L253.851 180.089C252.895 180.643 252.895 181.54 253.851 182.094L262.471 187.086C263.427 187.639 263.427 188.536 262.471 189.09L244.185 199.678C243.229 200.232 241.679 200.232 240.723 199.679L232.086 194.678C231.137 194.128 229.599 194.124 228.641 194.668L204.407 208.442C203.448 208.987 201.911 208.983 200.961 208.433L166.958 188.743Z" fill="#F8F8FB" stroke="#7187B4" stroke-linejoin="round"/>
<path d="M206.731 184.194C205.775 183.641 205.775 182.743 206.731 182.19L207.089 181.983C207.982 181.466 208.038 180.644 207.306 180.048C205.056 178.216 203.67 176.298 203.15 174.295C202.966 173.588 203.851 172.958 205.068 172.837L210.335 172.309C211.806 172.162 213.144 172.809 213.406 173.659C214.031 175.688 215.671 177.471 218.325 179.008C220.304 180.154 221.772 180.45 222.727 179.897C223.179 179.635 223.002 179.133 222.198 178.391C221.421 177.664 220.429 176.798 219.224 175.792C218.045 174.802 216.973 173.735 216.006 172.591C215.066 171.463 214.712 170.228 214.943 168.886C215.201 167.559 216.3 166.335 218.238 165.213C220.362 163.983 223.009 163.348 226.18 163.308C228.81 163.276 231.424 163.726 234.024 164.659C235.068 165.033 236.435 164.99 237.303 164.487L237.839 164.177C238.795 163.623 240.345 163.623 241.301 164.177L242.975 165.146C243.931 165.7 243.931 166.597 242.975 167.15L242.392 167.488C241.527 167.989 241.444 168.779 242.109 169.373C243.735 170.828 244.841 172.341 245.428 173.913C245.707 174.662 244.76 175.352 243.45 175.455L238.188 175.869C236.853 175.974 235.64 175.43 235.287 174.678C234.452 172.898 232.87 171.333 230.539 169.984C229.175 169.194 228.095 169.029 227.299 169.491C226.874 169.737 227.037 170.231 227.788 170.973C228.538 171.715 229.49 172.589 230.642 173.595C231.821 174.615 232.894 175.698 233.86 176.842C234.827 177.986 235.208 179.205 235.003 180.501C234.798 181.797 233.779 182.975 231.947 184.036C229.398 185.512 226.538 186.239 223.367 186.217C220.794 186.211 218.192 185.725 215.559 184.759C214.52 184.378 213.149 184.421 212.279 184.924L211.866 185.163C210.911 185.717 209.361 185.717 208.405 185.163L206.731 184.194Z" fill="#C3D39F" stroke="#7187B4" stroke-linejoin="round"/>
<path d="M42.3239 301.193C43.2798 300.64 44.8296 300.64 45.7855 301.193L71.2875 315.96C72.2434 316.514 72.2434 317.411 71.2875 317.964L45.7855 332.731C44.8296 333.285 43.2798 333.285 42.3239 332.731L16.8219 317.964C15.866 317.411 15.866 316.514 16.8219 315.96L42.3239 301.193Z" fill="#F8F8FB" stroke="#7187B4" stroke-linejoin="round"/>
<path d="M42.3239 309.472C43.2798 308.918 44.8296 308.918 45.7855 309.472L56.9907 315.96C57.9466 316.514 57.9466 317.411 56.9907 317.964L45.7855 324.453C44.8296 325.006 43.2798 325.006 42.3239 324.453L31.1187 317.964C30.1628 317.411 30.1628 316.514 31.1187 315.96L42.3239 309.472Z" fill="#F8F8FB" stroke="#7187B4" stroke-linejoin="round"/>
<path d="M42.3473 315.728C43.3032 315.175 44.853 315.175 45.8089 315.728L51.6009 319.082C52.5567 319.635 52.5567 320.533 51.6009 321.086L45.7874 324.452C44.8315 325.006 43.2817 325.006 42.3258 324.452L36.5339 321.099C35.578 320.545 35.578 319.648 36.5339 319.094L42.3473 315.728Z" fill="white" stroke="#7187B4" stroke-linejoin="round"/>
<path d="M44.0586 335.733C44.0586 334.629 43.2837 333.285 42.3278 332.731L16.8258 317.965C15.8699 317.411 15.095 317.858 15.095 318.962L15.095 363.039C15.095 364.144 15.8699 365.488 16.8258 366.042L42.3278 380.808C43.2837 381.362 44.0586 380.915 44.0586 379.81L44.0586 335.733Z" fill="#F8F8FB" stroke="#7187B4" stroke-linejoin="round"/>
<rect width="20.0813" height="3.35421" rx="1.67711" transform="matrix(-0.865392 -0.501096 -2.19663e-08 1 38.2617 339.323)" fill="#D7D9E4" stroke="#7187B4" stroke-linejoin="round"/>
<rect width="10.0529" height="3.35421" rx="1.67711" transform="matrix(-0.865392 -0.501096 -2.19663e-08 1 29.582 343.243)" fill="#FFE8DC" stroke="#7187B4" stroke-linejoin="round"/>
<rect width="20.0813" height="3.35421" rx="1.67711" transform="matrix(-0.865392 -0.501096 -2.19663e-08 1 38.2617 357.213)" fill="#D7D9E4" stroke="#7187B4" stroke-linejoin="round"/>
<rect width="4.87546" height="3.35421" rx="1.67711" transform="matrix(-0.865392 -0.501096 -2.19663e-08 1 38.2617 366.157)" fill="#D7D9E4" stroke="#7187B4" stroke-linejoin="round"/>
<rect width="10.0529" height="3.35421" rx="1.67711" transform="matrix(-0.865392 -0.501096 -2.19663e-08 1 29.582 361.132)" fill="#F59E6C" stroke="#7187B4" stroke-linejoin="round"/>
<path d="M73.0391 318.961C73.0391 317.857 72.2642 317.41 71.3083 317.964L45.8062 332.73C44.8504 333.284 44.0755 334.628 44.0755 335.732L44.0755 379.81C44.0755 380.914 44.8504 381.361 45.8062 380.807L71.3083 366.041C72.2642 365.487 73.0391 364.143 73.0391 363.038L73.0391 318.961Z" fill="#F8F8FB" stroke="#7187B4" stroke-linejoin="round"/>
<rect width="4.90009" height="3.35421" rx="1.67711" transform="matrix(-0.865392 0.501096 2.19663e-08 1 54.1055 336.868)" fill="#D7D9E4" stroke="#7187B4" stroke-linejoin="round"/>
<rect width="20.0813" height="3.35421" rx="1.67711" transform="matrix(-0.865392 0.501096 2.19663e-08 1 67.2422 338.205)" fill="white" stroke="#7187B4" stroke-linejoin="round"/>
<rect width="8.09599" height="3.35421" rx="1.67711" transform="matrix(-0.865392 0.501096 2.19663e-08 1 67.2422 347.149)" fill="#D7D9E4" stroke="#7187B4" stroke-linejoin="round"/>
<rect width="20.0813" height="3.35421" rx="1.67711" transform="matrix(-0.865392 0.501096 2.19663e-08 1 67.2422 356.094)" fill="#FFE8DC" stroke="#7187B4" stroke-linejoin="round"/>
<path d="M132.029 282.836C132.029 281.731 131.254 280.387 130.299 279.834L124.094 276.241C123.138 275.688 122.363 276.134 122.363 277.239L122.363 287.901C122.363 289.006 123.138 290.35 124.094 290.903L130.299 294.496C131.254 295.049 132.029 294.603 132.029 293.498L132.029 282.836Z" fill="white" stroke="#7187B4" stroke-linejoin="round"/>
<path d="M155.746 269.514C155.746 268.409 154.971 267.065 154.015 266.512L147.811 262.919C146.855 262.366 146.08 262.812 146.08 263.917L146.08 273.909C146.08 275.014 146.855 276.358 147.811 276.911L154.015 280.504C154.971 281.057 155.746 280.611 155.746 279.506L155.746 269.514Z" fill="white" stroke="#7187B4" stroke-linejoin="round"/>
<path d="M159.934 261.118C159.934 260.013 159.159 259.567 158.203 260.12L130.971 275.888C130.015 276.442 129.241 277.786 129.241 278.89L129.241 280.487C129.241 281.592 130.015 282.039 130.971 281.485L158.203 265.717C159.159 265.163 159.934 263.819 159.934 262.715L159.934 261.118Z" fill="#F8F8FB" stroke="#7187B4" stroke-linejoin="round"/>
<path d="M157.516 267.137C157.516 266.573 157.12 266.344 156.631 266.627C156.143 266.91 155.747 267.597 155.747 268.161L155.747 280.109C155.747 280.674 156.143 280.902 156.631 280.619C157.12 280.336 157.516 279.65 157.516 279.085L157.516 267.137Z" fill="white" stroke="#7187B4" stroke-linejoin="round"/>
<path d="M134.119 281.086C134.119 280.418 133.651 280.148 133.073 280.483C132.495 280.818 132.026 281.63 132.026 282.298L132.026 293.872C132.026 294.54 132.495 294.81 133.073 294.475C133.651 294.141 134.119 293.328 134.119 292.66L134.119 281.086Z" fill="white" stroke="#7187B4" stroke-linejoin="round"/>
<path d="M149.58 253.124C148.625 252.571 147.075 252.571 146.119 253.124L119.13 268.752C118.174 269.305 118.174 270.203 119.13 270.756L127.751 275.748C128.707 276.302 130.256 276.302 131.212 275.748L158.201 260.12C159.157 259.567 159.157 258.67 158.201 258.116L149.58 253.124Z" fill="#F8F8FB" stroke="#7187B4" stroke-linejoin="round"/>
<path d="M129.24 278.609C129.24 277.504 128.465 276.16 127.509 275.606L118.889 270.615C117.933 270.061 117.158 270.508 117.158 271.613L117.158 273.209C117.158 274.314 117.933 275.658 118.889 276.212L127.509 281.203C128.465 281.757 129.24 281.31 129.24 280.206L129.24 278.609Z" fill="#F8F8FB" stroke="#7187B4" stroke-linejoin="round"/>
<ellipse cx="143.312" cy="280.457" rx="1.04635" ry="1.04941" fill="white" stroke="#7187B4" stroke-linejoin="round"/>
<path d="M144.357 285.745C144.357 284.199 143.732 283.605 142.962 283.605C142.191 283.605 141.566 284.199 141.566 285.745C141.566 287.291 142.191 289.202 142.962 289.202C143.732 289.202 144.357 287.291 144.357 285.745Z" fill="#D7D9E4" stroke="#7187B4" stroke-linejoin="round"/>
<path d="M145.058 284.264C145.058 285.809 144.122 286.404 142.966 286.404C141.81 286.404 140.873 285.809 140.873 284.264C140.873 282.718 141.81 280.807 142.966 280.807C144.122 280.807 145.058 282.718 145.058 284.264Z" fill="#FFE8DC" stroke="#7187B4" stroke-linejoin="round"/>
<path d="M209.637 433.124C209.637 434.25 210.441 434.688 211.415 434.093L212.217 433.604C212.757 433.274 213.26 432.675 213.575 431.985L219.477 419.078C220.218 417.457 219.633 416.118 218.383 416.577L211.68 419.038C210.617 419.428 209.637 420.939 209.637 422.188L209.637 433.124Z" fill="#D7D9E4" stroke="#7187B4" stroke-linejoin="round"/>
<path d="M265.02 433.124C265.02 434.25 264.216 434.688 263.242 434.093L262.439 433.604C261.899 433.274 261.397 432.675 261.081 431.985L255.18 419.078C254.438 417.457 255.024 416.118 256.273 416.577L262.977 419.038C264.04 419.428 265.02 420.939 265.02 422.188L265.02 433.124Z" fill="#D7D9E4" stroke="#7187B4" stroke-linejoin="round"/>
<path d="M235.644 351.529C236.6 350.975 238.15 350.975 239.106 351.529L268.266 368.414C269.222 368.967 269.222 369.865 268.266 370.418L239.106 387.303C238.15 387.857 236.6 387.857 235.644 387.303L206.484 370.418C205.528 369.865 205.528 368.967 206.484 368.414L235.644 351.529Z" fill="#F8F8FB" stroke="#7187B4" stroke-linejoin="round"/>
<path d="M204.98 371.415C204.98 370.311 205.755 369.864 206.711 370.418L235.872 387.303C236.828 387.856 237.603 389.2 237.603 390.305L237.603 433.878C237.603 434.983 236.828 435.43 235.872 434.876L206.711 417.991C205.755 417.438 204.98 416.093 204.98 414.989L204.98 371.415Z" fill="#F8F8FB" stroke="#7187B4" stroke-linejoin="round"/>
<path d="M204.98 430.38C204.98 431.485 205.755 432.829 206.711 433.383L208.368 434.342C209.205 434.827 209.922 434.55 210.071 433.685L211.86 423.329C212.052 422.213 211.236 420.611 210.157 419.986L206.711 417.991C205.755 417.438 204.98 417.884 204.98 418.989L204.98 430.38Z" fill="#F8F8FB" stroke="#7187B4" stroke-linejoin="round"/>
<path d="M237.6 449.27C237.6 450.375 236.825 450.821 235.869 450.268L234.212 449.308C233.375 448.824 232.658 447.717 232.509 446.679L230.72 434.252C230.528 432.913 231.344 432.256 232.423 432.881L235.869 434.877C236.825 435.43 237.6 436.774 237.6 437.879L237.6 449.27Z" fill="#F8F8FB" stroke="#7187B4" stroke-linejoin="round"/>
<rect width="6.9808" height="9.79454" rx="2" transform="matrix(0.865392 0.501096 -2.19663e-08 1 209.809 379.21)" fill="#C3D39F" stroke="#7187B4" stroke-linejoin="round"/>
<rect width="6.9808" height="20.9883" rx="2" transform="matrix(0.865392 0.501096 -2.19663e-08 1 209.809 391.803)" fill="white" stroke="#7187B4" stroke-linejoin="round"/>
<rect width="6.9808" height="9.79454" rx="2" transform="matrix(0.865392 0.501096 -2.19663e-08 1 226.723 389.004)" fill="#FFE8DC" stroke="#7187B4" stroke-linejoin="round"/>
<rect width="6.9808" height="20.9883" rx="2" transform="matrix(0.865392 0.501096 -2.19663e-08 1 226.723 401.598)" fill="#DBEEF4" stroke="#7187B4" stroke-linejoin="round"/>
<rect width="6.9808" height="9.79454" rx="2" transform="matrix(0.865392 0.501096 -2.19663e-08 1 218.268 384.107)" fill="#D7D9E4" stroke="#7187B4" stroke-linejoin="round"/>
<rect width="6.9808" height="20.9883" rx="2" transform="matrix(0.865392 0.501096 -2.19663e-08 1 218.268 396.7)" fill="#FFE8DC" stroke="#7187B4" stroke-linejoin="round"/>
<path d="M237.541 390.305C237.541 389.2 238.316 387.856 239.272 387.303L268.432 370.418C269.388 369.864 270.163 370.311 270.163 371.415L270.163 414.989C270.163 416.093 269.388 417.438 268.432 417.991L239.272 434.876C238.316 435.43 237.541 434.983 237.541 433.878L237.541 390.305Z" fill="#F8F8FB" stroke="#7187B4" stroke-linejoin="round"/>
<path d="M212.225 366.716C212.225 367.82 213 369.164 213.955 369.718L235.867 382.405C236.822 382.959 237.597 382.512 237.597 381.407L237.597 374.214C237.597 373.109 236.822 371.765 235.867 371.211L213.955 358.524C213 357.971 212.225 358.417 212.225 359.522L212.225 366.716Z" fill="white" stroke="#7187B4" stroke-linejoin="round"/>
<path d="M237.541 381.407C237.541 382.512 238.316 382.959 239.272 382.405L261.183 369.718C262.139 369.164 262.914 367.82 262.914 366.716L262.914 359.522C262.914 358.417 262.139 357.971 261.183 358.524L239.272 371.212C238.316 371.765 237.541 373.109 237.541 374.214L237.541 381.407Z" fill="white" stroke="#7187B4" stroke-linejoin="round"/>
<path d="M235.869 259.179C236.825 258.626 238.375 258.626 239.33 259.179L280.573 283.061C281.529 283.614 281.529 284.511 280.573 285.065L239.33 308.946C238.375 309.5 236.825 309.5 235.869 308.946L194.626 285.065C193.67 284.511 193.67 283.614 194.626 283.061L235.869 259.179Z" fill="#F8F8FB" stroke="#7187B4" stroke-linejoin="round"/>
<path d="M235.869 268.448C236.825 267.894 238.375 267.894 239.33 268.448L264.567 283.06C265.523 283.614 265.523 284.511 264.567 285.065L239.33 299.678C238.375 300.231 236.825 300.231 235.869 299.678L210.633 285.065C209.677 284.511 209.677 283.614 210.633 283.06L235.869 268.448Z" fill="#F8F8FB" stroke="#7187B4" stroke-linejoin="round"/>
<path d="M235.806 273.871C236.762 273.318 238.312 273.318 239.268 273.871L259.851 285.79C260.807 286.343 260.807 287.24 259.851 287.794L239.328 299.678C238.372 300.231 236.822 300.231 235.866 299.678L215.283 287.759C214.327 287.206 214.327 286.308 215.283 285.755L235.806 273.871Z" fill="white" stroke="#7187B4" stroke-linejoin="round"/>
<path d="M204.756 299.226C204.756 298.122 205.531 297.675 206.487 298.228L235.871 315.243C236.827 315.796 237.602 317.14 237.602 318.245L237.602 375.811C237.602 376.915 236.827 377.362 235.871 376.808L206.487 359.794C205.531 359.24 204.756 357.896 204.756 356.792L204.756 299.226Z" fill="#F8F8FB" stroke="#7187B4" stroke-linejoin="round"/>
<rect width="12.8238" height="26.5852" rx="2" transform="matrix(0.865392 0.501096 -2.19663e-08 1 204.756 328.008)" fill="#C3D39F" stroke="#7187B4" stroke-linejoin="round"/>
<rect width="12.5654" height="26.5852" rx="2" transform="matrix(0.865392 0.501096 -2.19663e-08 1 215.85 334.435)" fill="#FFE8DC" stroke="#7187B4" stroke-linejoin="round"/>
<rect width="12.5654" height="26.5852" rx="2" transform="matrix(0.865392 0.501096 -2.19663e-08 1 226.727 340.731)" fill="white" stroke="#7187B4" stroke-linejoin="round"/>
<rect width="12.8238" height="26.5852" rx="2" transform="matrix(0.865392 0.501096 -2.19663e-08 1 204.756 301.424)" fill="white" stroke="#7187B4" stroke-linejoin="round"/>
<rect width="12.5654" height="26.5852" rx="2" transform="matrix(0.865392 0.501096 -2.19663e-08 1 215.85 307.849)" fill="#F59E6C" stroke="#7187B4" stroke-linejoin="round"/>
<rect width="12.5654" height="26.5852" rx="2" transform="matrix(0.865392 0.501096 -2.19663e-08 1 226.727 314.146)" fill="#D7D9E4" stroke="#7187B4" stroke-linejoin="round"/>
<path d="M192.893 289.059C192.893 290.164 193.667 291.508 194.623 292.062L235.866 315.943C236.822 316.496 237.597 316.049 237.597 314.945L237.597 311.949C237.597 310.844 236.822 309.5 235.866 308.947L194.623 285.065C193.667 284.512 192.893 284.959 192.893 286.063L192.893 289.059Z" fill="#F8F8FB" stroke="#7187B4" stroke-linejoin="round"/>
<path d="M237.537 318.245C237.537 317.141 238.312 315.796 239.268 315.243L268.592 298.263C269.548 297.71 270.323 298.156 270.323 299.261L270.323 356.827C270.323 357.931 269.548 359.275 268.592 359.829L239.268 376.809C238.312 377.362 237.537 376.915 237.537 375.811L237.537 318.245Z" fill="#F8F8FB" stroke="#7187B4" stroke-linejoin="round"/>
<rect width="12.5654" height="26.5852" rx="2" transform="matrix(0.865392 -0.501096 2.19663e-08 1 237.537 347.027)" fill="#FFE8DC" stroke="#7187B4" stroke-linejoin="round"/>
<rect width="12.5654" height="26.5852" rx="2" transform="matrix(0.865392 -0.501096 2.19663e-08 1 248.41 340.731)" fill="#DBEEF4" stroke="#7187B4" stroke-linejoin="round"/>
<rect width="12.7545" height="26.5852" rx="2" transform="matrix(0.865392 -0.501096 2.19663e-08 1 259.287 334.435)" fill="white" stroke="#7187B4" stroke-linejoin="round"/>
<rect width="12.5654" height="26.5852" rx="2" transform="matrix(0.865392 -0.501096 2.19663e-08 1 237.537 320.442)" fill="white" stroke="#7187B4" stroke-linejoin="round"/>
<rect width="12.5654" height="26.5852" rx="2" transform="matrix(0.865392 -0.501096 2.19663e-08 1 248.41 314.146)" fill="#FFE8DC" stroke="#7187B4" stroke-linejoin="round"/>
<rect width="12.7545" height="26.5852" rx="2" transform="matrix(0.865392 -0.501096 2.19663e-08 1 259.287 307.849)" fill="#D7D9E4" stroke="#7187B4" stroke-linejoin="round"/>
<path d="M237.537 314.944C237.537 316.049 238.312 316.496 239.268 315.942L280.511 292.061C281.467 291.507 282.241 290.163 282.241 289.059L282.241 286.063C282.241 284.958 281.467 284.511 280.511 285.065L239.268 308.946C238.312 309.5 237.537 310.844 237.537 311.948L237.537 314.944Z" fill="#F8F8FB" stroke="#7187B4" stroke-linejoin="round"/>
<path d="M237.541 449.27C237.541 450.375 238.316 450.821 239.272 450.268L240.929 449.308C241.766 448.824 242.483 447.717 242.632 446.679L244.42 434.252C244.613 432.913 243.797 432.256 242.717 432.881L239.272 434.877C238.316 435.43 237.541 436.774 237.541 437.879L237.541 449.27Z" fill="#F8F8FB" stroke="#7187B4" stroke-linejoin="round"/>
<path d="M270.16 430.38C270.16 431.485 269.385 432.829 268.429 433.383L266.772 434.342C265.936 434.827 265.219 434.55 265.069 433.685L263.281 423.329C263.088 422.213 263.904 420.611 264.984 419.986L268.429 417.991C269.385 417.438 270.16 417.884 270.16 418.989L270.16 430.38Z" fill="#F8F8FB" stroke="#7187B4" stroke-linejoin="round"/>
<rect width="6.9808" height="9.79454" rx="2" transform="matrix(0.865392 -0.501096 2.19663e-08 1 242.375 392.503)" fill="#C3D39F" stroke="#7187B4" stroke-linejoin="round"/>
<rect width="6.9808" height="20.9883" rx="2" transform="matrix(0.865392 -0.501096 2.19663e-08 1 242.375 405.096)" fill="white" stroke="#7187B4" stroke-linejoin="round"/>
<rect width="6.9808" height="9.79454" rx="2" transform="matrix(0.865392 -0.501096 2.19663e-08 1 259.287 382.708)" fill="#FFE8DC" stroke="#7187B4" stroke-linejoin="round"/>
<rect width="6.9808" height="20.9883" rx="2" transform="matrix(0.865392 -0.501096 2.19663e-08 1 259.287 395.301)" fill="#FFE8DC" stroke="#7187B4" stroke-linejoin="round"/>
<rect width="6.9808" height="9.79454" rx="2" transform="matrix(0.865392 -0.501096 2.19663e-08 1 250.832 387.606)" fill="#F59E6C" stroke="#7187B4" stroke-linejoin="round"/>
<rect width="6.9808" height="20.9883" rx="2" transform="matrix(0.865392 -0.501096 2.19663e-08 1 250.832 400.199)" fill="#D7D9E4" stroke="#7187B4" stroke-linejoin="round"/>
<path d="M87.6713 290.735C86.7231 291.285 85.9544 292.622 85.9544 293.718C85.9544 294.814 85.1857 296.151 84.2374 296.701C83.2892 297.25 82.5205 298.587 82.5205 299.683C82.5205 300.779 81.7518 302.117 80.8035 302.666C79.8553 303.215 79.0866 304.552 79.0866 305.648C79.0866 306.744 78.3179 308.082 77.3696 308.631C76.4214 309.18 75.6527 310.518 75.6527 311.613C75.6527 312.709 74.8839 314.047 73.9357 314.596C72.9875 315.145 72.2188 316.48 72.2188 317.576C72.2188 318.674 72.9891 319.121 73.9395 318.57L77.3658 316.586C78.3162 316.036 79.0866 314.698 79.0866 313.599C79.0866 312.504 79.8553 311.168 80.8035 310.619C81.7518 310.07 82.5205 308.732 82.5205 307.637C82.5205 306.541 83.2892 305.203 84.2374 304.654C85.1857 304.105 85.9544 302.767 85.9544 301.671C85.9544 300.576 86.7231 299.238 87.6713 298.689C88.6196 298.14 89.3883 296.806 89.3883 295.711L89.3883 291.725C89.3883 290.63 88.6196 290.186 87.6713 290.735Z" fill="#F8F8FB" stroke="#7187B4" stroke-linejoin="round"/>
<path d="M97.9838 296.701C97.0356 297.25 96.2669 298.588 96.2669 299.683C96.2669 300.779 95.4982 302.117 94.5499 302.666C93.6017 303.215 92.833 304.553 92.833 305.648C92.833 306.744 92.0643 308.082 91.116 308.631C90.1678 309.18 89.3991 310.518 89.3991 311.614C89.3991 312.709 88.6304 314.047 87.6821 314.596C86.7339 315.145 85.9652 316.483 85.9652 317.579C85.9652 318.674 85.1964 320.012 84.2482 320.561C83.3 321.11 82.5313 322.446 82.5313 323.542C82.5313 324.64 83.3016 325.086 84.252 324.536L87.6783 322.552C88.6287 322.001 89.3991 320.663 89.3991 319.565C89.3991 318.469 90.1678 317.134 91.116 316.584C92.0643 316.035 92.833 314.698 92.833 313.602C92.833 312.506 93.6017 311.168 94.5499 310.619C95.4982 310.07 96.2669 308.733 96.2669 307.637C96.2669 306.541 97.0356 305.203 97.9838 304.654C98.9321 304.105 99.7008 302.772 99.7008 301.676L99.7008 297.691C99.7008 296.595 98.9321 296.152 97.9838 296.701Z" fill="#F8F8FB" stroke="#7187B4" stroke-linejoin="round"/>
<rect width="3.96803" height="11.9041" rx="1.98402" transform="matrix(0.865392 -0.501096 0.865392 0.501096 72.2188 315.59)" fill="#F59E6C" stroke="#7187B4" stroke-linejoin="round"/>
<rect width="3.96803" height="11.9041" rx="1.98402" transform="matrix(0.865392 -0.501096 0.865392 0.501096 75.7852 309.625)" fill="#FFE8DC" stroke="#7187B4" stroke-linejoin="round"/>
<rect width="3.96803" height="11.9041" rx="1.98402" transform="matrix(0.865392 -0.501096 0.865392 0.501096 78.9609 303.66)" fill="white" stroke="#7187B4" stroke-linejoin="round"/>
<rect width="3.96803" height="11.9041" rx="1.98402" transform="matrix(0.865392 -0.501096 0.865392 0.501096 82.5312 297.695)" fill="#C3D39F" stroke="#7187B4" stroke-linejoin="round"/>
<rect width="4.04648" height="11.9874" rx="2" transform="matrix(0.865392 -0.501096 0.865392 0.501096 86.0254 291.688)" fill="white" stroke="#7187B4" stroke-linejoin="round"/>
<path d="M108.599 302.629C107.651 303.178 106.882 304.516 106.882 305.612C106.882 306.707 106.113 308.045 105.165 308.594C104.217 309.143 103.448 310.481 103.448 311.577C103.448 312.672 102.679 314.01 101.731 314.559C100.783 315.108 100.014 316.446 100.014 317.542C100.014 318.637 99.2456 319.975 98.2973 320.524C97.3491 321.073 96.5804 322.411 96.5804 323.507C96.5804 324.603 95.8117 325.94 94.8634 326.489C93.9152 327.038 93.1465 328.374 93.1465 329.47C93.1465 330.568 93.9169 331.014 94.8672 330.464L98.2936 328.48C99.2439 327.93 100.014 326.591 100.014 325.493C100.014 324.397 100.783 323.062 101.731 322.513C102.679 321.964 103.448 320.626 103.448 319.53C103.448 318.434 104.217 317.097 105.165 316.548C106.113 315.998 106.882 314.661 106.882 313.565C106.882 312.469 107.651 311.132 108.599 310.582C109.547 310.033 110.316 308.7 110.316 307.604L110.316 303.619C110.316 302.523 109.547 302.08 108.599 302.629Z" fill="#F8F8FB" stroke="#7187B4" stroke-linejoin="round"/>
<path d="M118.906 308.594C117.957 309.143 117.189 310.481 117.189 311.576C117.189 312.672 116.42 314.01 115.472 314.559C114.524 315.108 113.755 316.446 113.755 317.542C113.755 318.637 112.986 319.975 112.038 320.524C111.09 321.073 110.321 322.411 110.321 323.507C110.321 324.602 109.552 325.94 108.604 326.489C107.656 327.038 106.887 328.376 106.887 329.472C106.887 330.567 106.118 331.905 105.17 332.454C104.222 333.003 103.453 334.339 103.453 335.435C103.453 336.533 104.224 336.979 105.174 336.429L108.6 334.445C109.551 333.895 110.321 332.556 110.321 331.458C110.321 330.362 111.09 329.027 112.038 328.478C112.986 327.928 113.755 326.591 113.755 325.495C113.755 324.399 114.524 323.061 115.472 322.512C116.42 321.963 117.189 320.626 117.189 319.53C117.189 318.434 117.957 317.096 118.906 316.547C119.854 315.998 120.623 314.665 120.623 313.569L120.623 309.584C120.623 308.488 119.854 308.045 118.906 308.594Z" fill="#F8F8FB" stroke="#7187B4" stroke-linejoin="round"/>
<rect width="3.96803" height="11.9041" rx="1.98402" transform="matrix(0.865392 -0.501096 0.865392 0.501096 93.1465 327.483)" fill="#D7D9E4" stroke="#7187B4" stroke-linejoin="round"/>
<rect width="3.96803" height="11.9041" rx="1.98402" transform="matrix(0.865392 -0.501096 0.865392 0.501096 96.7148 321.518)" fill="white" stroke="#7187B4" stroke-linejoin="round"/>
<rect width="3.96803" height="11.9041" rx="1.98402" transform="matrix(0.865392 -0.501096 0.865392 0.501096 99.8848 315.553)" fill="white" stroke="#7187B4" stroke-linejoin="round"/>
<rect width="3.96803" height="11.9041" rx="1.98402" transform="matrix(0.865392 -0.501096 0.865392 0.501096 103.453 309.588)" fill="#FFE8DC" stroke="#7187B4" stroke-linejoin="round"/>
<rect width="4.04648" height="11.9874" rx="2" transform="matrix(0.865392 -0.501096 0.865392 0.501096 106.951 303.581)" fill="white" stroke="#7187B4" stroke-linejoin="round"/>
<path d="M129.523 314.522C128.575 315.071 127.806 316.409 127.806 317.505C127.806 318.601 127.037 319.938 126.089 320.487C125.141 321.036 124.372 322.374 124.372 323.47C124.372 324.566 123.603 325.903 122.655 326.453C121.707 327.002 120.938 328.339 120.938 329.435C120.938 330.531 120.169 331.869 119.221 332.418C118.273 332.967 117.504 334.304 117.504 335.4C117.504 336.496 116.736 337.834 115.787 338.383C114.839 338.932 114.07 340.267 114.07 341.363C114.07 342.461 114.841 342.908 115.791 342.357L119.217 340.373C120.168 339.823 120.938 338.484 120.938 337.386C120.938 336.291 121.707 334.955 122.655 334.406C123.603 333.857 124.372 332.519 124.372 331.423C124.372 330.328 125.141 328.99 126.089 328.441C127.037 327.892 127.806 326.554 127.806 325.458C127.806 324.363 128.575 323.025 129.523 322.476C130.471 321.927 131.24 320.593 131.24 319.498L131.24 315.512C131.24 314.416 130.471 313.973 129.523 314.522Z" fill="#F8F8FB" stroke="#7187B4" stroke-linejoin="round"/>
<path d="M139.833 320.487C138.885 321.036 138.116 322.374 138.116 323.47C138.116 324.566 137.348 325.903 136.4 326.453C135.451 327.002 134.683 328.339 134.683 329.435C134.683 330.531 133.914 331.869 132.966 332.418C132.017 332.967 131.249 334.304 131.249 335.4C131.249 336.496 130.48 337.834 129.532 338.383C128.583 338.932 127.815 340.27 127.815 341.365C127.815 342.461 127.046 343.799 126.098 344.348C125.15 344.897 124.381 346.232 124.381 347.328C124.381 348.426 125.151 348.873 126.102 348.322L129.528 346.338C130.478 345.788 131.249 344.45 131.249 343.351C131.249 342.256 132.017 340.92 132.966 340.371C133.914 339.822 134.683 338.484 134.683 337.389C134.683 336.293 135.451 334.955 136.4 334.406C137.348 333.857 138.116 332.519 138.116 331.423C138.116 330.328 138.885 328.99 139.833 328.441C140.782 327.892 141.55 326.558 141.55 325.463L141.55 321.477C141.55 320.382 140.782 319.938 139.833 320.487Z" fill="#F8F8FB" stroke="#7187B4" stroke-linejoin="round"/>
<rect width="3.96803" height="11.9041" rx="1.98402" transform="matrix(0.865392 -0.501096 0.865392 0.501096 114.07 339.377)" fill="#FFE8DC" stroke="#7187B4" stroke-linejoin="round"/>
<rect width="3.96803" height="11.9041" rx="1.98402" transform="matrix(0.865392 -0.501096 0.865392 0.501096 117.639 333.412)" fill="white" stroke="#7187B4" stroke-linejoin="round"/>
<rect width="3.96803" height="11.9041" rx="1.98402" transform="matrix(0.865392 -0.501096 0.865392 0.501096 120.812 327.447)" fill="white" stroke="#7187B4" stroke-linejoin="round"/>
<rect width="3.96803" height="11.9041" rx="1.98402" transform="matrix(0.865392 -0.501096 0.865392 0.501096 124.381 321.482)" fill="#F59E6C" stroke="#7187B4" stroke-linejoin="round"/>
<rect width="4.04648" height="11.9874" rx="2" transform="matrix(0.865392 -0.501096 0.865392 0.501096 127.883 315.475)" fill="white" stroke="#7187B4" stroke-linejoin="round"/>
<path d="M154.443 296.344C155.399 295.791 156.949 295.791 157.905 296.344L185.857 312.53C186.813 313.083 186.813 313.981 185.857 314.534L157.905 330.72C156.949 331.273 155.399 331.273 154.443 330.72L126.491 314.534C125.535 313.981 125.535 313.083 126.491 312.53L154.443 296.344Z" fill="#F8F8FB" stroke="#7187B4" stroke-linejoin="round"/>
<path d="M187.566 317.129C187.566 318.234 186.792 319.578 185.836 320.132L157.883 336.317C156.927 336.871 156.153 336.424 156.153 335.319L156.153 333.722C156.153 332.618 156.927 331.274 157.883 330.72L185.836 314.535C186.792 313.981 187.566 314.428 187.566 315.533L187.566 317.129Z" fill="#F8F8FB" stroke="#7187B4" stroke-linejoin="round"/>
<path d="M185.148 322.528C185.148 321.424 184.374 320.977 183.418 321.531L157.882 336.317C156.926 336.87 156.151 338.214 156.151 339.319L156.151 398.284C156.151 399.388 156.926 399.835 157.882 399.282L183.418 384.495C184.374 383.942 185.148 382.598 185.148 381.493L185.148 322.528Z" fill="#F8F8FB" stroke="#7187B4" stroke-linejoin="round"/>
<path d="M181.521 387.341C181.521 388.307 180.844 389.482 180.008 389.966L157.662 402.905C156.826 403.389 156.149 402.999 156.149 402.033C156.149 401.067 156.826 399.891 157.662 399.407L180.008 386.468C180.844 385.984 181.521 386.375 181.521 387.341Z" fill="white" stroke="#7187B4" stroke-linejoin="round"/>
<rect width="6.9808" height="6.9961" rx="2" transform="matrix(-0.865392 0.501096 2.19663e-08 1 162.191 340.817)" fill="#F59E6C" stroke="#7187B4" stroke-linejoin="round"/>
<rect width="6.9808" height="6.9961" rx="2" transform="matrix(-0.865392 0.501096 2.19663e-08 1 168.23 337.319)" fill="#FFE8DC" stroke="#7187B4" stroke-linejoin="round"/>
<rect width="6.9808" height="6.9961" rx="2" transform="matrix(-0.865392 0.501096 2.19663e-08 1 174.275 333.821)" fill="#C3D39F" stroke="#7187B4" stroke-linejoin="round"/>
<rect width="6.9808" height="6.9961" rx="2" transform="matrix(-0.865392 0.501096 2.19663e-08 1 180.314 330.323)" fill="white" stroke="#7187B4" stroke-linejoin="round"/>
<rect width="6.9808" height="6.9961" rx="2" transform="matrix(-0.865392 0.501096 2.19663e-08 1 162.191 347.813)" fill="#D7D9E4" stroke="#7187B4" stroke-linejoin="round"/>
<rect width="6.9808" height="6.9961" rx="2" transform="matrix(-0.865392 0.501096 2.19663e-08 1 168.23 344.315)" fill="white" stroke="#7187B4" stroke-linejoin="round"/>
<rect width="6.9808" height="6.9961" rx="2" transform="matrix(-0.865392 0.501096 2.19663e-08 1 174.275 340.817)" fill="#D7D9E4" stroke="#7187B4" stroke-linejoin="round"/>
<rect width="6.9808" height="6.9961" rx="2" transform="matrix(-0.865392 0.501096 2.19663e-08 1 180.314 337.319)" fill="#FFE8DC" stroke="#7187B4" stroke-linejoin="round"/>
<rect width="6.9808" height="6.9961" rx="2" transform="matrix(-0.865392 0.501096 2.19663e-08 1 162.191 375.798)" fill="white" stroke="#7187B4" stroke-linejoin="round"/>
<rect width="6.9808" height="6.9961" rx="2" transform="matrix(-0.865392 0.501096 2.19663e-08 1 168.23 372.3)" fill="#FFE8DC" stroke="#7187B4" stroke-linejoin="round"/>
<rect width="6.9808" height="6.9961" rx="2" transform="matrix(-0.865392 0.501096 2.19663e-08 1 174.275 368.801)" fill="#C3D39F" stroke="#7187B4" stroke-linejoin="round"/>
<rect width="6.9808" height="6.9961" rx="2" transform="matrix(-0.865392 0.501096 2.19663e-08 1 180.314 365.304)" fill="white" stroke="#7187B4" stroke-linejoin="round"/>
<rect width="6.9808" height="6.9961" rx="2" transform="matrix(-0.865392 0.501096 2.19663e-08 1 162.191 382.794)" fill="#D7D9E4" stroke="#7187B4" stroke-linejoin="round"/>
<rect width="6.9808" height="6.9961" rx="2" transform="matrix(-0.865392 0.501096 2.19663e-08 1 168.23 379.296)" fill="white" stroke="#7187B4" stroke-linejoin="round"/>
<rect width="6.9808" height="6.9961" rx="2" transform="matrix(-0.865392 0.501096 2.19663e-08 1 174.275 375.798)" fill="#D7D9E4" stroke="#7187B4" stroke-linejoin="round"/>
<rect width="6.9808" height="6.9961" rx="2" transform="matrix(-0.865392 0.501096 2.19663e-08 1 180.314 372.3)" fill="#DBEEF4" stroke="#7187B4" stroke-linejoin="round"/>
<rect width="6.9808" height="6.9961" rx="2" transform="matrix(-0.865392 0.501096 2.19663e-08 1 162.191 354.809)" fill="#FFE8DC" stroke="#7187B4" stroke-linejoin="round"/>
<rect width="6.9808" height="6.9961" rx="2" transform="matrix(-0.865392 0.501096 2.19663e-08 1 168.23 351.311)" fill="white" stroke="#7187B4" stroke-linejoin="round"/>
<rect width="6.9808" height="6.9961" rx="2" transform="matrix(-0.865392 0.501096 2.19663e-08 1 174.275 347.813)" fill="#FFE8DC" stroke="#7187B4" stroke-linejoin="round"/>
<rect width="6.9808" height="6.9961" rx="2" transform="matrix(-0.865392 0.501096 2.19663e-08 1 180.314 344.315)" fill="#D7D9E4" stroke="#7187B4" stroke-linejoin="round"/>
<rect width="6.9808" height="6.9961" rx="2" transform="matrix(-0.865392 0.501096 2.19663e-08 1 162.191 361.805)" fill="white" stroke="#7187B4" stroke-linejoin="round"/>
<rect width="6.9808" height="6.9961" rx="2" transform="matrix(-0.865392 0.501096 2.19663e-08 1 168.23 358.307)" fill="#FFE8DC" stroke="#7187B4" stroke-linejoin="round"/>
<rect width="6.9808" height="6.9961" rx="2" transform="matrix(-0.865392 0.501096 2.19663e-08 1 174.275 354.809)" fill="#DBEEF4" stroke="#7187B4" stroke-linejoin="round"/>
<rect width="6.9808" height="6.9961" rx="2" transform="matrix(-0.865392 0.501096 2.19663e-08 1 180.314 351.311)" fill="white" stroke="#7187B4" stroke-linejoin="round"/>
<rect width="6.9808" height="6.9961" rx="2" transform="matrix(-0.865392 0.501096 2.19663e-08 1 162.191 368.801)" fill="#D7D9E4" stroke="#7187B4" stroke-linejoin="round"/>
<rect width="6.9808" height="6.9961" rx="2" transform="matrix(-0.865392 0.501096 2.19663e-08 1 168.23 365.304)" fill="white" stroke="#7187B4" stroke-linejoin="round"/>
<rect width="6.9808" height="6.9961" rx="2" transform="matrix(-0.865392 0.501096 2.19663e-08 1 174.275 361.805)" fill="#C3D39F" stroke="#7187B4" stroke-linejoin="round"/>
<rect width="6.9808" height="6.9961" rx="2" transform="matrix(-0.865392 0.501096 2.19663e-08 1 180.314 358.307)" fill="white" stroke="#7187B4" stroke-linejoin="round"/>
<path d="M124.758 317.129C124.758 318.234 125.533 319.578 126.489 320.132L154.441 336.317C155.397 336.871 156.172 336.424 156.172 335.319L156.172 333.722C156.172 332.618 155.397 331.274 154.441 330.72L126.489 314.535C125.533 313.981 124.758 314.428 124.758 315.533L124.758 317.129Z" fill="#F8F8FB" stroke="#7187B4" stroke-linejoin="round"/>
<path d="M127.178 322.528C127.178 321.423 127.953 320.977 128.909 321.53L154.444 336.316C155.4 336.87 156.175 338.214 156.175 339.318L156.175 398.283C156.175 399.388 155.4 399.835 154.444 399.281L128.909 384.495C127.953 383.941 127.178 382.597 127.178 381.493L127.178 322.528Z" fill="#F8F8FB" stroke="#7187B4" stroke-linejoin="round"/>
<path d="M130.803 387.341C130.803 388.307 131.48 389.482 132.316 389.966L154.662 402.905C155.498 403.389 156.175 402.999 156.175 402.033C156.175 401.067 155.498 399.891 154.662 399.407L132.316 386.468C131.48 385.984 130.803 386.375 130.803 387.341Z" fill="white" stroke="#7187B4" stroke-linejoin="round"/>
<rect width="6.9808" height="6.9961" rx="2" transform="matrix(-0.865392 -0.501096 2.19663e-08 -1 138.045 382.794)" fill="white" stroke="#7187B4" stroke-linejoin="round"/>
<rect width="6.9808" height="6.9961" rx="2" transform="matrix(-0.865392 -0.501096 2.19663e-08 -1 144.086 386.292)" fill="#FFE8DC" stroke="#7187B4" stroke-linejoin="round"/>
<rect width="6.9808" height="6.9961" rx="2" transform="matrix(-0.865392 -0.501096 2.19663e-08 -1 150.127 389.79)" fill="#C3D39F" stroke="#7187B4" stroke-linejoin="round"/>
<rect width="6.9808" height="6.9961" rx="2" transform="matrix(-0.865392 -0.501096 2.19663e-08 -1 156.17 393.288)" fill="white" stroke="#7187B4" stroke-linejoin="round"/>
<rect width="6.9808" height="6.9961" rx="2" transform="matrix(-0.865392 -0.501096 2.19663e-08 -1 138.045 375.798)" fill="#DBEEF4" stroke="#7187B4" stroke-linejoin="round"/>
<rect width="6.9808" height="6.9961" rx="2" transform="matrix(-0.865392 -0.501096 2.19663e-08 -1 144.086 379.296)" fill="white" stroke="#7187B4" stroke-linejoin="round"/>
<rect width="6.9808" height="6.9961" rx="2" transform="matrix(-0.865392 -0.501096 2.19663e-08 -1 150.127 382.794)" fill="#D7D9E4" stroke="#7187B4" stroke-linejoin="round"/>
<rect width="6.9808" height="6.9961" rx="2" transform="matrix(-0.865392 -0.501096 2.19663e-08 -1 156.17 386.292)" fill="#FFE8DC" stroke="#7187B4" stroke-linejoin="round"/>
<rect width="6.9808" height="6.9961" rx="2" transform="matrix(-0.865392 -0.501096 2.19663e-08 -1 138.045 347.813)" fill="#FFE8DC" stroke="#7187B4" stroke-linejoin="round"/>
<rect width="6.9808" height="6.9961" rx="2" transform="matrix(-0.865392 -0.501096 2.19663e-08 -1 144.086 351.311)" fill="#FFE8DC" stroke="#7187B4" stroke-linejoin="round"/>
<rect width="6.9808" height="6.9961" rx="2" transform="matrix(-0.865392 -0.501096 2.19663e-08 -1 150.127 354.809)" fill="white" stroke="#7187B4" stroke-linejoin="round"/>
<rect width="6.9808" height="6.9961" rx="2" transform="matrix(-0.865392 -0.501096 2.19663e-08 -1 156.17 358.307)" fill="white" stroke="#7187B4" stroke-linejoin="round"/>
<rect width="6.9808" height="6.9961" rx="2" transform="matrix(-0.865392 -0.501096 2.19663e-08 -1 138.045 340.817)" fill="#D7D9E4" stroke="#7187B4" stroke-linejoin="round"/>
<rect width="6.9808" height="6.9961" rx="2" transform="matrix(-0.865392 -0.501096 2.19663e-08 -1 144.086 344.315)" fill="white" stroke="#7187B4" stroke-linejoin="round"/>
<rect width="6.9808" height="6.9961" rx="2" transform="matrix(-0.865392 -0.501096 2.19663e-08 -1 150.127 347.813)" fill="#D7D9E4" stroke="#7187B4" stroke-linejoin="round"/>
<rect width="6.9808" height="6.9961" rx="2" transform="matrix(-0.865392 -0.501096 2.19663e-08 -1 156.17 351.312)" fill="#FFE8DC" stroke="#7187B4" stroke-linejoin="round"/>
<rect width="6.9808" height="6.9961" rx="2" transform="matrix(-0.865392 -0.501096 2.19663e-08 -1 138.045 368.802)" fill="#FFE8DC" stroke="#7187B4" stroke-linejoin="round"/>
<rect width="6.9808" height="6.9961" rx="2" transform="matrix(-0.865392 -0.501096 2.19663e-08 -1 144.086 372.3)" fill="white" stroke="#7187B4" stroke-linejoin="round"/>
<rect width="6.9808" height="6.9961" rx="2" transform="matrix(-0.865392 -0.501096 2.19663e-08 -1 150.127 375.798)" fill="#FFE8DC" stroke="#7187B4" stroke-linejoin="round"/>
<rect width="6.9808" height="6.9961" rx="2" transform="matrix(-0.865392 -0.501096 2.19663e-08 -1 156.17 379.296)" fill="#D7D9E4" stroke="#7187B4" stroke-linejoin="round"/>
<rect width="6.9808" height="6.9961" rx="2" transform="matrix(-0.865392 -0.501096 2.19663e-08 -1 138.045 361.806)" fill="white" stroke="#7187B4" stroke-linejoin="round"/>
<rect width="6.9808" height="6.9961" rx="2" transform="matrix(-0.865392 -0.501096 2.19663e-08 -1 144.086 365.304)" fill="#FFE8DC" stroke="#7187B4" stroke-linejoin="round"/>
<rect width="6.9808" height="6.9961" rx="2" transform="matrix(-0.865392 -0.501096 2.19663e-08 -1 150.127 368.802)" fill="#F59E6C" stroke="#7187B4" stroke-linejoin="round"/>
<rect width="6.9808" height="6.9961" rx="2" transform="matrix(-0.865392 -0.501096 2.19663e-08 -1 156.17 372.3)" fill="white" stroke="#7187B4" stroke-linejoin="round"/>
<rect width="6.9808" height="6.9961" rx="2" transform="matrix(-0.865392 -0.501096 2.19663e-08 -1 138.045 354.809)" fill="#D7D9E4" stroke="#7187B4" stroke-linejoin="round"/>
<rect width="6.9808" height="6.9961" rx="2" transform="matrix(-0.865392 -0.501096 2.19663e-08 -1 144.086 358.307)" fill="white" stroke="#7187B4" stroke-linejoin="round"/>
<rect width="6.9808" height="6.9961" rx="2" transform="matrix(-0.865392 -0.501096 2.19663e-08 -1 150.127 361.806)" fill="#C3D39F" stroke="#7187B4" stroke-linejoin="round"/>
<rect width="6.9808" height="6.9961" rx="2" transform="matrix(-0.865392 -0.501096 2.19663e-08 -1 156.17 365.304)" fill="#DBEEF4" stroke="#7187B4" stroke-linejoin="round"/>
<ellipse rx="1.04635" ry="1.04941" transform="matrix(-1 0 0 1 173.549 405.938)" fill="white" stroke="#7187B4" stroke-linejoin="round"/>
<path d="M172.503 411.227C172.503 409.681 173.127 409.087 173.898 409.087C174.668 409.087 175.293 409.681 175.293 411.227C175.293 412.772 174.668 414.683 173.898 414.683C173.127 414.683 172.503 412.772 172.503 411.227Z" fill="white" stroke="#7187B4" stroke-linejoin="round"/>
<path d="M171.805 409.745C171.805 411.291 172.742 411.885 173.898 411.885C175.053 411.885 175.99 411.291 175.99 409.745C175.99 408.2 175.053 406.288 173.898 406.288C172.742 406.288 171.805 408.2 171.805 409.745Z" fill="#FFE8DC" stroke="#7187B4" stroke-linejoin="round"/>
<ellipse rx="1.04635" ry="1.04941" transform="matrix(-1 0 0 1 191.329 388.16)" fill="white" stroke="#7187B4" stroke-linejoin="round"/>
<path d="M190.28 393.448C190.28 391.902 190.905 391.308 191.675 391.308C192.446 391.308 193.07 391.902 193.07 393.448C193.07 394.993 192.446 396.905 191.675 396.905C190.905 396.905 190.28 394.993 190.28 393.448Z" fill="#D7D9E4" stroke="#7187B4" stroke-linejoin="round"/>
<path d="M189.582 391.966C189.582 393.512 190.519 394.106 191.675 394.106C192.831 394.106 193.768 393.512 193.768 391.966C193.768 390.421 192.831 388.509 191.675 388.509C190.519 388.509 189.582 390.421 189.582 391.966Z" fill="#F59E6C" stroke="#7187B4" stroke-linejoin="round"/>
<path d="M192.915 416.495C192.915 414.949 193.539 414.355 194.31 414.355C195.08 414.355 195.705 414.949 195.705 416.495C195.705 418.04 195.08 419.951 194.31 419.951C193.539 419.951 192.915 418.04 192.915 416.495Z" fill="white" stroke="#7187B4" stroke-linejoin="round"/>
<path d="M192.217 416.577C192.217 418.509 192.998 418.552 193.961 418.552C194.924 418.552 195.705 418.509 195.705 416.577C195.705 414.645 194.924 411.556 193.961 411.556C192.998 411.556 192.217 414.645 192.217 416.577Z" fill="#E6EAF1" stroke="#7187B4" stroke-linejoin="round"/>
<ellipse rx="1.04635" ry="1.04941" transform="matrix(-1 0 0 1 193.963 411.206)" fill="white" stroke="#7187B4" stroke-linejoin="round"/>
<ellipse rx="10.0248" ry="10.0467" transform="matrix(-0.865392 0.501096 2.19663e-08 1 156.018 271.215)" fill="#F59E6C" stroke="#7187B4" stroke-linejoin="round"/>
<ellipse rx="5.29063" ry="5.30223" transform="matrix(-0.865392 0.501096 2.19663e-08 1 156.019 295.002)" fill="#F59E6C" stroke="#7187B4" stroke-linejoin="round"/>
<rect width="55.8464" height="55.9688" rx="8" transform="matrix(-0.865392 0.501096 2.19663e-08 1 178.648 177.789)" fill="#FFE8DC" stroke="#7187B4" stroke-linejoin="round"/>
<rect width="55.8464" height="55.9688" rx="8" transform="matrix(-0.865392 0.501096 2.19663e-08 1 181.441 179.188)" fill="#F59E6C" stroke="#7187B4" stroke-linejoin="round"/>
<rect width="13.9922" height="6.9808" rx="2" transform="matrix(1.57785e-08 -1 -0.865392 0.501096 172.986 226.062)" fill="#FFE8DC" stroke="#7187B4" stroke-linejoin="round"/>
<rect width="20.9883" height="6.9808" rx="2" transform="matrix(1.57785e-08 -1 -0.865392 0.501096 164.523 230.959)" fill="white" stroke="#7187B4" stroke-linejoin="round"/>
<rect width="13.9922" height="6.9808" rx="2" transform="matrix(1.57785e-08 -1 -0.865392 0.501096 156.066 235.857)" fill="#F8F8FB" stroke="#7187B4" stroke-linejoin="round"/>
<rect width="27.9844" height="6.9808" rx="2" transform="matrix(1.57785e-08 -1 -0.865392 0.501096 147.611 240.753)" fill="#D7D9E4" stroke="#7187B4" stroke-linejoin="round"/>
<ellipse cx="365.857" cy="435.906" rx="1.04635" ry="1.04941" fill="white" stroke="#7187B4" stroke-linejoin="round"/>
<path d="M366.907 441.194C366.907 439.649 366.283 439.054 365.512 439.054C364.742 439.054 364.117 439.649 364.117 441.194C364.117 442.74 364.742 444.651 365.512 444.651C366.283 444.651 366.907 442.74 366.907 441.194Z" fill="white" stroke="#7187B4" stroke-linejoin="round"/>
<path d="M367.603 439.713C367.603 441.259 366.666 441.853 365.511 441.853C364.355 441.853 363.418 441.259 363.418 439.713C363.418 438.168 364.355 436.256 365.511 436.256C366.666 436.256 367.603 438.168 367.603 439.713Z" fill="#F59E6C" stroke="#7187B4" stroke-linejoin="round"/>
<ellipse cx="391.118" cy="437.379" rx="8.71961" ry="8.74512" fill="#FFE8DC" stroke="#7187B4" stroke-linejoin="round"/>
<ellipse cx="391.121" cy="428.285" rx="5.92934" ry="5.94668" fill="#FFE8DC" stroke="#7187B4" stroke-linejoin="round"/>
<path d="M390.77 446.475V454.87" stroke="#7187B4" stroke-linejoin="round"/>
<ellipse cx="412.044" cy="423.387" rx="8.71961" ry="8.74512" fill="#D7D9E4" stroke="#7187B4" stroke-linejoin="round"/>
<ellipse cx="412.045" cy="414.292" rx="5.92934" ry="5.94668" fill="#D7D9E4" stroke="#7187B4" stroke-linejoin="round"/>
<path d="M411.693 432.482V440.877" stroke="#7187B4" stroke-linejoin="round"/>
<ellipse cx="432.968" cy="409.395" rx="8.71961" ry="8.74512" fill="#C3D39F" stroke="#7187B4" stroke-linejoin="round"/>
<ellipse cx="432.97" cy="400.3" rx="5.92934" ry="5.94668" fill="#C3D39F" stroke="#7187B4" stroke-linejoin="round"/>
<path d="M327.865 151.725C327.865 155.573 324.032 158.693 319.304 158.693C314.577 158.693 310.744 155.573 310.744 151.725C310.744 147.877 314.577 135.646 319.304 135.646C324.032 135.646 327.865 147.877 327.865 151.725Z" fill="#C3D39F" stroke="#7187B4" stroke-linejoin="round"/>
<path d="M319.303 158.693V167.088" stroke="#7187B4" stroke-linejoin="round"/>
<path d="M363.421 222.491C363.421 227.218 359.589 231.051 354.861 231.051C350.133 231.051 346.301 227.218 346.301 222.491C346.301 217.763 350.133 202.736 354.861 202.736C359.589 202.736 363.421 217.763 363.421 222.491Z" fill="#D7D9E4" stroke="#7187B4" stroke-linejoin="round"/>
<path d="M354.859 231.051V239.446" stroke="#7187B4" stroke-linejoin="round"/>
<path d="M292.966 86.1861C292.966 90.9138 289.134 94.7463 284.406 94.7463C279.678 94.7463 275.846 90.9138 275.846 86.1861C275.846 81.4584 279.678 66.4318 284.406 66.4318C289.134 66.4318 292.966 81.4584 292.966 86.1861Z" fill="#FFE8DC" stroke="#7187B4" stroke-linejoin="round"/>
<path d="M284.404 94.7461V103.141" stroke="#7187B4" stroke-linejoin="round"/>
<rect width="55.8464" height="55.9688" rx="8" transform="matrix(-0.865392 -0.501096 -2.19663e-08 1 419.551 32.5192)" fill="#FFE8DC" stroke="#7187B4" stroke-linejoin="round"/>
<rect width="56.4473" height="56.4473" rx="8" transform="matrix(-0.866025 -0.5 -2.20305e-08 1 416.916 34.1661)" fill="#F59E6C" stroke="#7187B4" stroke-linejoin="round"/>
<path d="M384.264 55.8288C379.73 47.9608 379.73 39.4484 384.264 36.8159L391.247 32.7613C391.924 32.3684 393.024 33.0031 393.7 34.1775L400.683 46.2955C405.217 54.1635 405.217 62.6759 400.683 65.3085C396.149 67.941 388.798 63.6969 384.264 55.8288Z" fill="white" stroke="#7187B4" stroke-linejoin="round"/>
<ellipse rx="10.0248" ry="10.0467" transform="matrix(0.865392 0.501096 -2.19663e-08 1 394.041 97.9603)" fill="#F59E6C" stroke="#7187B4" stroke-linejoin="round"/>
<ellipse rx="5.29063" ry="5.30223" transform="matrix(0.865392 0.501096 -2.19663e-08 1 394.039 121.747)" fill="#F59E6C" stroke="#7187B4" stroke-linejoin="round"/>
<path d="M427.99 195.778C428.946 195.224 430.496 195.224 431.451 195.778L471.486 218.959C472.442 219.513 472.442 220.41 471.486 220.964L458.032 228.754C457.077 229.307 455.527 229.307 454.571 228.754L414.536 205.572C413.58 205.019 413.58 204.121 414.536 203.568L427.99 195.778Z" fill="#F8F8FB" stroke="#7187B4" stroke-linejoin="round"/>
<path d="M430.32 193.861C431.276 193.308 432.826 193.308 433.782 193.861L466.198 212.632C467.154 213.185 467.154 214.083 466.198 214.636L455.707 220.711C454.751 221.264 453.201 221.264 452.245 220.711L419.829 201.941C418.873 201.387 418.873 200.49 419.829 199.936L430.32 193.861Z" fill="white" stroke="#7187B4" stroke-linejoin="round"/>
<path d="M412.809 269.535C412.809 268.43 413.583 267.984 414.539 268.537L454.574 291.719C455.53 292.272 456.305 293.616 456.305 294.721L456.305 353.686C456.305 354.79 455.53 355.237 454.574 354.684L414.539 331.502C413.583 330.948 412.809 329.604 412.809 328.5L412.809 269.535Z" fill="#F8F8FB" stroke="#7187B4" stroke-linejoin="round"/>
<rect width="6.9808" height="8.39531" rx="2" transform="matrix(0.865392 0.501096 -2.19663e-08 1 417.641 277.329)" fill="#FFE8DC" stroke="#7187B4" stroke-linejoin="round"/>
<rect width="38.7494" height="4.19766" rx="2" transform="matrix(0.865392 0.501096 -2.19663e-08 1 417.641 293.42)" fill="white" stroke="#7187B4" stroke-linejoin="round"/>
<rect width="6.9808" height="8.39531" rx="2" transform="matrix(0.865392 0.501096 -2.19663e-08 1 426.701 282.576)" fill="white" stroke="#7187B4" stroke-linejoin="round"/>
<rect width="6.9808" height="20.9883" rx="2" transform="matrix(0.865392 0.501096 -2.19663e-08 1 417.641 305.313)" fill="white" stroke="#7187B4" stroke-linejoin="round"/>
<rect width="6.9808" height="20.9883" rx="2" transform="matrix(0.865392 0.501096 -2.19663e-08 1 426.701 310.561)" fill="#FFE8DC" stroke="#7187B4" stroke-linejoin="round"/>
<path d="M412.809 206.57C412.809 205.465 413.583 205.019 414.539 205.572L454.574 228.754C455.53 229.307 456.305 230.651 456.305 231.756L456.305 290.721C456.305 291.825 455.53 292.272 454.574 291.718L414.539 268.537C413.583 267.983 412.809 266.639 412.809 265.535L412.809 206.57Z" fill="#F8F8FB" stroke="#7187B4" stroke-linejoin="round"/>
<rect width="9.77312" height="20.9883" rx="2" transform="matrix(0.865392 0.501096 -2.19663e-08 1 417.641 214.364)" fill="white" stroke="#7187B4" stroke-linejoin="round"/>
<rect width="9.77312" height="20.9883" rx="2" transform="matrix(0.865392 0.501096 -2.19663e-08 1 426.1 219.261)" fill="#D7D9E4" stroke="#7187B4" stroke-linejoin="round"/>
<rect width="6.9808" height="8.39531" rx="2" transform="matrix(0.865392 0.501096 -2.19663e-08 1 417.641 242.349)" fill="#F59E6C" stroke="#7187B4" stroke-linejoin="round"/>
<rect width="6.9808" height="8.39531" rx="2" transform="matrix(0.865392 0.501096 -2.19663e-08 1 426.701 247.596)" fill="#C3D39F" stroke="#7187B4" stroke-linejoin="round"/>
<rect width="6.9808" height="8.39531" rx="2" transform="matrix(0.865392 0.501096 -2.19663e-08 1 417.641 254.942)" fill="white" stroke="#7187B4" stroke-linejoin="round"/>
<rect width="6.9808" height="8.39531" rx="2" transform="matrix(0.865392 0.501096 -2.19663e-08 1 426.701 260.189)" fill="#D7D9E4" stroke="#7187B4" stroke-linejoin="round"/>
<path d="M395.066 215.532C396.022 214.979 397.572 214.979 398.528 215.532L438.562 238.714C439.518 239.267 439.518 240.165 438.562 240.718L425.109 248.508C424.153 249.062 422.603 249.062 421.647 248.508L381.613 225.327C380.657 224.773 380.657 223.876 381.613 223.322L395.066 215.532Z" fill="#F8F8FB" stroke="#7187B4" stroke-linejoin="round"/>
<path d="M397.396 213.616C398.352 213.062 399.902 213.062 400.858 213.616L433.274 232.386C434.23 232.94 434.23 233.837 433.274 234.391L422.783 240.465C421.827 241.019 420.278 241.019 419.322 240.465L386.905 221.695C385.949 221.141 385.949 220.244 386.905 219.691L397.396 213.616Z" fill="white" stroke="#7187B4" stroke-linejoin="round"/>
<path d="M379.885 289.289C379.885 288.184 380.66 287.738 381.616 288.291L421.65 311.473C422.606 312.026 423.381 313.37 423.381 314.475L423.381 373.44C423.381 374.544 422.606 374.991 421.65 374.438L381.616 351.256C380.66 350.703 379.885 349.358 379.885 348.254L379.885 289.289Z" fill="#F8F8FB" stroke="#7187B4" stroke-linejoin="round"/>
<rect width="6.9808" height="8.39531" rx="2" transform="matrix(0.865392 0.501096 -2.19663e-08 1 384.717 297.084)" fill="#FFE8DC" stroke="#7187B4" stroke-linejoin="round"/>
<rect width="38.7494" height="4.19766" rx="2" transform="matrix(0.865392 0.501096 -2.19663e-08 1 384.717 313.174)" fill="white" stroke="#7187B4" stroke-linejoin="round"/>
<rect width="6.9808" height="8.39531" rx="2" transform="matrix(0.865392 0.501096 -2.19663e-08 1 393.777 302.33)" fill="white" stroke="#7187B4" stroke-linejoin="round"/>
<rect width="6.9808" height="8.39531" rx="2" transform="matrix(0.865392 0.501096 -2.19663e-08 1 403.443 307.928)" fill="#D7D9E4" stroke="#7187B4" stroke-linejoin="round"/>
<rect width="6.9808" height="8.39531" rx="2" transform="matrix(0.865392 0.501096 -2.19663e-08 1 412.504 313.174)" fill="white" stroke="#7187B4" stroke-linejoin="round"/>
<rect width="6.9808" height="20.9883" rx="2" transform="matrix(0.865392 0.501096 -2.19663e-08 1 384.717 325.068)" fill="#DBEEF4" stroke="#7187B4" stroke-linejoin="round"/>
<rect width="6.9808" height="20.9883" rx="2" transform="matrix(0.865392 0.501096 -2.19663e-08 1 393.777 330.315)" fill="#FFE8DC" stroke="#7187B4" stroke-linejoin="round"/>
<rect width="6.9808" height="20.9883" rx="2" transform="matrix(0.865392 0.501096 -2.19663e-08 1 403.443 335.912)" fill="white" stroke="#7187B4" stroke-linejoin="round"/>
<rect width="6.9808" height="20.9883" rx="2" transform="matrix(0.865392 0.501096 -2.19663e-08 1 412.504 341.159)" fill="#D7D9E4" stroke="#7187B4" stroke-linejoin="round"/>
<path d="M379.885 226.324C379.885 225.219 380.66 224.773 381.616 225.326L421.65 248.508C422.606 249.061 423.381 250.405 423.381 251.51L423.381 310.475C423.381 311.579 422.606 312.026 421.65 311.473L381.616 288.291C380.66 287.738 379.885 286.393 379.885 285.289L379.885 226.324Z" fill="#F8F8FB" stroke="#7187B4" stroke-linejoin="round"/>
<rect width="9.77312" height="20.9883" rx="2" transform="matrix(0.865392 0.501096 -2.19663e-08 1 384.717 234.119)" fill="white" stroke="#7187B4" stroke-linejoin="round"/>
<rect width="9.77312" height="20.9883" rx="2" transform="matrix(0.865392 0.501096 -2.19663e-08 1 393.176 239.016)" fill="#D7D9E4" stroke="#7187B4" stroke-linejoin="round"/>
<rect width="9.77312" height="20.9883" rx="2" transform="matrix(0.865392 0.501096 -2.19663e-08 1 401.631 243.913)" fill="#FFE8DC" stroke="#7187B4" stroke-linejoin="round"/>
<rect width="9.77312" height="20.9883" rx="2" transform="matrix(0.865392 0.501096 -2.19663e-08 1 410.088 248.81)" fill="white" stroke="#7187B4" stroke-linejoin="round"/>
<rect width="6.9808" height="8.39531" rx="2" transform="matrix(0.865392 0.501096 -2.19663e-08 1 384.717 262.103)" fill="#F59E6C" stroke="#7187B4" stroke-linejoin="round"/>
<rect width="6.9808" height="8.39531" rx="2" transform="matrix(0.865392 0.501096 -2.19663e-08 1 393.777 267.35)" fill="#C3D39F" stroke="#7187B4" stroke-linejoin="round"/>
<rect width="6.9808" height="8.39531" rx="2" transform="matrix(0.865392 0.501096 -2.19663e-08 1 403.443 272.947)" fill="#FFE8DC" stroke="#7187B4" stroke-linejoin="round"/>
<rect width="6.9808" height="8.39531" rx="2" transform="matrix(0.865392 0.501096 -2.19663e-08 1 412.504 278.194)" fill="#D7D9E4" stroke="#7187B4" stroke-linejoin="round"/>
<rect width="6.9808" height="8.39531" rx="2" transform="matrix(0.865392 0.501096 -2.19663e-08 1 384.717 274.696)" fill="white" stroke="#7187B4" stroke-linejoin="round"/>
<rect width="6.9808" height="8.39531" rx="2" transform="matrix(0.865392 0.501096 -2.19663e-08 1 393.777 279.943)" fill="#D7D9E4" stroke="#7187B4" stroke-linejoin="round"/>
<rect width="6.9808" height="8.39531" rx="2" transform="matrix(0.865392 0.501096 -2.19663e-08 1 403.443 285.54)" fill="white" stroke="#7187B4" stroke-linejoin="round"/>
<rect width="6.9808" height="8.39531" rx="2" transform="matrix(0.865392 0.501096 -2.19663e-08 1 412.504 290.787)" fill="#DBEEF4" stroke="#7187B4" stroke-linejoin="round"/>
<path d="M423.133 314.475C423.133 313.371 423.908 312.026 424.864 311.473L438.317 303.683C439.273 303.129 440.048 303.576 440.048 304.681L440.048 363.645C440.048 364.75 439.273 366.094 438.317 366.648L424.864 374.438C423.908 374.991 423.133 374.545 423.133 373.44L423.133 314.475Z" fill="#F8F8FB" stroke="#7187B4" stroke-linejoin="round"/>
<path d="M423.133 251.51C423.133 250.405 423.908 249.061 424.864 248.508L438.317 240.718C439.273 240.164 440.048 240.611 440.048 241.715L440.048 300.68C440.048 301.785 439.273 303.129 438.317 303.683L424.864 311.473C423.908 312.026 423.133 311.579 423.133 310.475L423.133 251.51Z" fill="#F8F8FB" stroke="#7187B4" stroke-linejoin="round"/>
<circle r="3.29239" transform="matrix(-0.866025 -0.5 -2.20305e-08 1 318.287 183.538)" fill="white" stroke="#7187B4" stroke-linejoin="round"/>
<circle r="3.29239" transform="matrix(-0.866025 -0.5 -2.20305e-08 1 310.303 178.928)" fill="white" stroke="#7187B4" stroke-linejoin="round"/>
<path d="M318.287 183.538L315.871 178.27L310.303 178.928" stroke="#7187B4" stroke-linecap="round" stroke-linejoin="round"/>
<path d="M314.264 179.17C313.767 177.611 313.154 177.145 312.634 177.311C312.115 177.477 311.885 178.211 312.382 179.77C312.879 181.329 313.915 183.123 314.435 182.957C314.955 182.791 314.761 180.729 314.264 179.17Z" fill="#F8F8FB" stroke="#7187B4" stroke-linejoin="round"/>
<path d="M314.612 175.307C314.604 175.816 314.903 176.863 316.164 176.981" stroke="#7187B4" stroke-linecap="round" stroke-linejoin="round"/>
<path d="M315.102 177.119C315.181 178.518 314.512 179.096 313.649 179.145C312.786 179.195 312.055 178.696 311.975 177.297C311.896 175.898 312.497 174.128 313.36 174.079C314.223 174.03 315.022 175.72 315.102 177.119Z" fill="#F59E6C" stroke="#7187B4" stroke-linejoin="round"/>
<path d="M312.249 175.484C312.25 175.986 312.242 176.694 313.529 176.831" stroke="#7187B4" stroke-linecap="round" stroke-linejoin="round"/>
<ellipse cx="314.035" cy="173.853" rx="1.04635" ry="1.04941" transform="rotate(7.71165 314.035 173.853)" fill="white" stroke="#7187B4" stroke-linejoin="round"/>
</svg>
