<svg width="32" height="32" viewBox="0 0 32 32" fill="none" xmlns="http://www.w3.org/2000/svg">
<path fill-rule="evenodd" clip-rule="evenodd" d="M0 16C0 7.16344 7.16344 0 16 0C24.8366 0 32 7.16344 32 16C32 24.8366 24.8366 32 16 32C7.16344 32 0 24.8366 0 16ZM20.5791 17.7684L20.5375 17.7481C20.3153 17.6392 19.2853 17.1346 19.0864 17.063C18.9965 17.0307 18.9002 16.9992 18.7978 16.9992C18.6304 16.9992 18.4898 17.0826 18.3803 17.2464C18.2565 17.4304 17.8817 17.8685 17.7659 17.9994C17.7508 18.0166 17.7302 18.0373 17.7178 18.0373C17.7067 18.0373 17.5149 17.9583 17.4569 17.9331C16.1274 17.3556 15.1183 15.9668 14.9799 15.7326C14.9601 15.699 14.9593 15.6837 14.9591 15.6837C14.964 15.6658 15.0087 15.621 15.0318 15.5979C15.0992 15.5312 15.1723 15.4432 15.243 15.3581L15.2432 15.3579C15.2767 15.3176 15.3102 15.2772 15.3432 15.2391C15.4457 15.1198 15.4914 15.0271 15.5444 14.9198L15.5444 14.9198L15.5445 14.9195L15.5723 14.8637C15.7017 14.6067 15.5912 14.3897 15.5555 14.3197C15.5332 14.2752 15.2258 13.5355 15.055 13.1244L15.0549 13.1242L14.9472 12.8654C14.8134 12.5452 14.6366 12.3962 14.391 12.3962L14.379 12.3962C14.3767 12.3963 14.3745 12.3964 14.3704 12.3967C14.3613 12.3972 14.3431 12.3982 14.2954 12.4002C14.1789 12.4051 13.545 12.4886 13.2648 12.6652C12.9675 12.8526 12.4647 13.4499 12.4647 14.5004C12.4647 15.4458 13.0647 16.3385 13.3223 16.678C13.3287 16.6866 13.3404 16.7039 13.3575 16.7289C14.344 18.1696 15.5738 19.2373 16.8205 19.7353C18.0207 20.2147 18.589 20.2701 18.9121 20.2701H18.9122C19.048 20.2701 19.1566 20.2595 19.2525 20.25L19.3133 20.2442C19.728 20.2075 20.6391 19.7354 20.8464 19.1594C21.0096 18.7057 21.0527 18.2101 20.9441 18.0302C20.8697 17.9079 20.7415 17.8464 20.5792 17.7685L20.5791 17.7684ZM8.30102 16.2871C8.30102 11.7176 12.0468 8 16.6509 8C21.2546 8 25 11.7176 25 16.2871C25 20.8561 21.2546 24.5733 16.6509 24.5733C15.2702 24.5733 13.9059 24.2328 12.6988 23.5879L8.28761 24.9896C8.26564 24.9966 8.24312 25 8.22077 25C8.16243 25 8.1053 24.9768 8.06319 24.9338C8.00484 24.8744 7.98497 24.7872 8.01169 24.7084L9.44582 20.4779C8.69655 19.2118 8.30102 17.7651 8.30102 16.2871ZM13.0116 21.7621C14.0933 22.4719 15.3517 22.8471 16.6509 22.8471C20.2973 22.8471 23.2639 19.9043 23.2638 16.2871C23.2638 12.6695 20.2972 9.72627 16.6508 9.72627C13.004 9.72627 10.0371 12.6695 10.0371 16.2871C10.0371 17.6776 10.4725 19.0074 11.2962 20.1329C11.3387 20.191 11.3503 20.2661 11.3272 20.3342L10.6138 22.4387L12.8236 21.7363C12.8455 21.7294 12.868 21.726 12.8905 21.726C12.933 21.726 12.9752 21.7382 13.0116 21.7621Z" fill="#2E0DB2"/>
</svg>
